<?xml version="1.0" standalone="no"?>
<!DOCTYPE svg PUBLIC "-//W3C//DTD SVG 1.1//EN"
  "http://www.w3.org/Graphics/SVG/1.1/DTD/svg11.dtd">
<svg width="984.25px" height="590.55px" version="1.1"
    xmlns="http://www.w3.org/2000/svg"
    xmlns:xlink="http://www.w3.org/1999/xlink">
<desc>Veusz output document</desc>
<defs>
<clipPath id="c0">
<path d="m0,0l984.25,0l0,590.55l-984.25,0l0,-590.55"/>
</clipPath>
<clipPath id="c1">
<path d="m616.87,54.05l39.37,0l0,30.78l-39.37,0l0,-30.78"/>
</clipPath>
<clipPath id="c2">
<path d="m66.92,7.87l909.44,0l0,515.74l-909.44,0l0,-515.74"/>
</clipPath>
</defs>
<g stroke-linejoin="bevel" stroke-linecap="square" stroke="#000000" fill-rule="evenodd">
<g clip-path="url(#c0)">
<g fill="#ffffff" stroke-width="0.69">
<path d="m66.92,7.87l909.44,0l0,515.74l-909.44,0l0,-515.74"/>
</g>
<g fill="#ffffff" stroke="none" stroke-width="0.1">
<path d="m586.09,38.65l359.49,0l0,61.56l-359.49,0l0,-61.56" id="p0"/>
</g>
<g fill="none" stroke-width="0.69">
<use xlink:href="#p0"/>
</g>
</g>
<g clip-path="url(#c1)">
<g fill="none" stroke="#e41a1c" stroke-linecap="butt" stroke-width="0.69">
<path d="M636.56,69.44l0,0"/>
</g>
<g fill="none" stroke="#e41a1c" stroke-width="2.08">
<path d="M616.87,69.44l39.37,0"/>
</g>
</g>
<g fill="none" stroke-width="0.1">
<path d="m695.61,78.31l0,0.5l-7.88,0l0,-0.5l0.65,0c0.76,0,1.31,-0.22,1.65,-0.66c0.21,-0.28,0.32,-0.98,0.32,-2.09l0,-11.89c0,-0.93,-0.05,-1.54,-0.17,-1.84c-0.09,-0.22,-0.27,-0.42,-0.55,-0.58c-0.39,-0.21,-0.81,-0.32,-1.24,-0.32l-0.65,0l0,-0.5l7.88,0l0,0.5l-0.66,0c-0.75,0,-1.29,0.22,-1.64,0.66c-0.22,0.28,-0.33,0.98,-0.33,2.09l0,11.89c0,0.93,0.05,1.54,0.17,1.84c0.09,0.22,0.28,0.42,0.57,0.58c0.38,0.21,0.8,0.32,1.23,0.32l0.66,0m5.17,-9.66c1.45,-1.75,2.84,-2.63,4.16,-2.63c0.67,0,1.26,0.16,1.75,0.5c0.48,0.33,0.87,0.89,1.16,1.67c0.19,0.54,0.29,1.37,0.29,2.49l0,5.3c0,0.78,0.06,1.32,0.19,1.6c0.09,0.22,0.26,0.4,0.48,0.52c0.22,0.12,0.63,0.19,1.22,0.19l0,0.48l-6.14,0l0,-0.48l0.25,0c0.57,0,0.98,-0.08,1.21,-0.26c0.23,-0.17,0.39,-0.43,0.48,-0.78c0.03,-0.13,0.05,-0.56,0.05,-1.27l0,-5.09c0,-1.13,-0.14,-1.95,-0.44,-2.46c-0.29,-0.51,-0.78,-0.76,-1.48,-0.76c-1.07,0,-2.14,0.58,-3.21,1.76l0,6.55c0,0.84,0.04,1.36,0.14,1.56c0.12,0.26,0.3,0.45,0.52,0.57c0.22,0.12,0.67,0.18,1.35,0.18l0,0.48l-6.14,0l0,-0.48l0.27,0c0.63,0,1.06,-0.16,1.28,-0.48c0.22,-0.32,0.33,-0.93,0.33,-1.83l0,-4.61c0,-1.49,-0.03,-2.4,-0.1,-2.72c-0.06,-0.32,-0.17,-0.54,-0.31,-0.66c-0.14,-0.11,-0.32,-0.17,-0.56,-0.17c-0.25,0,-0.55,0.06,-0.9,0.2l-0.2,-0.48l3.74,-1.52l0.58,0l0,2.63m9.37,-1.03l3.82,-1.54l0.51,0l0,2.9c0.64,-1.09,1.28,-1.86,1.93,-2.3c0.64,-0.43,1.32,-0.65,2.04,-0.65c1.24,0,2.28,0.48,3.12,1.46c1.02,1.19,1.53,2.75,1.53,4.66c0,2.14,-0.61,3.91,-1.84,5.32c-1.01,1.14,-2.28,1.72,-3.82,1.72c-0.66,0,-1.24,-0.09,-1.73,-0.28c-0.36,-0.13,-0.76,-0.4,-1.22,-0.81l0,3.78c0,0.85,0.05,1.39,0.15,1.62c0.1,0.23,0.28,0.41,0.54,0.54c0.25,0.13,0.72,0.2,1.4,0.2l0,0.5l-6.51,0l0,-0.5l0.33,0c0.49,0,0.92,-0.08,1.27,-0.28c0.17,-0.09,0.3,-0.26,0.4,-0.48c0.09,-0.22,0.14,-0.78,0.14,-1.69l0,-11.75c0,-0.8,-0.03,-1.31,-0.1,-1.53c-0.07,-0.21,-0.18,-0.38,-0.34,-0.48c-0.15,-0.1,-0.37,-0.16,-0.64,-0.16c-0.21,0,-0.49,0.06,-0.82,0.19l-0.16,-0.43m4.34,2.15l0,4.64c0,1,0.04,1.66,0.12,1.98c0.12,0.52,0.43,0.98,0.92,1.38c0.49,0.39,1.11,0.59,1.86,0.59c0.9,0,1.63,-0.35,2.19,-1.05c0.73,-0.92,1.09,-2.22,1.09,-3.89c0,-1.9,-0.41,-3.36,-1.24,-4.38c-0.57,-0.7,-1.26,-1.05,-2.06,-1.05c-0.43,0,-0.86,0.1,-1.28,0.32c-0.32,0.16,-0.86,0.65,-1.61,1.46m21.35,-3.39l0,7.53c0,1.43,0.03,2.31,0.1,2.64c0.06,0.32,0.17,0.54,0.32,0.67c0.14,0.12,0.32,0.19,0.52,0.19c0.28,0,0.59,-0.07,0.95,-0.23l0.19,0.47l-3.71,1.53l-0.61,0l0,-2.63c-1.06,1.15,-1.88,1.88,-2.44,2.18c-0.56,0.29,-1.15,0.44,-1.77,0.44c-0.69,0,-1.3,-0.2,-1.81,-0.6c-0.51,-0.4,-0.86,-0.92,-1.06,-1.55c-0.19,-0.63,-0.29,-1.52,-0.29,-2.68l0,-5.55c0,-0.58,-0.06,-0.99,-0.19,-1.22c-0.12,-0.22,-0.31,-0.4,-0.56,-0.52c-0.24,-0.12,-0.69,-0.17,-1.35,-0.16l0,-0.5l4.35,0l0,8.32c0,1.15,0.2,1.91,0.6,2.28c0.4,0.36,0.88,0.54,1.45,0.54c0.38,0,0.83,-0.12,1.32,-0.36c0.49,-0.24,1.07,-0.71,1.75,-1.39l0,-7.04c0,-0.7,-0.12,-1.18,-0.38,-1.43c-0.25,-0.24,-0.79,-0.38,-1.6,-0.4l0,-0.5l4.23,0m6.61,-4.08l0,4.08l2.9,0l0,0.95l-2.9,0l0,8.06c0,0.8,0.11,1.34,0.34,1.62c0.23,0.28,0.52,0.42,0.88,0.42c0.29,0,0.58,-0.09,0.86,-0.27c0.28,-0.18,0.49,-0.45,0.65,-0.82l0.52,0c-0.31,0.88,-0.76,1.55,-1.34,2c-0.57,0.44,-1.17,0.67,-1.79,0.67c-0.41,0,-0.82,-0.11,-1.22,-0.34c-0.39,-0.23,-0.69,-0.56,-0.88,-0.99c-0.19,-0.42,-0.28,-1.09,-0.28,-1.98l0,-8.36l-1.96,0l0,-0.44c0.49,-0.19,1,-0.53,1.52,-1.01c0.52,-0.47,0.98,-1.03,1.39,-1.69c0.2,-0.34,0.49,-0.97,0.86,-1.88l0.42,0m4.37,9.25l7.01,0l0,2.04l-7.01,0l0,-2.04m12.63,-5.53l0,2.79c1.04,-1.86,2.1,-2.79,3.2,-2.79c0.49,0,0.9,0.15,1.23,0.45c0.32,0.3,0.48,0.65,0.48,1.05c0,0.35,-0.11,0.65,-0.35,0.89c-0.23,0.24,-0.51,0.36,-0.84,0.36c-0.31,0,-0.67,-0.15,-1.06,-0.46c-0.39,-0.31,-0.68,-0.46,-0.87,-0.46c-0.16,0,-0.33,0.09,-0.52,0.27c-0.4,0.37,-0.82,0.98,-1.26,1.83l0,5.95c0,0.68,0.08,1.2,0.25,1.56c0.11,0.24,0.32,0.44,0.62,0.61c0.29,0.16,0.72,0.24,1.28,0.24l0,0.48l-6.36,0l0,-0.48c0.63,0,1.1,-0.09,1.41,-0.29c0.22,-0.14,0.38,-0.37,0.47,-0.69c0.04,-0.15,0.06,-0.59,0.06,-1.31l0,-4.81c0,-1.44,-0.02,-2.3,-0.08,-2.58c-0.05,-0.27,-0.16,-0.47,-0.32,-0.6c-0.15,-0.12,-0.35,-0.19,-0.59,-0.19c-0.28,0,-0.59,0.06,-0.95,0.2l-0.13,-0.48l3.76,-1.52l0.57,0m7.7,5.04c0,1.84,0.43,3.29,1.34,4.34c0.9,1.04,1.96,1.57,3.18,1.57c0.81,0,1.52,-0.22,2.12,-0.67c0.6,-0.44,1.1,-1.21,1.51,-2.3l0.42,0.27c-0.19,1.23,-0.74,2.36,-1.65,3.38c-0.91,1.01,-2.05,1.52,-3.43,1.52c-1.49,0,-2.77,-0.58,-3.83,-1.74c-1.06,-1.16,-1.59,-2.72,-1.59,-4.68c0,-2.12,0.54,-3.78,1.63,-4.97c1.09,-1.19,2.45,-1.78,4.1,-1.78c1.39,0,2.53,0.45,3.43,1.37c0.89,0.91,1.34,2.14,1.34,3.68l-8.59,0m0,-0.78l5.75,0c-0.04,-0.79,-0.14,-1.35,-0.28,-1.68c-0.22,-0.5,-0.56,-0.9,-1.01,-1.19c-0.44,-0.28,-0.91,-0.43,-1.4,-0.43c-0.75,0,-1.42,0.29,-2.01,0.87c-0.59,0.58,-0.93,1.39,-1.03,2.43m15.1,-2.91l0,8.17c0,1.15,0.12,1.89,0.38,2.19c0.33,0.39,0.78,0.59,1.34,0.59l1.12,0l0,0.48l-7.42,0l0,-0.48l0.55,0c0.36,0,0.69,-0.09,0.99,-0.27c0.29,-0.18,0.5,-0.42,0.61,-0.73c0.11,-0.3,0.16,-0.9,0.16,-1.79l0,-8.17l-2.41,0l0,-0.97l2.41,0l0,-0.81c0,-1.23,0.19,-2.28,0.59,-3.14c0.39,-0.85,1,-1.55,1.82,-2.08c0.81,-0.52,1.73,-0.79,2.76,-0.79c0.95,0,1.82,0.3,2.61,0.92c0.52,0.4,0.78,0.86,0.78,1.37c0,0.27,-0.11,0.52,-0.35,0.76c-0.23,0.23,-0.48,0.35,-0.76,0.35c-0.2,0,-0.42,-0.07,-0.65,-0.22c-0.23,-0.14,-0.51,-0.47,-0.84,-0.96c-0.33,-0.49,-0.64,-0.82,-0.92,-0.99c-0.28,-0.17,-0.59,-0.25,-0.93,-0.25c-0.41,0,-0.76,0.11,-1.05,0.33c-0.28,0.22,-0.49,0.56,-0.62,1.03c-0.12,0.46,-0.19,1.66,-0.19,3.6l0,0.89l3.2,0l0,0.97l-3.2,0m6.48,3.7c0,1.84,0.43,3.29,1.34,4.34c0.9,1.04,1.96,1.57,3.18,1.57c0.81,0,1.52,-0.22,2.12,-0.67c0.6,-0.44,1.1,-1.21,1.51,-2.3l0.42,0.27c-0.19,1.23,-0.74,2.36,-1.65,3.38c-0.91,1.01,-2.05,1.52,-3.43,1.52c-1.49,0,-2.77,-0.58,-3.83,-1.74c-1.06,-1.16,-1.59,-2.72,-1.59,-4.68c0,-2.12,0.54,-3.78,1.63,-4.97c1.09,-1.19,2.45,-1.78,4.1,-1.78c1.39,0,2.53,0.45,3.43,1.37c0.89,0.91,1.34,2.14,1.34,3.68l-8.59,0m0,-0.78l5.75,0c-0.04,-0.79,-0.14,-1.35,-0.28,-1.68c-0.22,-0.5,-0.56,-0.9,-1.01,-1.19c-0.44,-0.28,-0.91,-0.43,-1.4,-0.43c-0.75,0,-1.42,0.29,-2.01,0.87c-0.59,0.58,-0.93,1.39,-1.03,2.43m13.88,-4.26l0,2.79c1.04,-1.86,2.1,-2.79,3.2,-2.79c0.49,0,0.9,0.15,1.23,0.45c0.32,0.3,0.48,0.65,0.48,1.05c0,0.35,-0.11,0.65,-0.35,0.89c-0.23,0.24,-0.51,0.36,-0.84,0.36c-0.31,0,-0.67,-0.15,-1.06,-0.46c-0.39,-0.31,-0.68,-0.46,-0.87,-0.46c-0.16,0,-0.33,0.09,-0.52,0.27c-0.4,0.37,-0.82,0.98,-1.26,1.83l0,5.95c0,0.68,0.08,1.2,0.25,1.56c0.11,0.24,0.32,0.44,0.62,0.61c0.29,0.16,0.72,0.24,1.28,0.24l0,0.48l-6.36,0l0,-0.48c0.63,0,1.1,-0.09,1.41,-0.29c0.22,-0.14,0.38,-0.37,0.47,-0.69c0.04,-0.15,0.06,-0.59,0.06,-1.31l0,-4.81c0,-1.44,-0.02,-2.3,-0.08,-2.58c-0.05,-0.27,-0.16,-0.47,-0.32,-0.6c-0.15,-0.12,-0.35,-0.19,-0.59,-0.19c-0.28,0,-0.59,0.06,-0.95,0.2l-0.13,-0.48l3.76,-1.52l0.57,0m9.25,0l0,2.79c1.04,-1.86,2.1,-2.79,3.2,-2.79c0.49,0,0.9,0.15,1.23,0.45c0.32,0.3,0.48,0.65,0.48,1.05c0,0.35,-0.11,0.65,-0.35,0.89c-0.23,0.24,-0.51,0.36,-0.84,0.36c-0.31,0,-0.67,-0.15,-1.06,-0.46c-0.39,-0.31,-0.68,-0.46,-0.87,-0.46c-0.16,0,-0.33,0.09,-0.52,0.27c-0.4,0.37,-0.82,0.98,-1.26,1.83l0,5.95c0,0.68,0.08,1.2,0.25,1.56c0.11,0.24,0.32,0.44,0.62,0.61c0.29,0.16,0.72,0.24,1.28,0.24l0,0.48l-6.36,0l0,-0.48c0.63,0,1.1,-0.09,1.41,-0.29c0.22,-0.14,0.38,-0.37,0.47,-0.69c0.04,-0.15,0.06,-0.59,0.06,-1.31l0,-4.81c0,-1.44,-0.02,-2.3,-0.08,-2.58c-0.05,-0.27,-0.16,-0.47,-0.32,-0.6c-0.15,-0.12,-0.35,-0.19,-0.59,-0.19c-0.28,0,-0.59,0.06,-0.95,0.2l-0.13,-0.48l3.76,-1.52l0.57,0m7.7,5.04c0,1.84,0.43,3.29,1.34,4.34c0.9,1.04,1.96,1.57,3.18,1.57c0.81,0,1.52,-0.22,2.12,-0.67c0.6,-0.44,1.1,-1.21,1.51,-2.3l0.42,0.27c-0.19,1.23,-0.74,2.36,-1.65,3.38c-0.91,1.01,-2.05,1.52,-3.43,1.52c-1.49,0,-2.77,-0.58,-3.83,-1.74c-1.06,-1.16,-1.59,-2.72,-1.59,-4.68c0,-2.12,0.54,-3.78,1.63,-4.97c1.09,-1.19,2.45,-1.78,4.1,-1.78c1.39,0,2.53,0.45,3.43,1.37c0.89,0.91,1.34,2.14,1.34,3.68l-8.59,0m0,-0.78l5.75,0c-0.04,-0.79,-0.14,-1.35,-0.28,-1.68c-0.22,-0.5,-0.56,-0.9,-1.01,-1.19c-0.44,-0.28,-0.91,-0.43,-1.4,-0.43c-0.75,0,-1.42,0.29,-2.01,0.87c-0.59,0.58,-0.93,1.39,-1.03,2.43m19.02,7.14c-0.6,0.63,-1.19,1.08,-1.77,1.36c-0.57,0.27,-1.2,0.41,-1.87,0.41c-1.35,0,-2.54,-0.56,-3.55,-1.7c-1.01,-1.13,-1.52,-2.59,-1.52,-4.37c0,-1.78,0.56,-3.41,1.68,-4.89c1.12,-1.47,2.56,-2.21,4.33,-2.21c1.09,0,1.99,0.34,2.71,1.04l0,-2.29c0,-1.42,-0.03,-2.29,-0.1,-2.61c-0.06,-0.32,-0.17,-0.54,-0.31,-0.66c-0.14,-0.11,-0.32,-0.17,-0.54,-0.17c-0.23,0,-0.54,0.07,-0.93,0.21l-0.17,-0.47l3.7,-1.52l0.61,0l0,14.37c0,1.45,0.03,2.34,0.1,2.66c0.06,0.32,0.17,0.54,0.32,0.67c0.14,0.12,0.32,0.19,0.52,0.19c0.24,0,0.57,-0.07,0.97,-0.23l0.14,0.47l-3.69,1.53l-0.62,0l0,-1.77m0,-0.95l0,-6.4c-0.05,-0.61,-0.21,-1.17,-0.48,-1.68c-0.27,-0.5,-0.63,-0.88,-1.07,-1.14c-0.44,-0.25,-0.88,-0.38,-1.3,-0.38c-0.79,0,-1.5,0.35,-2.13,1.07c-0.82,0.94,-1.23,2.31,-1.23,4.12c0,1.82,0.39,3.22,1.19,4.2c0.79,0.97,1.68,1.45,2.66,1.45c0.82,0,1.61,-0.41,2.38,-1.23m10.83,-16.05l4.99,0l11.25,13.8l0,-10.61c0,-1.13,-0.12,-1.83,-0.38,-2.11c-0.33,-0.38,-0.86,-0.57,-1.58,-0.57l-0.63,0l0,-0.5l6.4,0l0,0.5l-0.65,0c-0.77,0,-1.33,0.23,-1.65,0.7c-0.19,0.28,-0.29,0.95,-0.29,1.98l0,15.51l-0.48,0l-12.13,-14.82l0,11.33c0,1.13,0.12,1.83,0.36,2.11c0.34,0.38,0.87,0.57,1.58,0.57l0.65,0l0,0.5l-6.4,0l0,-0.5l0.63,0c0.78,0,1.34,-0.23,1.66,-0.7c0.19,-0.28,0.29,-0.95,0.29,-1.98l0,-12.8c-0.53,-0.62,-0.93,-1.03,-1.21,-1.23c-0.27,-0.19,-0.68,-0.38,-1.21,-0.55c-0.26,-0.08,-0.66,-0.12,-1.19,-0.12l0,-0.5m27.39,5.6c1.88,0,3.39,0.71,4.53,2.14c0.96,1.22,1.45,2.62,1.45,4.2c0,1.11,-0.26,2.23,-0.8,3.38c-0.53,1.14,-1.26,1.99,-2.2,2.57c-0.93,0.57,-1.97,0.86,-3.12,0.86c-1.87,0,-3.36,-0.74,-4.46,-2.23c-0.93,-1.25,-1.39,-2.66,-1.39,-4.23c0,-1.14,0.28,-2.27,0.84,-3.4c0.56,-1.12,1.3,-1.95,2.23,-2.49c0.92,-0.53,1.9,-0.8,2.93,-0.8m-0.42,0.88c-0.47,0,-0.96,0.14,-1.44,0.42c-0.48,0.28,-0.87,0.78,-1.17,1.5c-0.29,0.71,-0.44,1.63,-0.44,2.75c0,1.8,0.35,3.37,1.07,4.68c0.71,1.31,1.66,1.96,2.84,1.96c0.87,0,1.6,-0.36,2.17,-1.08c0.57,-0.72,0.85,-1.96,0.85,-3.73c0,-2.2,-0.47,-3.94,-1.42,-5.21c-0.64,-0.86,-1.46,-1.3,-2.45,-1.3m11.4,-7.38c0.38,0,0.7,0.13,0.97,0.4c0.26,0.26,0.4,0.59,0.4,0.97c0,0.38,-0.13,0.7,-0.4,0.97c-0.26,0.27,-0.59,0.4,-0.97,0.4c-0.38,0,-0.7,-0.13,-0.97,-0.4c-0.27,-0.27,-0.4,-0.59,-0.4,-0.97c0,-0.38,0.13,-0.7,0.4,-0.97c0.26,-0.26,0.59,-0.4,0.98,-0.4m1.12,6.5l0,9.99c0,0.77,0.05,1.29,0.16,1.55c0.11,0.25,0.28,0.45,0.5,0.57c0.22,0.12,0.62,0.19,1.21,0.19l0,0.48l-6.04,0l0,-0.48c0.6,0,1.01,-0.05,1.22,-0.17c0.2,-0.11,0.37,-0.31,0.49,-0.58c0.12,-0.27,0.18,-0.79,0.18,-1.56l0,-4.79c0,-1.34,-0.04,-2.22,-0.12,-2.61c-0.06,-0.28,-0.16,-0.49,-0.29,-0.6c-0.13,-0.11,-0.32,-0.16,-0.55,-0.16c-0.25,0,-0.56,0.06,-0.92,0.2l-0.19,-0.48l3.74,-1.52l0.59,0m11.46,0l0,4.23l-0.44,0c-0.34,-1.33,-0.78,-2.23,-1.32,-2.71c-0.53,-0.47,-1.22,-0.71,-2.05,-0.71c-0.63,0,-1.14,0.16,-1.53,0.5c-0.38,0.33,-0.58,0.7,-0.58,1.11c0,0.5,0.14,0.94,0.43,1.3c0.28,0.37,0.85,0.76,1.71,1.18l1.98,0.96c1.83,0.89,2.75,2.07,2.75,3.54c0,1.13,-0.42,2.04,-1.28,2.73c-0.85,0.69,-1.81,1.03,-2.87,1.03c-0.76,0,-1.62,-0.13,-2.6,-0.4c-0.29,-0.09,-0.54,-0.13,-0.73,-0.13c-0.2,0,-0.37,0.11,-0.48,0.35l-0.44,0l0,-4.43l0.44,0c0.25,1.26,0.73,2.22,1.45,2.86c0.71,0.64,1.51,0.96,2.4,0.96c0.62,0,1.13,-0.18,1.52,-0.54c0.39,-0.36,0.59,-0.8,0.59,-1.32c0,-0.62,-0.21,-1.14,-0.65,-1.57c-0.43,-0.42,-1.31,-0.96,-2.62,-1.61c-1.31,-0.65,-2.17,-1.23,-2.57,-1.76c-0.4,-0.51,-0.61,-1.16,-0.61,-1.95c0,-1.02,0.35,-1.87,1.05,-2.56c0.7,-0.68,1.6,-1.03,2.72,-1.03c0.48,0,1.08,0.1,1.77,0.31c0.46,0.13,0.76,0.2,0.92,0.2c0.14,0,0.25,-0.03,0.33,-0.09c0.08,-0.06,0.17,-0.2,0.28,-0.42l0.44,0m4.87,5.04c0,1.84,0.43,3.29,1.34,4.34c0.9,1.04,1.96,1.57,3.18,1.57c0.81,0,1.52,-0.22,2.12,-0.67c0.6,-0.44,1.1,-1.21,1.51,-2.3l0.42,0.27c-0.19,1.23,-0.74,2.36,-1.65,3.38c-0.91,1.01,-2.05,1.52,-3.43,1.52c-1.49,0,-2.77,-0.58,-3.83,-1.74c-1.06,-1.16,-1.59,-2.72,-1.59,-4.68c0,-2.12,0.54,-3.78,1.63,-4.97c1.09,-1.19,2.45,-1.78,4.1,-1.78c1.39,0,2.53,0.45,3.43,1.37c0.89,0.91,1.34,2.14,1.34,3.68l-8.59,0m0,-0.78l5.75,0c-0.04,-0.79,-0.14,-1.35,-0.28,-1.68c-0.22,-0.5,-0.56,-0.9,-1.01,-1.19c-0.44,-0.28,-0.91,-0.43,-1.4,-0.43c-0.75,0,-1.42,0.29,-2.01,0.87c-0.59,0.58,-0.93,1.39,-1.03,2.43" fill="#000000" stroke="none" fill-opacity="1"/>
</g>
<g clip-path="url(#c2)">
<g fill="none" stroke="#e41a1c" stroke-width="2.08">
<polyline fill="none" points="66.92,262.08 69.2,266.6 71.47,271.02 73.75,275.34 76.02,279.58 78.29,283.72 80.57,287.78 82.84,291.74 85.11,295.6 87.39,299.41 89.66,303.12 91.93,306.74 94.21,310.27 96.48,313.75 98.75,317.15 101.03,320.47 103.3,323.69 105.58,326.88 107.85,329.97 110.12,333.01 112.4,335.98 114.67,338.87 116.94,341.7 119.22,344.49 121.49,347.2 123.76,349.85 126.04,352.44 128.31,354.97 130.59,357.44 132.86,359.87 135.13,362.25 137.41,364.55 139.68,366.82 141.95,369.05 144.23,371.19 146.5,373.31 148.77,375.38 151.05,377.4 153.32,379.4 155.6,381.34 157.87,383.23 160.14,385.07 162.42,386.88 164.69,388.65 166.96,390.36 169.24,392.04 171.51,393.71 173.78,395.32 176.06,396.9 178.33,398.43 180.61,399.94 182.88,401.42 185.15,402.85 187.43,404.26 189.7,405.64 191.97,406.99 194.25,408.3 196.52,409.6 198.79,410.85 201.07,412.08 203.34,413.28 205.62,414.46 207.89,415.61 210.16,416.73 212.44,417.83 214.71,418.9 216.98,419.95 219.26,420.97 221.53,421.97 223.8,422.94 226.08,423.91 228.35,424.83 230.62,425.75 232.9,426.65 235.17,427.51 237.45,428.38 239.72,429.2 241.99,430.02 244.27,430.81 246.54,431.6 248.81,432.34 251.09,433.11 253.36,433.83 255.63,434.54 257.91,435.23 260.18,435.92 262.46,436.59 264.73,437.22 267,437.86 269.28,438.48 271.55,439.09 273.82,439.68 276.1,440.27 278.37,440.83 280.64,441.36 282.92,441.9 285.19,442.44 287.47,442.95 289.74,443.46 292.01,443.95 294.29,444.43 296.56,444.89 298.83,445.35 301.11,445.81 303.38,446.25 305.65,446.68 307.93,447.11 310.2,447.52 312.48,447.91 314.75,448.32 317.02,448.7 319.3,449.06 321.57,449.41 323.84,449.77 326.12,450.13 328.39,450.49 330.66,450.82 332.94,451.13 335.21,451.46 337.49,451.77 339.76,452.07 342.03,452.38 344.31,452.66 346.58,452.94 348.85,453.22 351.13,453.48 353.4,453.76 355.67,454.01 357.95,454.27 360.22,454.52 362.5,454.75 364.77,454.98 367.04,455.21 369.32,455.44 371.59,455.67 373.86,455.88 376.14,456.08 378.41,456.31 380.68,456.49 382.96,456.7 385.23,456.9 387.5,457.08 389.78,457.26 392.05,457.44 394.33,457.62 396.6,457.8 398.87,457.95 401.15,458.13 403.42,458.28 405.69,458.43 407.97,458.59 410.24,458.74 412.51,458.89 414.79,459.02 417.06,459.18 419.34,459.3 421.61,459.43 423.88,459.56 426.16,459.69 428.43,459.81 430.7,459.94 432.98,460.04 435.25,460.17 437.52,460.27 439.8,460.4 442.07,460.5 444.35,460.61 446.62,460.71 448.89,460.81 451.17,460.91 453.44,461.02 455.71,461.09 457.99,461.19 460.26,461.27 462.53,461.37 464.81,461.45 467.08,461.53 469.36,461.63 471.63,461.71 473.9,461.78 476.18,461.86 478.45,461.94 480.72,461.99 483,462.06 485.27,462.14 487.54,462.22 489.82,462.27 492.09,462.34 494.37,462.4 496.64,462.45 498.91,462.52 501.19,462.57 503.46,462.63 505.73,462.68 508.01,462.75 510.28,462.8 512.55,462.86 514.83,462.91 517.1,462.96 519.37,462.98 521.65,463.03 523.92,463.09 526.2,463.14 528.47,463.16 530.74,463.21 533.02,463.26 535.29,463.29 537.56,463.34 539.84,463.37 542.11,463.42 544.38,463.44 546.66,463.47 548.93,463.52 551.21,463.55 553.48,463.57 555.75,463.6 558.03,463.65 560.3,463.67 562.57,463.7 564.85,463.72 567.12,463.75 569.39,463.78 571.67,463.8 573.94,463.83 576.22,463.85 578.49,463.88 580.76,463.88 583.04,463.9 585.31,463.93 587.58,463.95 589.86,463.95 592.13,463.98 594.4,464.01 596.68,464.01 598.95,464.03 601.23,464.03 603.5,464.06 605.77,464.06 608.05,464.08 610.32,464.08 612.59,464.08 614.87,464.11 617.14,464.11 619.41,464.11 621.69,464.11 623.96,464.11 626.24,464.11 628.51,464.11 630.78,464.11 633.06,464.11 635.33,464.11 637.6,464.11 639.88,464.11 642.15,464.11 644.42,464.11 646.7,464.08 648.97,464.08 651.25,464.06 653.52,464.06 655.79,464.03 658.07,464.03 660.34,464.01 662.61,463.98 664.89,463.98 667.16,463.95 669.43,463.93 671.71,463.9 673.98,463.88 676.25,463.85 678.53,463.8 680.8,463.78 683.08,463.75 685.35,463.7 687.62,463.67 689.9,463.62 692.17,463.57 694.44,463.52 696.72,463.47 698.99,463.42 701.26,463.37 703.54,463.29 705.81,463.24 708.09,463.16 710.36,463.09 712.63,463.03 714.91,462.93 717.18,462.86 719.45,462.78 721.73,462.68 724,462.57 726.27,462.47 728.55,462.37 730.82,462.27 733.1,462.14 735.37,462.01 737.64,461.88 739.92,461.73 742.19,461.6 744.46,461.45 746.74,461.3 749.01,461.12 751.28,460.94 753.56,460.76 755.83,460.56 758.11,460.35 760.38,460.15 762.65,459.92 764.93,459.69 767.2,459.46 769.47,459.18 771.75,458.92 774.02,458.64 776.29,458.33 778.57,458.03 780.84,457.69 783.12,457.36 785.39,457 787.66,456.62 789.94,456.24 792.21,455.83 794.48,455.39 796.76,454.93 799.03,454.47 801.3,453.99 803.58,453.45 805.85,452.91 808.12,452.35 810.4,451.74 812.67,451.13 814.95,450.46 817.22,449.77 819.49,449.06 821.77,448.32 824.04,447.52 826.31,446.71 828.59,445.84 830.86,444.92 833.13,443.97 835.41,442.97 837.68,441.93 839.96,440.85 842.23,439.7 844.5,438.5 846.78,437.25 849.05,435.95 851.32,434.57 853.6,433.11 855.87,431.6 858.14,430.02 860.42,428.38 862.69,426.65 864.97,424.81 867.24,422.91 869.51,420.92 871.79,418.83 874.06,416.63 876.33,414.33 878.61,411.93 880.88,409.42 883.15,406.76 885.43,404 887.7,401.12 889.98,398.08 892.25,394.91 894.52,391.56 896.8,388.06 899.07,384.4 901.34,380.57 903.62,376.56 905.89,372.34 908.16,367.92 910.44,363.3 912.71,358.44 914.99,353.36 917.26,348.04 919.53,342.44 921.81,336.59 924.08,330.46 926.35,324.02 928.63,317.27 930.9,310.19 933.17,302.78 935.45,294.99 937.72,286.84 940,278.28 942.27,269.31 944.54,259.9 946.82,250.04 949.09,239.69 951.36,228.83 953.64,217.43 955.91,205.47 958.18,192.93 960.46,179.74 962.73,165.94 965,151.43 967.28,136.22 969.55,120.25 971.83,103.46 974.1,85.85 976.37,67.38"/>
</g>
</g>
<g clip-path="url(#c0)">
<g fill="none" stroke-linecap="butt" stroke-width="0.69">
<path d="M66.92,523.62l0,-515.74"/>
<path d="M66.92,518.79l4.16,0M66.92,506.02l4.16,0M66.92,493.24l4.16,0M66.92,480.46l4.16,0M66.92,467.69l4.16,0M66.92,454.91l4.16,0M66.92,442.13l4.16,0M66.92,429.35l4.16,0M66.92,416.58l4.16,0M66.92,403.8l4.16,0M66.92,391.02l4.16,0M66.92,378.25l4.16,0M66.92,365.47l4.16,0M66.92,352.69l4.16,0M66.92,339.91l4.16,0M66.92,327.14l4.16,0M66.92,314.36l4.16,0M66.92,301.58l4.16,0M66.92,288.81l4.16,0M66.92,276.03l4.16,0M66.92,263.25l4.16,0M66.92,250.47l4.16,0M66.92,237.7l4.16,0M66.92,224.92l4.16,0M66.92,212.14l4.16,0M66.92,199.37l4.16,0M66.92,186.59l4.16,0M66.92,173.81l4.16,0M66.92,161.03l4.16,0M66.92,148.26l4.16,0M66.92,135.48l4.16,0M66.92,122.7l4.16,0M66.92,109.93l4.16,0M66.92,97.15l4.16,0M66.92,84.37l4.16,0M66.92,71.59l4.16,0M66.92,58.82l4.16,0M66.92,46.04l4.16,0M66.92,33.26l4.16,0M66.92,20.49l4.16,0"/>
<path d="M66.92,518.79l8.33,0M66.92,454.91l8.33,0M66.92,391.02l8.33,0M66.92,327.14l8.33,0M66.92,263.25l8.33,0M66.92,199.37l8.33,0M66.92,135.48l8.33,0M66.92,71.59l8.33,0"/>
</g>
<g fill="none" stroke-width="0.1">
<g transform="matrix(0 -1 1 0 24.77 315.02)">
<path d="m5.85,-1.28l0,4.72c0,0.65,0.05,1.09,0.15,1.33c0.1,0.23,0.26,0.4,0.48,0.51c0.21,0.1,0.64,0.16,1.27,0.16l0,0.5l-7.23,0l0,-0.5c0.56,-0.01,0.97,-0.17,1.24,-0.47c0.18,-0.2,0.27,-0.74,0.27,-1.61l0,-13.39c0,-0.89,-0.1,-1.46,-0.31,-1.71c-0.2,-0.24,-0.61,-0.39,-1.2,-0.42l0,-0.5l5.32,0l0,1.66c0.44,-0.65,0.89,-1.12,1.35,-1.41c0.66,-0.42,1.38,-0.63,2.15,-0.63c0.93,0,1.78,0.29,2.54,0.88c0.76,0.58,1.34,1.4,1.74,2.43c0.39,1.03,0.59,2.15,0.59,3.34c0,1.28,-0.2,2.45,-0.61,3.52c-0.41,1.06,-1,1.87,-1.79,2.42c-0.78,0.55,-1.65,0.83,-2.61,0.83c-0.69,0,-1.34,-0.15,-1.95,-0.46c-0.45,-0.23,-0.92,-0.63,-1.42,-1.2m0,-1.37c0.77,1.1,1.61,1.65,2.49,1.65c0.48,0,0.89,-0.25,1.2,-0.77c0.47,-0.76,0.7,-2.2,0.7,-4.34c0,-2.19,-0.25,-3.68,-0.77,-4.49c-0.34,-0.53,-0.8,-0.8,-1.38,-0.8c-0.91,0,-1.66,0.66,-2.25,1.98l0,6.77m21.17,-2.57l-6.5,0l-0.77,1.79c-0.25,0.59,-0.38,1.09,-0.38,1.47c0,0.51,0.2,0.89,0.62,1.14c0.24,0.14,0.84,0.25,1.8,0.32l0,0.5l-6.12,0l0,-0.5c0.66,-0.09,1.2,-0.37,1.62,-0.82c0.42,-0.44,0.95,-1.37,1.57,-2.77l6.58,-14.68l0.25,0l6.63,15.09c0.63,1.42,1.15,2.33,1.56,2.7c0.3,0.28,0.74,0.44,1.3,0.48l0,0.5l-8.9,0l0,-0.5l0.36,0c0.71,0,1.21,-0.09,1.5,-0.29c0.19,-0.14,0.29,-0.35,0.29,-0.62c0,-0.16,-0.02,-0.33,-0.08,-0.5c-0.01,-0.08,-0.15,-0.42,-0.4,-1.01l-0.97,-2.29m-0.46,-1l-2.74,-6.33l-2.82,6.33l5.56,0m16.77,-12.58l-6.04,19.24l-1.73,0l6.06,-19.24l1.71,0m7.51,9.97l0,5.7c0,0.94,0.05,1.52,0.15,1.76c0.1,0.23,0.3,0.44,0.61,0.61c0.3,0.17,0.71,0.26,1.22,0.26l0.61,0l0,0.5l-9.62,0l0,-0.5l0.61,0c0.53,0,0.96,-0.09,1.28,-0.28c0.23,-0.12,0.41,-0.34,0.54,-0.65c0.09,-0.21,0.14,-0.78,0.14,-1.71l0,-12.1c0,-0.94,-0.04,-1.52,-0.14,-1.76c-0.09,-0.23,-0.3,-0.44,-0.6,-0.61c-0.3,-0.17,-0.71,-0.26,-1.22,-0.26l-0.61,0l0,-0.5l9.62,0l0,0.5l-0.61,0c-0.53,0,-0.96,0.09,-1.28,0.28c-0.23,0.12,-0.42,0.34,-0.55,0.65c-0.09,0.21,-0.14,0.78,-0.14,1.71l0,5.21l6.5,0l0,-5.21c0,-0.94,-0.04,-1.52,-0.14,-1.76c-0.09,-0.23,-0.3,-0.44,-0.61,-0.61c-0.3,-0.17,-0.71,-0.26,-1.23,-0.26l-0.59,0l0,-0.5l9.61,0l0,0.5l-0.59,0c-0.54,0,-0.97,0.09,-1.28,0.28c-0.23,0.12,-0.42,0.34,-0.55,0.65c-0.09,0.21,-0.14,0.78,-0.14,1.71l0,12.1c0,0.94,0.04,1.52,0.14,1.76c0.09,0.23,0.3,0.44,0.61,0.61c0.3,0.17,0.71,0.26,1.23,0.26l0.59,0l0,0.5l-9.61,0l0,-0.5l0.59,0c0.54,0,0.97,-0.09,1.28,-0.28c0.23,-0.12,0.42,-0.34,0.55,-0.65c0.09,-0.21,0.14,-0.78,0.14,-1.71l0,-5.7l-6.5,0m25.35,8.85l-11.04,0l0,-0.29l6.97,-11.56l-2.03,0c-0.87,0,-1.5,0.07,-1.88,0.23c-0.38,0.15,-0.68,0.41,-0.92,0.76c-0.23,0.34,-0.47,0.97,-0.73,1.86l-0.47,0l0,-3.69l10.68,0l0,0.36l-6.92,11.45l0.86,0c1.73,0,2.99,-0.24,3.76,-0.74c0.76,-0.49,1.34,-1.4,1.73,-2.72l0.38,0l-0.38,4.34" fill="#000000" stroke="none" fill-opacity="1"/>
<path d="m82.65,-23.59l0,9.04c0,0.67,0.02,1.11,0.08,1.3c0.05,0.18,0.18,0.34,0.37,0.46c0.19,0.11,0.49,0.17,0.91,0.17l0.25,0l0,0.3l-5.82,0l0,-0.3l0.29,0c0.47,0,0.81,-0.05,1.01,-0.16c0.2,-0.1,0.33,-0.25,0.4,-0.44c0.07,-0.19,0.1,-0.63,0.1,-1.32l0,-5.73c0,-0.51,-0.02,-0.83,-0.07,-0.95c-0.04,-0.12,-0.14,-0.23,-0.27,-0.32c-0.13,-0.08,-0.28,-0.13,-0.46,-0.13c-0.27,0,-0.61,0.08,-1.01,0.26l-0.14,-0.29l4.06,-1.85l0.26,0m7.59,-0.02l-3.62,11.56l-1.04,0l3.64,-11.56l1.02,0m6.86,11.31l-6.5,0l0,-0.17c1.99,-2.37,3.2,-3.97,3.63,-4.79c0.42,-0.82,0.64,-1.62,0.64,-2.4c0,-0.57,-0.17,-1.04,-0.53,-1.42c-0.35,-0.37,-0.78,-0.56,-1.29,-0.56c-0.83,0,-1.48,0.41,-1.94,1.25l-0.3,-0.1c0.29,-1.04,0.73,-1.81,1.33,-2.31c0.59,-0.5,1.28,-0.75,2.07,-0.75c0.55,0,1.07,0.13,1.53,0.39c0.46,0.26,0.82,0.61,1.08,1.07c0.26,0.45,0.39,0.87,0.39,1.27c0,0.72,-0.2,1.45,-0.6,2.2c-0.54,1,-1.74,2.4,-3.59,4.2l2.38,0c0.58,0,0.96,-0.02,1.14,-0.07c0.17,-0.04,0.32,-0.13,0.43,-0.24c0.11,-0.11,0.26,-0.36,0.44,-0.73l0.29,0l-0.61,3.19" fill="#000000" stroke="none" fill-opacity="1"/>
</g>
<path d="m0.44,511.75l4.47,-2.18l0.44,0l0,15.54c0,1.03,0.04,1.67,0.12,1.92c0.08,0.25,0.26,0.44,0.53,0.58c0.27,0.13,0.82,0.21,1.65,0.23l0,0.5l-6.92,0l0,-0.5c0.86,-0.01,1.42,-0.09,1.68,-0.22c0.25,-0.13,0.42,-0.3,0.52,-0.52c0.09,-0.22,0.14,-0.88,0.14,-1.98l0,-9.93c0,-1.33,-0.04,-2.19,-0.13,-2.57c-0.06,-0.28,-0.17,-0.5,-0.34,-0.63c-0.16,-0.13,-0.36,-0.2,-0.6,-0.2c-0.33,0,-0.8,0.14,-1.39,0.42l-0.2,-0.42m13.43,-1.8l9.86,0l0,0.51l-6.13,18.27l-1.52,0l5.49,-16.57l-5.06,0c-1.02,0,-1.75,0.12,-2.18,0.36c-0.76,0.41,-1.37,1.05,-1.83,1.92l-0.39,-0.14l1.76,-4.35m14.57,15.77c0.42,0,0.78,0.14,1.07,0.44c0.28,0.29,0.43,0.64,0.43,1.06c0,0.41,-0.14,0.77,-0.44,1.06c-0.29,0.29,-0.64,0.44,-1.06,0.44c-0.41,0,-0.77,-0.14,-1.06,-0.44c-0.29,-0.29,-0.44,-0.64,-0.44,-1.06c0,-0.42,0.14,-0.78,0.44,-1.07c0.29,-0.28,0.64,-0.43,1.06,-0.43m16.22,-0.9l-1.28,3.54l-10.85,0l0,-0.5c3.19,-2.91,5.44,-5.29,6.74,-7.14c1.3,-1.84,1.95,-3.53,1.95,-5.06c0,-1.16,-0.35,-2.12,-1.07,-2.87c-0.71,-0.75,-1.57,-1.12,-2.56,-1.12c-0.9,0,-1.71,0.26,-2.43,0.79c-0.71,0.52,-1.25,1.3,-1.59,2.32l-0.5,0c0.22,-1.67,0.8,-2.95,1.74,-3.85c0.93,-0.89,2.1,-1.34,3.5,-1.34c1.49,0,2.73,0.47,3.73,1.43c1,0.95,1.5,2.09,1.5,3.39c0,0.93,-0.21,1.86,-0.65,2.79c-0.66,1.46,-1.75,3.01,-3.25,4.65c-2.25,2.46,-3.66,3.94,-4.22,4.45l4.8,0c0.97,0,1.66,-0.03,2.05,-0.1c0.39,-0.07,0.74,-0.21,1.06,-0.44c0.31,-0.22,0.59,-0.53,0.82,-0.94l0.5,0m13.22,-14.86l-1.05,2.3l-5.53,0l-1.2,2.47c2.39,0.35,4.29,1.24,5.7,2.67c1.2,1.23,1.8,2.67,1.8,4.34c0,0.96,-0.19,1.86,-0.59,2.68c-0.39,0.82,-0.88,1.52,-1.48,2.1c-0.59,0.57,-1.26,1.04,-1.99,1.39c-1.04,0.49,-2.1,0.74,-3.2,0.74c-1.1,0,-1.9,-0.18,-2.4,-0.56c-0.5,-0.37,-0.75,-0.78,-0.75,-1.24c0,-0.25,0.1,-0.47,0.31,-0.67c0.2,-0.19,0.47,-0.29,0.78,-0.29c0.23,0,0.44,0.03,0.61,0.1c0.17,0.07,0.47,0.25,0.9,0.55c0.67,0.47,1.36,0.7,2.06,0.7c1.05,0,1.98,-0.4,2.78,-1.2c0.8,-0.8,1.2,-1.77,1.2,-2.92c0,-1.11,-0.35,-2.15,-1.07,-3.11c-0.71,-0.96,-1.7,-1.7,-2.95,-2.23c-0.98,-0.4,-2.33,-0.64,-4.03,-0.7l3.52,-7.15l6.59,0" fill="#000000" stroke="none" fill-opacity="1"/>
<path d="m14.34,447.86l4.47,-2.18l0.44,0l0,15.54c0,1.03,0.04,1.67,0.12,1.92c0.08,0.25,0.26,0.44,0.53,0.58c0.27,0.13,0.82,0.21,1.65,0.23l0,0.5l-6.92,0l0,-0.5c0.86,-0.01,1.42,-0.09,1.68,-0.22c0.25,-0.13,0.42,-0.3,0.52,-0.52c0.09,-0.22,0.14,-0.88,0.14,-1.98l0,-9.93c0,-1.33,-0.04,-2.19,-0.13,-2.57c-0.06,-0.28,-0.17,-0.5,-0.34,-0.63c-0.16,-0.13,-0.36,-0.2,-0.6,-0.2c-0.33,0,-0.8,0.14,-1.39,0.42l-0.2,-0.42m13.43,-1.8l9.86,0l0,0.51l-6.13,18.27l-1.52,0l5.49,-16.57l-5.06,0c-1.02,0,-1.75,0.12,-2.18,0.36c-0.76,0.41,-1.37,1.05,-1.83,1.92l-0.39,-0.14l1.76,-4.35m14.57,15.77c0.42,0,0.78,0.14,1.07,0.44c0.28,0.29,0.43,0.64,0.43,1.06c0,0.41,-0.14,0.77,-0.44,1.06c-0.29,0.29,-0.64,0.44,-1.06,0.44c-0.41,0,-0.77,-0.14,-1.06,-0.44c-0.29,-0.29,-0.44,-0.64,-0.44,-1.06c0,-0.42,0.14,-0.78,0.44,-1.07c0.29,-0.28,0.64,-0.43,1.06,-0.43m15.54,-15.77l-1.05,2.3l-5.53,0l-1.2,2.47c2.39,0.35,4.29,1.24,5.7,2.67c1.2,1.23,1.8,2.67,1.8,4.34c0,0.96,-0.19,1.86,-0.59,2.68c-0.39,0.82,-0.88,1.52,-1.48,2.1c-0.59,0.57,-1.26,1.04,-1.99,1.39c-1.04,0.49,-2.1,0.74,-3.2,0.74c-1.1,0,-1.9,-0.18,-2.4,-0.56c-0.5,-0.37,-0.75,-0.78,-0.75,-1.24c0,-0.25,0.1,-0.47,0.31,-0.67c0.2,-0.19,0.47,-0.29,0.78,-0.29c0.23,0,0.44,0.03,0.61,0.1c0.17,0.07,0.47,0.25,0.9,0.55c0.67,0.47,1.36,0.7,2.06,0.7c1.05,0,1.98,-0.4,2.78,-1.2c0.8,-0.8,1.2,-1.77,1.2,-2.92c0,-1.11,-0.35,-2.15,-1.07,-3.11c-0.71,-0.96,-1.7,-1.7,-2.95,-2.23c-0.98,-0.4,-2.33,-0.64,-4.03,-0.7l3.52,-7.15l6.59,0" fill="#000000" stroke="none" fill-opacity="1"/>
<path d="m0.44,383.98l4.47,-2.18l0.44,0l0,15.54c0,1.03,0.04,1.67,0.12,1.92c0.08,0.25,0.26,0.44,0.53,0.58c0.27,0.13,0.82,0.21,1.65,0.23l0,0.5l-6.92,0l0,-0.5c0.86,-0.01,1.42,-0.09,1.68,-0.22c0.25,-0.13,0.42,-0.3,0.52,-0.52c0.09,-0.22,0.14,-0.88,0.14,-1.98l0,-9.93c0,-1.33,-0.04,-2.19,-0.13,-2.57c-0.06,-0.28,-0.17,-0.5,-0.34,-0.63c-0.16,-0.13,-0.36,-0.2,-0.6,-0.2c-0.33,0,-0.8,0.14,-1.39,0.42l-0.2,-0.42m13.43,-1.8l9.86,0l0,0.51l-6.13,18.27l-1.52,0l5.49,-16.57l-5.06,0c-1.02,0,-1.75,0.12,-2.18,0.36c-0.76,0.41,-1.37,1.05,-1.83,1.92l-0.39,-0.14l1.76,-4.35m14.57,15.77c0.42,0,0.78,0.14,1.07,0.44c0.28,0.29,0.43,0.64,0.43,1.06c0,0.41,-0.14,0.77,-0.44,1.06c-0.29,0.29,-0.64,0.44,-1.06,0.44c-0.41,0,-0.77,-0.14,-1.06,-0.44c-0.29,-0.29,-0.44,-0.64,-0.44,-1.06c0,-0.42,0.14,-0.78,0.44,-1.07c0.29,-0.28,0.64,-0.43,1.06,-0.43m6.27,-15.77l9.86,0l0,0.51l-6.13,18.27l-1.52,0l5.49,-16.57l-5.06,0c-1.02,0,-1.75,0.12,-2.18,0.36c-0.76,0.41,-1.37,1.05,-1.83,1.92l-0.39,-0.14l1.76,-4.35m23.17,0l-1.05,2.3l-5.53,0l-1.2,2.47c2.39,0.35,4.29,1.24,5.7,2.67c1.2,1.23,1.8,2.67,1.8,4.34c0,0.96,-0.19,1.86,-0.59,2.68c-0.39,0.82,-0.88,1.52,-1.48,2.1c-0.59,0.57,-1.26,1.04,-1.99,1.39c-1.04,0.49,-2.1,0.74,-3.2,0.74c-1.1,0,-1.9,-0.18,-2.4,-0.56c-0.5,-0.37,-0.75,-0.78,-0.75,-1.24c0,-0.25,0.1,-0.47,0.31,-0.67c0.2,-0.19,0.47,-0.29,0.78,-0.29c0.23,0,0.44,0.03,0.61,0.1c0.17,0.07,0.47,0.25,0.9,0.55c0.67,0.47,1.36,0.7,2.06,0.7c1.05,0,1.98,-0.4,2.78,-1.2c0.8,-0.8,1.2,-1.77,1.2,-2.92c0,-1.11,-0.35,-2.15,-1.07,-3.11c-0.71,-0.96,-1.7,-1.7,-2.95,-2.23c-0.98,-0.4,-2.33,-0.64,-4.03,-0.7l3.52,-7.15l6.59,0" fill="#000000" stroke="none" fill-opacity="1"/>
<path d="m35.19,320.09l4.47,-2.18l0.44,0l0,15.54c0,1.03,0.04,1.67,0.12,1.92c0.08,0.25,0.26,0.44,0.53,0.58c0.27,0.13,0.82,0.21,1.65,0.23l0,0.5l-6.92,0l0,-0.5c0.86,-0.01,1.42,-0.09,1.68,-0.22c0.25,-0.13,0.42,-0.3,0.52,-0.52c0.09,-0.22,0.14,-0.88,0.14,-1.98l0,-9.93c0,-1.33,-0.04,-2.19,-0.13,-2.57c-0.06,-0.28,-0.17,-0.5,-0.34,-0.63c-0.16,-0.13,-0.36,-0.2,-0.6,-0.2c-0.33,0,-0.8,0.14,-1.39,0.42l-0.2,-0.42m15.97,7.33c-1.45,-1.19,-2.39,-2.15,-2.81,-2.87c-0.42,-0.72,-0.63,-1.47,-0.63,-2.25c0,-1.19,0.46,-2.22,1.38,-3.08c0.92,-0.86,2.14,-1.29,3.67,-1.29c1.48,0,2.67,0.4,3.58,1.2c0.9,0.8,1.35,1.72,1.35,2.75c0,0.68,-0.24,1.38,-0.73,2.1c-0.48,0.71,-1.5,1.55,-3.05,2.52c1.59,1.23,2.64,2.19,3.16,2.9c0.68,0.92,1.03,1.89,1.03,2.91c0,1.29,-0.49,2.4,-1.47,3.31c-0.98,0.91,-2.28,1.37,-3.88,1.37c-1.74,0,-3.1,-0.54,-4.08,-1.64c-0.77,-0.87,-1.16,-1.83,-1.16,-2.87c0,-0.81,0.27,-1.62,0.82,-2.42c0.54,-0.8,1.49,-1.68,2.83,-2.65m2.13,-1.45c1.08,-0.97,1.77,-1.74,2.06,-2.31c0.28,-0.56,0.43,-1.2,0.43,-1.92c0,-0.95,-0.26,-1.69,-0.8,-2.23c-0.53,-0.53,-1.26,-0.8,-2.18,-0.8c-0.92,0,-1.67,0.26,-2.25,0.8c-0.57,0.53,-0.86,1.15,-0.86,1.87c0,0.47,0.11,0.94,0.35,1.41c0.23,0.47,0.58,0.91,1.02,1.34l2.22,1.84m-1.49,1.96c-0.75,0.63,-1.3,1.32,-1.66,2.07c-0.36,0.74,-0.54,1.55,-0.54,2.42c0,1.16,0.31,2.1,0.95,2.8c0.63,0.7,1.45,1.05,2.43,1.05c0.97,0,1.76,-0.27,2.34,-0.82c0.58,-0.55,0.88,-1.22,0.88,-2c0,-0.65,-0.17,-1.23,-0.51,-1.75c-0.64,-0.95,-1.94,-2.21,-3.89,-3.76" fill="#000000" stroke="none" fill-opacity="1"/>
<path d="m14.34,192.32l4.47,-2.18l0.44,0l0,15.54c0,1.03,0.04,1.67,0.12,1.92c0.08,0.25,0.26,0.44,0.53,0.58c0.27,0.13,0.82,0.21,1.65,0.23l0,0.5l-6.92,0l0,-0.5c0.86,-0.01,1.42,-0.09,1.68,-0.22c0.25,-0.13,0.42,-0.3,0.52,-0.52c0.09,-0.22,0.14,-0.88,0.14,-1.98l0,-9.93c0,-1.33,-0.04,-2.19,-0.13,-2.57c-0.06,-0.28,-0.17,-0.5,-0.34,-0.63c-0.16,-0.13,-0.36,-0.2,-0.6,-0.2c-0.33,0,-0.8,0.14,-1.39,0.42l-0.2,-0.42m15.97,7.33c-1.45,-1.19,-2.39,-2.15,-2.81,-2.87c-0.42,-0.72,-0.63,-1.47,-0.63,-2.25c0,-1.19,0.46,-2.22,1.38,-3.08c0.92,-0.86,2.14,-1.29,3.67,-1.29c1.48,0,2.67,0.4,3.58,1.2c0.9,0.8,1.35,1.72,1.35,2.75c0,0.68,-0.24,1.38,-0.73,2.1c-0.48,0.71,-1.5,1.55,-3.05,2.52c1.59,1.23,2.64,2.19,3.16,2.9c0.68,0.92,1.03,1.89,1.03,2.91c0,1.29,-0.49,2.4,-1.47,3.31c-0.98,0.91,-2.28,1.37,-3.88,1.37c-1.74,0,-3.1,-0.54,-4.08,-1.64c-0.77,-0.87,-1.16,-1.83,-1.16,-2.87c0,-0.81,0.27,-1.62,0.82,-2.42c0.54,-0.8,1.49,-1.68,2.83,-2.65m2.13,-1.45c1.08,-0.97,1.77,-1.74,2.06,-2.31c0.28,-0.56,0.43,-1.2,0.43,-1.92c0,-0.95,-0.26,-1.69,-0.8,-2.23c-0.53,-0.53,-1.26,-0.8,-2.18,-0.8c-0.92,0,-1.67,0.26,-2.25,0.8c-0.57,0.53,-0.86,1.15,-0.86,1.87c0,0.47,0.11,0.94,0.35,1.41c0.23,0.47,0.58,0.91,1.02,1.34l2.22,1.84m-1.49,1.96c-0.75,0.63,-1.3,1.32,-1.66,2.07c-0.36,0.74,-0.54,1.55,-0.54,2.42c0,1.16,0.31,2.1,0.95,2.8c0.63,0.7,1.45,1.05,2.43,1.05c0.97,0,1.76,-0.27,2.34,-0.82c0.58,-0.55,0.88,-1.22,0.88,-2c0,-0.65,-0.17,-1.23,-0.51,-1.75c-0.64,-0.95,-1.94,-2.21,-3.89,-3.76m11.4,6.12c0.42,0,0.78,0.14,1.07,0.44c0.28,0.29,0.43,0.64,0.43,1.06c0,0.41,-0.14,0.77,-0.44,1.06c-0.29,0.29,-0.64,0.44,-1.06,0.44c-0.41,0,-0.77,-0.14,-1.06,-0.44c-0.29,-0.29,-0.44,-0.64,-0.44,-1.06c0,-0.42,0.14,-0.78,0.44,-1.07c0.29,-0.28,0.64,-0.43,1.06,-0.43m15.54,-15.77l-1.05,2.3l-5.53,0l-1.2,2.47c2.39,0.35,4.29,1.24,5.7,2.67c1.2,1.23,1.8,2.67,1.8,4.34c0,0.96,-0.19,1.86,-0.59,2.68c-0.39,0.82,-0.88,1.52,-1.48,2.1c-0.59,0.57,-1.26,1.04,-1.99,1.39c-1.04,0.49,-2.1,0.74,-3.2,0.74c-1.1,0,-1.9,-0.18,-2.4,-0.56c-0.5,-0.37,-0.75,-0.78,-0.75,-1.24c0,-0.25,0.1,-0.47,0.31,-0.67c0.2,-0.19,0.47,-0.29,0.78,-0.29c0.23,0,0.44,0.03,0.61,0.1c0.17,0.07,0.47,0.25,0.9,0.55c0.67,0.47,1.36,0.7,2.06,0.7c1.05,0,1.98,-0.4,2.78,-1.2c0.8,-0.8,1.2,-1.77,1.2,-2.92c0,-1.11,-0.35,-2.15,-1.07,-3.11c-0.71,-0.96,-1.7,-1.7,-2.95,-2.23c-0.98,-0.4,-2.33,-0.64,-4.03,-0.7l3.52,-7.15l6.59,0" fill="#000000" stroke="none" fill-opacity="1"/>
<path d="m0.44,128.43l4.47,-2.18l0.44,0l0,15.54c0,1.03,0.04,1.67,0.12,1.92c0.08,0.25,0.26,0.44,0.53,0.58c0.27,0.13,0.82,0.21,1.65,0.23l0,0.5l-6.92,0l0,-0.5c0.86,-0.01,1.42,-0.09,1.68,-0.22c0.25,-0.13,0.42,-0.3,0.52,-0.52c0.09,-0.22,0.14,-0.88,0.14,-1.98l0,-9.93c0,-1.33,-0.04,-2.19,-0.13,-2.57c-0.06,-0.28,-0.17,-0.5,-0.34,-0.63c-0.16,-0.13,-0.36,-0.2,-0.6,-0.2c-0.33,0,-0.8,0.14,-1.39,0.42l-0.2,-0.42m15.97,7.33c-1.45,-1.19,-2.39,-2.15,-2.81,-2.87c-0.42,-0.72,-0.63,-1.47,-0.63,-2.25c0,-1.19,0.46,-2.22,1.38,-3.08c0.92,-0.86,2.14,-1.29,3.67,-1.29c1.48,0,2.67,0.4,3.58,1.2c0.9,0.8,1.35,1.72,1.35,2.75c0,0.68,-0.24,1.38,-0.73,2.1c-0.48,0.71,-1.5,1.55,-3.05,2.52c1.59,1.23,2.64,2.19,3.16,2.9c0.68,0.92,1.03,1.89,1.03,2.91c0,1.29,-0.49,2.4,-1.47,3.31c-0.98,0.91,-2.28,1.37,-3.88,1.37c-1.74,0,-3.1,-0.54,-4.08,-1.64c-0.77,-0.87,-1.16,-1.83,-1.16,-2.87c0,-0.81,0.27,-1.62,0.82,-2.42c0.54,-0.8,1.49,-1.68,2.83,-2.65m2.13,-1.45c1.08,-0.97,1.77,-1.74,2.06,-2.31c0.28,-0.56,0.43,-1.2,0.43,-1.92c0,-0.95,-0.26,-1.69,-0.8,-2.23c-0.53,-0.53,-1.26,-0.8,-2.18,-0.8c-0.92,0,-1.67,0.26,-2.25,0.8c-0.57,0.53,-0.86,1.15,-0.86,1.87c0,0.47,0.11,0.94,0.35,1.41c0.23,0.47,0.58,0.91,1.02,1.34l2.22,1.84m-1.49,1.96c-0.75,0.63,-1.3,1.32,-1.66,2.07c-0.36,0.74,-0.54,1.55,-0.54,2.42c0,1.16,0.31,2.1,0.95,2.8c0.63,0.7,1.45,1.05,2.43,1.05c0.97,0,1.76,-0.27,2.34,-0.82c0.58,-0.55,0.88,-1.22,0.88,-2c0,-0.65,-0.17,-1.23,-0.51,-1.75c-0.64,-0.95,-1.94,-2.21,-3.89,-3.76m11.4,6.12c0.42,0,0.78,0.14,1.07,0.44c0.28,0.29,0.43,0.64,0.43,1.06c0,0.41,-0.14,0.77,-0.44,1.06c-0.29,0.29,-0.64,0.44,-1.06,0.44c-0.41,0,-0.77,-0.14,-1.06,-0.44c-0.29,-0.29,-0.44,-0.64,-0.44,-1.06c0,-0.42,0.14,-0.78,0.44,-1.07c0.29,-0.28,0.64,-0.43,1.06,-0.43m6.27,-15.77l9.86,0l0,0.51l-6.13,18.27l-1.52,0l5.49,-16.57l-5.06,0c-1.02,0,-1.75,0.12,-2.18,0.36c-0.76,0.41,-1.37,1.05,-1.83,1.92l-0.39,-0.14l1.76,-4.35m23.17,0l-1.05,2.3l-5.53,0l-1.2,2.47c2.39,0.35,4.29,1.24,5.7,2.67c1.2,1.23,1.8,2.67,1.8,4.34c0,0.96,-0.19,1.86,-0.59,2.68c-0.39,0.82,-0.88,1.52,-1.48,2.1c-0.59,0.57,-1.26,1.04,-1.99,1.39c-1.04,0.49,-2.1,0.74,-3.2,0.74c-1.1,0,-1.9,-0.18,-2.4,-0.56c-0.5,-0.37,-0.75,-0.78,-0.75,-1.24c0,-0.25,0.1,-0.47,0.31,-0.67c0.2,-0.19,0.47,-0.29,0.78,-0.29c0.23,0,0.44,0.03,0.61,0.1c0.17,0.07,0.47,0.25,0.9,0.55c0.67,0.47,1.36,0.7,2.06,0.7c1.05,0,1.98,-0.4,2.78,-1.2c0.8,-0.8,1.2,-1.77,1.2,-2.92c0,-1.11,-0.35,-2.15,-1.07,-3.11c-0.71,-0.96,-1.7,-1.7,-2.95,-2.23c-0.98,-0.4,-2.33,-0.64,-4.03,-0.7l3.52,-7.15l6.59,0" fill="#000000" stroke="none" fill-opacity="1"/>
<path d="m35.19,64.55l4.47,-2.18l0.44,0l0,15.54c0,1.03,0.04,1.67,0.12,1.92c0.08,0.25,0.26,0.44,0.53,0.58c0.27,0.13,0.82,0.21,1.65,0.23l0,0.5l-6.92,0l0,-0.5c0.86,-0.01,1.42,-0.09,1.68,-0.22c0.25,-0.13,0.42,-0.3,0.52,-0.52c0.09,-0.22,0.14,-0.88,0.14,-1.98l0,-9.93c0,-1.33,-0.04,-2.19,-0.13,-2.57c-0.06,-0.28,-0.17,-0.5,-0.34,-0.63c-0.16,-0.13,-0.36,-0.2,-0.6,-0.2c-0.33,0,-0.8,0.14,-1.39,0.42l-0.2,-0.42m12.1,16.98l0,-0.5c1.17,-0.01,2.27,-0.29,3.28,-0.82c1.01,-0.52,1.99,-1.45,2.93,-2.77c0.94,-1.32,1.6,-2.77,1.97,-4.35c-1.42,0.91,-2.7,1.37,-3.85,1.37c-1.29,0,-2.4,-0.5,-3.32,-1.5c-0.92,-1,-1.38,-2.32,-1.38,-3.98c0,-1.61,0.46,-3.04,1.38,-4.3c1.11,-1.52,2.56,-2.29,4.35,-2.29c1.51,0,2.8,0.62,3.88,1.87c1.32,1.54,1.98,3.45,1.98,5.72c0,2.04,-0.5,3.95,-1.5,5.72c-1,1.76,-2.4,3.23,-4.19,4.4c-1.45,0.95,-3.04,1.43,-4.76,1.43l-0.77,0m8.41,-9.46c0.16,-1.17,0.24,-2.11,0.24,-2.82c0,-0.87,-0.14,-1.82,-0.44,-2.84c-0.29,-1.01,-0.72,-1.79,-1.26,-2.34c-0.54,-0.54,-1.16,-0.81,-1.86,-0.81c-0.8,0,-1.51,0.36,-2.11,1.08c-0.6,0.72,-0.9,1.8,-0.9,3.23c0,1.9,0.4,3.4,1.2,4.47c0.58,0.77,1.31,1.16,2.17,1.16c0.41,0,0.9,-0.09,1.47,-0.29c0.57,-0.19,1.07,-0.47,1.5,-0.84" fill="#000000" stroke="none" fill-opacity="1"/>
</g>
<g fill="none" stroke-linecap="butt" stroke-width="0.69">
<path d="M976.37,523.62l0,-515.74"/>
<path d="M976.37,518.79l-4.16,0M976.37,506.02l-4.16,0M976.37,493.24l-4.16,0M976.37,480.46l-4.16,0M976.37,467.69l-4.16,0M976.37,454.91l-4.16,0M976.37,442.13l-4.16,0M976.37,429.35l-4.16,0M976.37,416.58l-4.16,0M976.37,403.8l-4.16,0M976.37,391.02l-4.16,0M976.37,378.25l-4.16,0M976.37,365.47l-4.16,0M976.37,352.69l-4.16,0M976.37,339.91l-4.16,0M976.37,327.14l-4.16,0M976.37,314.36l-4.16,0M976.37,301.58l-4.16,0M976.37,288.81l-4.16,0M976.37,276.03l-4.16,0M976.37,263.25l-4.16,0M976.37,250.47l-4.16,0M976.37,237.7l-4.16,0M976.37,224.92l-4.16,0M976.37,212.14l-4.16,0M976.37,199.37l-4.16,0M976.37,186.59l-4.16,0M976.37,173.81l-4.16,0M976.37,161.03l-4.16,0M976.37,148.26l-4.16,0M976.37,135.48l-4.16,0M976.37,122.7l-4.16,0M976.37,109.93l-4.16,0M976.37,97.15l-4.16,0M976.37,84.37l-4.16,0M976.37,71.59l-4.16,0M976.37,58.82l-4.16,0M976.37,46.04l-4.16,0M976.37,33.26l-4.16,0M976.37,20.49l-4.16,0"/>
<path d="M976.37,518.79l-8.33,0M976.37,454.91l-8.33,0M976.37,391.02l-8.33,0M976.37,327.14l-8.33,0M976.37,263.25l-8.33,0M976.37,199.37l-8.33,0M976.37,135.48l-8.33,0M976.37,71.59l-8.33,0"/>
</g>
<g fill="none" stroke-linecap="butt" stroke-opacity="0.99" stroke-width="0.69">
<path d="M66.92,523.62l909.44,0"/>
</g>
<g fill="none" stroke-linecap="butt" stroke-width="0.69">
<path d="M135.37,523.62l0,-4.16M175.4,523.62l0,-4.16M203.81,523.62l0,-4.16M225.84,523.62l0,-4.16M243.85,523.62l0,-4.16M259.07,523.62l0,-4.16M272.25,523.62l0,-4.16M283.88,523.62l0,-4.16M362.73,523.62l0,-4.16M402.77,523.62l0,-4.16M431.17,523.62l0,-4.16M453.21,523.62l0,-4.16M471.21,523.62l0,-4.16M486.43,523.62l0,-4.16M499.61,523.62l0,-4.16M511.25,523.62l0,-4.16M590.09,523.62l0,-4.16M630.13,523.62l0,-4.16M658.53,523.62l0,-4.16M680.57,523.62l0,-4.16M698.57,523.62l0,-4.16M713.79,523.62l0,-4.16M726.98,523.62l0,-4.16M738.61,523.62l0,-4.16M817.45,523.62l0,-4.16M857.49,523.62l0,-4.16M885.9,523.62l0,-4.16M907.93,523.62l0,-4.16M925.93,523.62l0,-4.16M941.15,523.62l0,-4.16M954.34,523.62l0,-4.16M965.97,523.62l0,-4.16"/>
<path d="M66.92,523.62l0,-8.33M294.29,523.62l0,-8.33M521.65,523.62l0,-8.33M749.01,523.62l0,-8.33M976.37,523.62l0,-8.33"/>
</g>
<g fill="none" stroke-width="0.1">
<path d="m428.54,567.18l0,7.56l0.52,0c0.81,0,1.47,-0.12,1.99,-0.36c0.51,-0.24,0.95,-0.65,1.3,-1.23c0.35,-0.57,0.59,-1.36,0.69,-2.34l0.47,0l0,9.24l-0.47,0c-0.17,-1.74,-0.64,-2.89,-1.4,-3.45c-0.76,-0.55,-1.63,-0.83,-2.59,-0.83l-0.52,0l0,5.63c0,0.94,0.05,1.52,0.15,1.76c0.1,0.23,0.3,0.44,0.61,0.61c0.3,0.17,0.71,0.26,1.22,0.26l0.61,0l0,0.5l-9.62,0l0,-0.5l0.61,0c0.53,0,0.96,-0.09,1.28,-0.28c0.23,-0.12,0.41,-0.34,0.54,-0.65c0.09,-0.21,0.14,-0.78,0.14,-1.71l0,-12.1c0,-0.94,-0.04,-1.52,-0.14,-1.76c-0.09,-0.23,-0.3,-0.44,-0.6,-0.61c-0.3,-0.17,-0.71,-0.26,-1.22,-0.26l-0.61,0l0,-0.5l15.52,0l0,5.28l-0.55,0c-0.12,-1.23,-0.45,-2.15,-0.97,-2.75c-0.52,-0.59,-1.27,-1.01,-2.26,-1.26c-0.54,-0.13,-1.54,-0.2,-3.01,-0.2l-1.71,0m15.54,4.65l0,2.87c0.84,-1.31,1.57,-2.18,2.21,-2.61c0.63,-0.42,1.24,-0.64,1.83,-0.64c0.5,0,0.91,0.15,1.21,0.46c0.3,0.31,0.45,0.75,0.45,1.32c0,0.6,-0.14,1.07,-0.44,1.41c-0.29,0.33,-0.64,0.5,-1.06,0.5c-0.47,0,-0.89,-0.15,-1.24,-0.46c-0.35,-0.3,-0.56,-0.47,-0.62,-0.51c-0.09,-0.05,-0.19,-0.08,-0.31,-0.08c-0.26,0,-0.51,0.09,-0.74,0.29c-0.37,0.3,-0.65,0.74,-0.84,1.31c-0.28,0.87,-0.43,1.84,-0.43,2.9l0,2.91l0.01,0.76c0,0.51,0.03,0.84,0.09,0.99c0.1,0.24,0.26,0.42,0.48,0.53c0.21,0.11,0.57,0.18,1.07,0.21l0,0.48l-6.85,0l0,-0.48c0.55,-0.04,0.92,-0.19,1.11,-0.45c0.19,-0.25,0.29,-0.93,0.29,-2.04l0,-7.01c0,-0.72,-0.03,-1.18,-0.1,-1.38c-0.09,-0.25,-0.22,-0.43,-0.39,-0.55c-0.17,-0.11,-0.47,-0.19,-0.9,-0.24l0,-0.5l5.18,0m17.82,5.89l-6.96,0c0.08,1.68,0.52,3.01,1.34,3.99c0.62,0.75,1.37,1.12,2.25,1.12c0.54,0,1.03,-0.15,1.47,-0.45c0.44,-0.3,0.91,-0.84,1.42,-1.63l0.46,0.29c-0.68,1.4,-1.44,2.39,-2.28,2.97c-0.83,0.58,-1.79,0.87,-2.89,0.87c-1.88,0,-3.3,-0.72,-4.27,-2.17c-0.77,-1.16,-1.16,-2.61,-1.16,-4.34c0,-2.11,0.57,-3.8,1.71,-5.05c1.14,-1.25,2.48,-1.88,4.02,-1.88c1.28,0,2.4,0.52,3.34,1.58c0.94,1.05,1.45,2.61,1.52,4.68m-3.33,-0.9c0,-1.45,-0.07,-2.45,-0.23,-2.99c-0.15,-0.54,-0.4,-0.95,-0.73,-1.23c-0.19,-0.16,-0.44,-0.24,-0.76,-0.24c-0.47,0,-0.85,0.23,-1.15,0.69c-0.53,0.8,-0.8,1.9,-0.8,3.31l0,0.47l3.69,0m13.45,6.37c-0.55,0.57,-1.06,0.98,-1.54,1.22c-0.63,0.32,-1.29,0.48,-1.98,0.48c-1.59,0,-2.85,-0.71,-3.77,-2.13c-0.73,-1.13,-1.09,-2.48,-1.09,-4.05c0,-1.31,0.27,-2.54,0.83,-3.69c0.55,-1.15,1.32,-2.03,2.29,-2.64c0.97,-0.61,2,-0.91,3.08,-0.91c0.72,0,1.36,0.12,1.93,0.36c0.56,0.24,1.05,0.61,1.45,1.11l2.13,-1.47l0.46,0l0,16.43c0,0.83,0.07,1.35,0.21,1.56c0.23,0.33,0.71,0.5,1.42,0.51l0,0.5l-7.33,0l0,-0.5c0.56,0,0.96,-0.06,1.22,-0.19c0.25,-0.12,0.42,-0.29,0.52,-0.5c0.09,-0.2,0.14,-0.63,0.14,-1.27l0,-4.8m0,-1.23l0,-5.22c0,-1.45,-0.07,-2.42,-0.23,-2.89c-0.15,-0.47,-0.45,-0.87,-0.87,-1.22c-0.21,-0.17,-0.49,-0.25,-0.82,-0.25c-0.68,0,-1.22,0.3,-1.6,0.9c-0.59,0.93,-0.89,2.66,-0.89,5.19c0,1.94,0.25,3.31,0.77,4.09c0.35,0.53,0.8,0.8,1.37,0.8c0.32,0,0.69,-0.11,1.1,-0.33c0.41,-0.22,0.8,-0.58,1.18,-1.07m19.19,-10.12l0,9.93c0,0.96,0.09,1.57,0.27,1.81c0.18,0.23,0.54,0.39,1.09,0.45l0,0.48l-5.17,0l0,-1.69c-0.6,0.72,-1.21,1.25,-1.81,1.58c-0.6,0.33,-1.28,0.49,-2.03,0.49c-0.71,0,-1.35,-0.21,-1.9,-0.65c-0.55,-0.43,-0.92,-0.95,-1.11,-1.54c-0.19,-0.58,-0.28,-1.61,-0.28,-3.08l0,-5.03c0,-0.95,-0.08,-1.55,-0.26,-1.79c-0.17,-0.23,-0.54,-0.38,-1.1,-0.46l0,-0.5l5.17,0l0,8.67c0,0.9,0.04,1.48,0.12,1.75c0.08,0.26,0.22,0.46,0.4,0.59c0.18,0.13,0.4,0.2,0.64,0.2c0.32,0,0.61,-0.08,0.88,-0.25c0.36,-0.23,0.79,-0.71,1.3,-1.42l0,-6.78c0,-0.95,-0.08,-1.55,-0.26,-1.79c-0.17,-0.23,-0.54,-0.38,-1.1,-0.46l0,-0.5l5.17,0m13.95,5.89l-6.96,0c0.08,1.68,0.52,3.01,1.34,3.99c0.62,0.75,1.37,1.12,2.25,1.12c0.54,0,1.03,-0.15,1.47,-0.45c0.44,-0.3,0.91,-0.84,1.42,-1.63l0.46,0.29c-0.68,1.4,-1.44,2.39,-2.28,2.97c-0.83,0.58,-1.79,0.87,-2.89,0.87c-1.88,0,-3.3,-0.72,-4.27,-2.17c-0.77,-1.16,-1.16,-2.61,-1.16,-4.34c0,-2.11,0.57,-3.8,1.71,-5.05c1.14,-1.25,2.48,-1.88,4.02,-1.88c1.28,0,2.4,0.52,3.34,1.58c0.94,1.05,1.45,2.61,1.52,4.68m-3.33,-0.9c0,-1.45,-0.07,-2.45,-0.23,-2.99c-0.15,-0.54,-0.4,-0.95,-0.73,-1.23c-0.19,-0.16,-0.44,-0.24,-0.76,-0.24c-0.47,0,-0.85,0.23,-1.15,0.69c-0.53,0.8,-0.8,1.9,-0.8,3.31l0,0.47l3.69,0m10.11,-4.98l0,1.64c0.65,-0.7,1.27,-1.21,1.87,-1.54c0.59,-0.32,1.23,-0.48,1.92,-0.48c0.82,0,1.5,0.22,2.04,0.68c0.54,0.45,0.9,1.02,1.08,1.7c0.14,0.51,0.21,1.5,0.21,2.97l0,4.94c0,0.97,0.08,1.58,0.26,1.82c0.17,0.23,0.54,0.39,1.1,0.45l0,0.48l-6.42,0l0,-0.48c0.47,-0.06,0.82,-0.26,1.03,-0.59c0.14,-0.22,0.21,-0.78,0.21,-1.68l0,-5.64c0,-1.04,-0.04,-1.69,-0.12,-1.96c-0.08,-0.27,-0.21,-0.48,-0.41,-0.63c-0.19,-0.14,-0.4,-0.22,-0.64,-0.22c-0.77,0,-1.5,0.55,-2.17,1.66l0,6.8c0,0.95,0.08,1.55,0.26,1.8c0.17,0.25,0.5,0.41,0.98,0.47l0,0.48l-6.42,0l0,-0.48c0.53,-0.05,0.91,-0.22,1.14,-0.51c0.15,-0.19,0.23,-0.78,0.23,-1.76l0,-7.16c0,-0.95,-0.08,-1.55,-0.26,-1.79c-0.17,-0.23,-0.54,-0.38,-1.1,-0.46l0,-0.5l5.17,0m20.63,9.42l0.42,0.32c-0.59,1.12,-1.34,1.95,-2.23,2.5c-0.89,0.54,-1.83,0.82,-2.84,0.82c-1.69,0,-3.04,-0.63,-4.05,-1.91c-1.01,-1.27,-1.52,-2.8,-1.52,-4.6c0,-1.72,0.46,-3.24,1.38,-4.56c1.11,-1.58,2.64,-2.37,4.6,-2.37c1.31,0,2.35,0.33,3.12,0.99c0.77,0.66,1.16,1.39,1.16,2.21c0,0.51,-0.15,0.92,-0.46,1.23c-0.31,0.3,-0.72,0.46,-1.22,0.46c-0.53,0,-0.97,-0.17,-1.32,-0.52c-0.34,-0.35,-0.56,-0.98,-0.64,-1.88c-0.05,-0.57,-0.18,-0.96,-0.39,-1.19c-0.2,-0.22,-0.45,-0.33,-0.73,-0.33c-0.43,0,-0.8,0.23,-1.11,0.69c-0.47,0.69,-0.7,1.76,-0.7,3.2c0,1.19,0.19,2.33,0.57,3.42c0.38,1.09,0.9,1.9,1.56,2.43c0.49,0.38,1.08,0.58,1.76,0.58c0.44,0,0.86,-0.1,1.26,-0.31c0.39,-0.2,0.86,-0.6,1.41,-1.18m7.8,3.78l-4.09,-9.4c-0.61,-1.42,-1.07,-2.29,-1.36,-2.61c-0.29,-0.32,-0.64,-0.55,-1.06,-0.67l0,-0.5l6.74,0l0,0.5c-0.44,0.01,-0.75,0.1,-0.93,0.25c-0.18,0.15,-0.27,0.33,-0.27,0.55c0,0.34,0.22,1.02,0.67,2.03l2.17,4.96l1.47,-3.84c0.53,-1.36,0.8,-2.31,0.8,-2.85c0,-0.33,-0.11,-0.6,-0.33,-0.8c-0.22,-0.19,-0.61,-0.3,-1.17,-0.32l0,-0.5l4.24,0l0,0.5c-0.41,0.04,-0.75,0.2,-1.01,0.48c-0.26,0.27,-0.7,1.21,-1.31,2.81l-3.62,9.4c-0.91,2.35,-1.59,3.8,-2.03,4.34c-0.62,0.76,-1.4,1.14,-2.34,1.14c-0.75,0,-1.35,-0.21,-1.82,-0.64c-0.46,-0.42,-0.69,-0.94,-0.69,-1.55c0,-0.52,0.16,-0.95,0.48,-1.3c0.32,-0.34,0.71,-0.51,1.18,-0.51c0.45,0,0.81,0.14,1.09,0.43c0.27,0.28,0.41,0.73,0.42,1.34c0,0.34,0.04,0.56,0.12,0.66c0.07,0.09,0.17,0.14,0.31,0.14c0.21,0,0.44,-0.13,0.69,-0.39c0.36,-0.38,0.78,-1.24,1.27,-2.6l0.39,-1.05m23.02,-19.34l0,0.62c-0.94,0.61,-1.63,1.21,-2.07,1.8c-0.61,0.81,-1.09,1.85,-1.43,3.13c-0.43,1.58,-0.65,3.79,-0.65,6.63c0,2.67,0.19,4.76,0.59,6.24c0.39,1.48,0.92,2.68,1.6,3.59c0.47,0.63,1.12,1.19,1.96,1.66l0,0.67c-2.18,-0.73,-4.02,-2.22,-5.54,-4.48c-1.51,-2.25,-2.27,-4.85,-2.27,-7.78c0,-2.89,0.75,-5.45,2.26,-7.68c1.51,-2.23,3.36,-3.7,5.55,-4.43m6.41,0.42l0,12.1l2.94,-2.89c0.6,-0.58,0.98,-1.01,1.13,-1.27c0.14,-0.26,0.22,-0.51,0.22,-0.76c0,-0.24,-0.09,-0.44,-0.29,-0.61c-0.19,-0.16,-0.58,-0.28,-1.16,-0.35l0,-0.5l5.68,0l0,0.5c-0.54,0.02,-1.01,0.15,-1.42,0.38c-0.4,0.23,-1.2,0.92,-2.38,2.08l-1.38,1.35l2.98,4.37c1.2,1.77,1.91,2.76,2.14,2.98c0.3,0.3,0.69,0.47,1.16,0.51l0,0.48l-6.55,0l0,-0.48c0.28,0,0.5,-0.05,0.63,-0.16c0.13,-0.1,0.19,-0.22,0.19,-0.35c0,-0.2,-0.19,-0.59,-0.57,-1.15l-2.51,-3.67l-0.81,0.8l0,2.28c0,0.96,0.09,1.57,0.27,1.81c0.18,0.23,0.55,0.39,1.11,0.45l0,0.48l-6.55,0l0,-0.48c0.53,-0.05,0.91,-0.22,1.14,-0.51c0.15,-0.19,0.23,-0.78,0.23,-1.75l0,-12.89c0,-0.95,-0.08,-1.55,-0.26,-1.79c-0.17,-0.23,-0.54,-0.38,-1.1,-0.46l0,-0.5l5.17,0m16.96,9.55l0,5.7c0,0.94,0.05,1.52,0.15,1.76c0.1,0.23,0.3,0.44,0.61,0.61c0.3,0.17,0.71,0.26,1.22,0.26l0.61,0l0,0.5l-9.62,0l0,-0.5l0.61,0c0.53,0,0.96,-0.09,1.28,-0.28c0.23,-0.12,0.41,-0.34,0.54,-0.65c0.09,-0.21,0.14,-0.78,0.14,-1.71l0,-12.1c0,-0.94,-0.04,-1.52,-0.14,-1.76c-0.09,-0.23,-0.3,-0.44,-0.6,-0.61c-0.3,-0.17,-0.71,-0.26,-1.22,-0.26l-0.61,0l0,-0.5l9.62,0l0,0.5l-0.61,0c-0.53,0,-0.96,0.09,-1.28,0.28c-0.23,0.12,-0.42,0.34,-0.55,0.65c-0.09,0.21,-0.14,0.78,-0.14,1.71l0,5.21l6.5,0l0,-5.21c0,-0.94,-0.04,-1.52,-0.14,-1.76c-0.09,-0.23,-0.3,-0.44,-0.61,-0.61c-0.3,-0.17,-0.71,-0.26,-1.23,-0.26l-0.59,0l0,-0.5l9.61,0l0,0.5l-0.59,0c-0.54,0,-0.97,0.09,-1.28,0.28c-0.23,0.12,-0.42,0.34,-0.55,0.65c-0.09,0.21,-0.14,0.78,-0.14,1.71l0,12.1c0,0.94,0.04,1.52,0.14,1.76c0.09,0.23,0.3,0.44,0.61,0.61c0.3,0.17,0.71,0.26,1.23,0.26l0.59,0l0,0.5l-9.61,0l0,-0.5l0.59,0c0.54,0,0.97,-0.09,1.28,-0.28c0.23,-0.12,0.42,-0.34,0.55,-0.65c0.09,-0.21,0.14,-0.78,0.14,-1.71l0,-5.7l-6.5,0m25.35,8.85l-11.04,0l0,-0.29l6.97,-11.56l-2.03,0c-0.87,0,-1.5,0.07,-1.88,0.23c-0.38,0.15,-0.68,0.41,-0.92,0.76c-0.23,0.34,-0.47,0.97,-0.73,1.86l-0.47,0l0,-3.69l10.68,0l0,0.36l-6.92,11.45l0.86,0c1.73,0,2.99,-0.24,3.76,-0.74c0.76,-0.49,1.34,-1.4,1.73,-2.72l0.38,0l-0.38,4.34m1.34,5.56l0,-0.62c0.94,-0.62,1.63,-1.23,2.07,-1.81c0.6,-0.81,1.08,-1.85,1.43,-3.12c0.43,-1.59,0.65,-3.8,0.65,-6.65c0,-2.67,-0.19,-4.75,-0.59,-6.23c-0.39,-1.47,-0.92,-2.67,-1.6,-3.59c-0.47,-0.63,-1.12,-1.19,-1.96,-1.66l0,-0.67c2.18,0.73,4.02,2.22,5.54,4.48c1.51,2.25,2.27,4.85,2.27,7.78c0,2.88,-0.75,5.44,-2.27,7.67c-1.51,2.23,-3.36,3.71,-5.54,4.44" fill="#000000" stroke="none" fill-opacity="1"/>
<path d="m63.23,538.98l4.47,-2.18l0.44,0l0,15.54c0,1.03,0.04,1.67,0.12,1.92c0.08,0.25,0.26,0.44,0.53,0.58c0.27,0.13,0.82,0.21,1.65,0.23l0,0.5l-6.92,0l0,-0.5c0.86,-0.01,1.42,-0.09,1.68,-0.22c0.25,-0.13,0.42,-0.3,0.52,-0.52c0.09,-0.22,0.14,-0.88,0.14,-1.98l0,-9.93c0,-1.33,-0.04,-2.19,-0.13,-2.57c-0.06,-0.28,-0.17,-0.5,-0.34,-0.63c-0.16,-0.13,-0.36,-0.2,-0.6,-0.2c-0.33,0,-0.8,0.14,-1.39,0.42l-0.2,-0.42" fill="#000000" stroke="none" fill-opacity="1"/>
<path d="m283.64,538.98l4.47,-2.18l0.44,0l0,15.54c0,1.03,0.04,1.67,0.12,1.92c0.08,0.25,0.26,0.44,0.53,0.58c0.27,0.13,0.82,0.21,1.65,0.23l0,0.5l-6.92,0l0,-0.5c0.86,-0.01,1.42,-0.09,1.68,-0.22c0.25,-0.13,0.42,-0.3,0.52,-0.52c0.09,-0.22,0.14,-0.88,0.14,-1.98l0,-9.93c0,-1.33,-0.04,-2.19,-0.13,-2.57c-0.06,-0.28,-0.17,-0.5,-0.34,-0.63c-0.16,-0.13,-0.36,-0.2,-0.6,-0.2c-0.33,0,-0.8,0.14,-1.39,0.42l-0.2,-0.42m11.64,7.5c0,-2.09,0.31,-3.9,0.95,-5.42c0.63,-1.51,1.47,-2.64,2.52,-3.38c0.81,-0.58,1.65,-0.88,2.52,-0.88c1.41,0,2.67,0.71,3.8,2.15c1.4,1.78,2.1,4.19,2.1,7.24c0,2.13,-0.3,3.95,-0.92,5.44c-0.61,1.49,-1.4,2.57,-2.35,3.25c-0.95,0.67,-1.87,1.01,-2.76,1.01c-1.75,0,-3.21,-1.03,-4.38,-3.1c-0.98,-1.74,-1.47,-3.85,-1.47,-6.31m2.66,0.33c0,2.53,0.31,4.6,0.93,6.2c0.51,1.34,1.28,2.02,2.3,2.02c0.48,0,0.99,-0.21,1.52,-0.65c0.52,-0.43,0.92,-1.17,1.19,-2.2c0.41,-1.55,0.62,-3.75,0.62,-6.58c0,-2.09,-0.21,-3.85,-0.65,-5.25c-0.32,-1.04,-0.74,-1.77,-1.26,-2.21c-0.37,-0.29,-0.81,-0.44,-1.34,-0.44c-0.61,0,-1.16,0.27,-1.64,0.82c-0.65,0.75,-1.09,1.93,-1.33,3.54c-0.23,1.61,-0.35,3.19,-0.35,4.76" fill="#000000" stroke="none" fill-opacity="1"/>
<path d="m504.06,538.98l4.47,-2.18l0.44,0l0,15.54c0,1.03,0.04,1.67,0.12,1.92c0.08,0.25,0.26,0.44,0.53,0.58c0.27,0.13,0.82,0.21,1.65,0.23l0,0.5l-6.92,0l0,-0.5c0.86,-0.01,1.42,-0.09,1.68,-0.22c0.25,-0.13,0.42,-0.3,0.52,-0.52c0.09,-0.22,0.14,-0.88,0.14,-1.98l0,-9.93c0,-1.33,-0.04,-2.19,-0.13,-2.57c-0.06,-0.28,-0.17,-0.5,-0.34,-0.63c-0.16,-0.13,-0.36,-0.2,-0.6,-0.2c-0.33,0,-0.8,0.14,-1.39,0.42l-0.2,-0.42m11.64,7.5c0,-2.09,0.31,-3.9,0.95,-5.42c0.63,-1.51,1.47,-2.64,2.52,-3.38c0.81,-0.58,1.65,-0.88,2.52,-0.88c1.41,0,2.67,0.71,3.8,2.15c1.4,1.78,2.1,4.19,2.1,7.24c0,2.13,-0.3,3.95,-0.92,5.44c-0.61,1.49,-1.4,2.57,-2.35,3.25c-0.95,0.67,-1.87,1.01,-2.76,1.01c-1.75,0,-3.21,-1.03,-4.38,-3.1c-0.98,-1.74,-1.47,-3.85,-1.47,-6.31m2.66,0.33c0,2.53,0.31,4.6,0.93,6.2c0.51,1.34,1.28,2.02,2.3,2.02c0.48,0,0.99,-0.21,1.52,-0.65c0.52,-0.43,0.92,-1.17,1.19,-2.2c0.41,-1.55,0.62,-3.75,0.62,-6.58c0,-2.09,-0.21,-3.85,-0.65,-5.25c-0.32,-1.04,-0.74,-1.77,-1.26,-2.21c-0.37,-0.29,-0.81,-0.44,-1.34,-0.44c-0.61,0,-1.16,0.27,-1.64,0.82c-0.65,0.75,-1.09,1.93,-1.33,3.54c-0.23,1.61,-0.35,3.19,-0.35,4.76m11.23,-0.33c0,-2.09,0.31,-3.9,0.95,-5.42c0.63,-1.51,1.47,-2.64,2.52,-3.38c0.81,-0.58,1.65,-0.88,2.52,-0.88c1.41,0,2.67,0.71,3.8,2.15c1.4,1.78,2.1,4.19,2.1,7.24c0,2.13,-0.3,3.95,-0.92,5.44c-0.61,1.49,-1.4,2.57,-2.35,3.25c-0.95,0.67,-1.87,1.01,-2.76,1.01c-1.75,0,-3.21,-1.03,-4.38,-3.1c-0.98,-1.74,-1.47,-3.85,-1.47,-6.31m2.66,0.33c0,2.53,0.31,4.6,0.93,6.2c0.51,1.34,1.28,2.02,2.3,2.02c0.48,0,0.99,-0.21,1.52,-0.65c0.52,-0.43,0.92,-1.17,1.19,-2.2c0.41,-1.55,0.62,-3.75,0.62,-6.58c0,-2.09,-0.21,-3.85,-0.65,-5.25c-0.32,-1.04,-0.74,-1.77,-1.26,-2.21c-0.37,-0.29,-0.81,-0.44,-1.34,-0.44c-0.61,0,-1.16,0.27,-1.64,0.82c-0.65,0.75,-1.09,1.93,-1.33,3.54c-0.23,1.61,-0.35,3.19,-0.35,4.76" fill="#000000" stroke="none" fill-opacity="1"/>
<path d="m724.47,538.98l4.47,-2.18l0.44,0l0,15.54c0,1.03,0.04,1.67,0.12,1.92c0.08,0.25,0.26,0.44,0.53,0.58c0.27,0.13,0.82,0.21,1.65,0.23l0,0.5l-6.92,0l0,-0.5c0.86,-0.01,1.42,-0.09,1.68,-0.22c0.25,-0.13,0.42,-0.3,0.52,-0.52c0.09,-0.22,0.14,-0.88,0.14,-1.98l0,-9.93c0,-1.33,-0.04,-2.19,-0.13,-2.57c-0.06,-0.28,-0.17,-0.5,-0.34,-0.63c-0.16,-0.13,-0.36,-0.2,-0.6,-0.2c-0.33,0,-0.8,0.14,-1.39,0.42l-0.2,-0.42m11.64,7.5c0,-2.09,0.31,-3.9,0.95,-5.42c0.63,-1.51,1.47,-2.64,2.52,-3.38c0.81,-0.58,1.65,-0.88,2.52,-0.88c1.41,0,2.67,0.71,3.8,2.15c1.4,1.78,2.1,4.19,2.1,7.24c0,2.13,-0.3,3.95,-0.92,5.44c-0.61,1.49,-1.4,2.57,-2.35,3.25c-0.95,0.67,-1.87,1.01,-2.76,1.01c-1.75,0,-3.21,-1.03,-4.38,-3.1c-0.98,-1.74,-1.47,-3.85,-1.47,-6.31m2.66,0.33c0,2.53,0.31,4.6,0.93,6.2c0.51,1.34,1.28,2.02,2.3,2.02c0.48,0,0.99,-0.21,1.52,-0.65c0.52,-0.43,0.92,-1.17,1.19,-2.2c0.41,-1.55,0.62,-3.75,0.62,-6.58c0,-2.09,-0.21,-3.85,-0.65,-5.25c-0.32,-1.04,-0.74,-1.77,-1.26,-2.21c-0.37,-0.29,-0.81,-0.44,-1.34,-0.44c-0.61,0,-1.16,0.27,-1.64,0.82c-0.65,0.75,-1.09,1.93,-1.33,3.54c-0.23,1.61,-0.35,3.19,-0.35,4.76m11.23,-0.33c0,-2.09,0.31,-3.9,0.95,-5.42c0.63,-1.51,1.47,-2.64,2.52,-3.38c0.81,-0.58,1.65,-0.88,2.52,-0.88c1.41,0,2.67,0.71,3.8,2.15c1.4,1.78,2.1,4.19,2.1,7.24c0,2.13,-0.3,3.95,-0.92,5.44c-0.61,1.49,-1.4,2.57,-2.35,3.25c-0.95,0.67,-1.87,1.01,-2.76,1.01c-1.75,0,-3.21,-1.03,-4.38,-3.1c-0.98,-1.74,-1.47,-3.85,-1.47,-6.31m2.66,0.33c0,2.53,0.31,4.6,0.93,6.2c0.51,1.34,1.28,2.02,2.3,2.02c0.48,0,0.99,-0.21,1.52,-0.65c0.52,-0.43,0.92,-1.17,1.19,-2.2c0.41,-1.55,0.62,-3.75,0.62,-6.58c0,-2.09,-0.21,-3.85,-0.65,-5.25c-0.32,-1.04,-0.74,-1.77,-1.26,-2.21c-0.37,-0.29,-0.81,-0.44,-1.34,-0.44c-0.61,0,-1.16,0.27,-1.64,0.82c-0.65,0.75,-1.09,1.93,-1.33,3.54c-0.23,1.61,-0.35,3.19,-0.35,4.76m11.23,-0.33c0,-2.09,0.31,-3.9,0.95,-5.42c0.63,-1.51,1.47,-2.64,2.52,-3.38c0.81,-0.58,1.65,-0.88,2.52,-0.88c1.41,0,2.67,0.71,3.8,2.15c1.4,1.78,2.1,4.19,2.1,7.24c0,2.13,-0.3,3.95,-0.92,5.44c-0.61,1.49,-1.4,2.57,-2.35,3.25c-0.95,0.67,-1.87,1.01,-2.76,1.01c-1.75,0,-3.21,-1.03,-4.38,-3.1c-0.98,-1.74,-1.47,-3.85,-1.47,-6.31m2.66,0.33c0,2.53,0.31,4.6,0.93,6.2c0.51,1.34,1.28,2.02,2.3,2.02c0.48,0,0.99,-0.21,1.52,-0.65c0.52,-0.43,0.92,-1.17,1.19,-2.2c0.41,-1.55,0.62,-3.75,0.62,-6.58c0,-2.09,-0.21,-3.85,-0.65,-5.25c-0.32,-1.04,-0.74,-1.77,-1.26,-2.21c-0.37,-0.29,-0.81,-0.44,-1.34,-0.44c-0.61,0,-1.16,0.27,-1.64,0.82c-0.65,0.75,-1.09,1.93,-1.33,3.54c-0.23,1.61,-0.35,3.19,-0.35,4.76" fill="#000000" stroke="none" fill-opacity="1"/>
<path d="m951.35,538.98l4.47,-2.18l0.44,0l0,15.54c0,1.03,0.04,1.67,0.12,1.92c0.08,0.25,0.26,0.44,0.53,0.58c0.27,0.13,0.82,0.21,1.65,0.23l0,0.5l-6.92,0l0,-0.5c0.86,-0.01,1.42,-0.09,1.68,-0.22c0.25,-0.13,0.42,-0.3,0.52,-0.52c0.09,-0.22,0.14,-0.88,0.14,-1.98l0,-9.93c0,-1.33,-0.04,-2.19,-0.13,-2.57c-0.06,-0.28,-0.17,-0.5,-0.34,-0.63c-0.16,-0.13,-0.36,-0.2,-0.6,-0.2c-0.33,0,-0.8,0.14,-1.39,0.42l-0.2,-0.42m11.64,7.5c0,-2.09,0.31,-3.9,0.95,-5.42c0.63,-1.51,1.47,-2.64,2.52,-3.38c0.81,-0.58,1.65,-0.88,2.52,-0.88c1.41,0,2.67,0.71,3.8,2.15c1.4,1.78,2.1,4.19,2.1,7.24c0,2.13,-0.3,3.95,-0.92,5.44c-0.61,1.49,-1.4,2.57,-2.35,3.25c-0.95,0.67,-1.87,1.01,-2.76,1.01c-1.75,0,-3.21,-1.03,-4.38,-3.1c-0.98,-1.74,-1.47,-3.85,-1.47,-6.31m2.66,0.33c0,2.53,0.31,4.6,0.93,6.2c0.51,1.34,1.28,2.02,2.3,2.02c0.48,0,0.99,-0.21,1.52,-0.65c0.52,-0.43,0.92,-1.17,1.19,-2.2c0.41,-1.55,0.62,-3.75,0.62,-6.58c0,-2.09,-0.21,-3.85,-0.65,-5.25c-0.32,-1.04,-0.74,-1.77,-1.26,-2.21c-0.37,-0.29,-0.81,-0.44,-1.34,-0.44c-0.61,0,-1.16,0.27,-1.64,0.82c-0.65,0.75,-1.09,1.93,-1.33,3.54c-0.23,1.61,-0.35,3.19,-0.35,4.76" fill="#000000" stroke="none" fill-opacity="1"/>
<path d="m983.67,539.19l0,1.15l-1.48,0l0,2.91l-1.34,0l0,-2.91l-4.68,0l0,-1.04l5.12,-7.32l0.89,0l0,7.2l1.48,0m-2.82,0l0,-5.48l-3.88,5.48l3.88,0" fill="#000000" stroke="none" fill-opacity="1"/>
</g>
<g fill="none" stroke-linecap="butt" stroke-opacity="0.99" stroke-width="0.69">
<path d="M66.92,7.87l909.44,0"/>
</g>
<g fill="none" stroke-linecap="butt" stroke-width="0.69">
<path d="M135.37,7.87l0,4.16M175.4,7.87l0,4.16M203.81,7.87l0,4.16M225.84,7.87l0,4.16M243.85,7.87l0,4.16M259.07,7.87l0,4.16M272.25,7.87l0,4.16M283.88,7.87l0,4.16M362.73,7.87l0,4.16M402.77,7.87l0,4.16M431.17,7.87l0,4.16M453.21,7.87l0,4.16M471.21,7.87l0,4.16M486.43,7.87l0,4.16M499.61,7.87l0,4.16M511.25,7.87l0,4.16M590.09,7.87l0,4.16M630.13,7.87l0,4.16M658.53,7.87l0,4.16M680.57,7.87l0,4.16M698.57,7.87l0,4.16M713.79,7.87l0,4.16M726.98,7.87l0,4.16M738.61,7.87l0,4.16M817.45,7.87l0,4.16M857.49,7.87l0,4.16M885.9,7.87l0,4.16M907.93,7.87l0,4.16M925.93,7.87l0,4.16M941.15,7.87l0,4.16M954.34,7.87l0,4.16M965.97,7.87l0,4.16"/>
<path d="M66.92,7.87l0,8.33M294.29,7.87l0,8.33M521.65,7.87l0,8.33M749.01,7.87l0,8.33M976.37,7.87l0,8.33"/>
</g>
</g>
</g>
</svg>
