<?xml version="1.0" standalone="no"?>
<!DOCTYPE svg PUBLIC "-//W3C//DTD SVG 1.1//EN"
  "http://www.w3.org/Graphics/SVG/1.1/DTD/svg11.dtd">
<svg width="984.25px" height="590.55px" version="1.1"
    xmlns="http://www.w3.org/2000/svg"
    xmlns:xlink="http://www.w3.org/1999/xlink">
<desc>Veusz output document</desc>
<defs>
<clipPath id="c0">
<path d="m0,0l984.25,0l0,590.55l-984.25,0l0,-590.55"/>
</clipPath>
<clipPath id="c1">
<path d="m589.39,43.81l39.37,0l0,30.78l-39.37,0l0,-30.78"/>
</clipPath>
<clipPath id="c2">
<path d="m589.39,74.59l39.37,0l0,30.78l-39.37,0l0,-30.78"/>
</clipPath>
<clipPath id="c3">
<path d="m589.39,105.38l39.37,0l0,30.78l-39.37,0l0,-30.78"/>
</clipPath>
<clipPath id="c4">
<path d="m66.92,7.87l909.44,0l0,515.74l-909.44,0l0,-515.74"/>
</clipPath>
</defs>
<g stroke-linejoin="bevel" stroke-linecap="square" stroke="#000000" fill-rule="evenodd">
<g clip-path="url(#c0)">
<g fill="#ffffff" stroke-width="0.69">
<path d="m66.92,7.87l909.44,0l0,515.74l-909.44,0l0,-515.74"/>
</g>
<g fill="#ffffff" fill-opacity="0.99" stroke="none" stroke-width="0.1">
<path d="m558.6,28.42l302.2,0l0,123.13l-302.2,0l0,-123.13" id="p0"/>
</g>
<g fill="none" stroke-width="0.69">
<use xlink:href="#p0"/>
</g>
</g>
<g clip-path="url(#c1)">
<g fill="none" stroke="#e41a1c" stroke-linecap="butt" stroke-width="0.69">
<path d="M609.07,59.2l0,0"/>
</g>
<g fill="none" stroke="#e41a1c" stroke-dasharray="16.66,8.33,4.16,8.33" stroke-width="2.08">
<path d="M589.39,59.2l39.37,0"/>
</g>
</g>
<g fill="none" stroke-width="0.1">
<path d="m668.12,68.08l0,0.5l-7.88,0l0,-0.5l0.65,0c0.76,0,1.31,-0.22,1.65,-0.66c0.21,-0.28,0.32,-0.98,0.32,-2.09l0,-11.89c0,-0.93,-0.05,-1.54,-0.17,-1.84c-0.09,-0.22,-0.27,-0.42,-0.55,-0.58c-0.39,-0.21,-0.81,-0.32,-1.24,-0.32l-0.65,0l0,-0.5l7.88,0l0,0.5l-0.66,0c-0.75,0,-1.29,0.22,-1.64,0.66c-0.22,0.28,-0.33,0.98,-0.33,2.09l0,11.89c0,0.93,0.05,1.54,0.17,1.84c0.09,0.22,0.28,0.42,0.57,0.58c0.38,0.21,0.8,0.32,1.23,0.32l0.66,0" fill="#000000" stroke="none" fill-opacity="1"/>
<path d="m671.22,60.59c0.22,0,0.42,0.08,0.58,0.24c0.16,0.16,0.24,0.35,0.24,0.58c0,0.22,-0.08,0.42,-0.24,0.58c-0.16,0.16,-0.35,0.24,-0.58,0.24c-0.22,0,-0.42,-0.08,-0.58,-0.24c-0.16,-0.16,-0.24,-0.35,-0.24,-0.58c0,-0.22,0.08,-0.42,0.24,-0.58c0.16,-0.16,0.35,-0.24,0.59,-0.24m0.67,3.9l0,6c0,0.46,0.03,0.77,0.1,0.93c0.06,0.15,0.16,0.27,0.3,0.34c0.13,0.07,0.37,0.11,0.72,0.11l0,0.29l-3.62,0l0,-0.29c0.36,0,0.6,-0.03,0.73,-0.1c0.12,-0.07,0.22,-0.18,0.29,-0.35c0.07,-0.16,0.11,-0.47,0.11,-0.93l0,-2.87c0,-0.81,-0.02,-1.33,-0.07,-1.57c-0.03,-0.17,-0.09,-0.29,-0.17,-0.36c-0.08,-0.06,-0.19,-0.1,-0.33,-0.1c-0.15,0,-0.33,0.04,-0.55,0.12l-0.11,-0.29l2.25,-0.91l0.35,0m4.23,1.58c0.87,-1.05,1.7,-1.58,2.5,-1.58c0.4,0,0.75,0.1,1.05,0.3c0.29,0.2,0.52,0.53,0.7,1c0.11,0.32,0.17,0.82,0.17,1.5l0,3.18c0,0.47,0.03,0.79,0.11,0.96c0.05,0.13,0.15,0.24,0.28,0.31c0.13,0.07,0.37,0.11,0.73,0.11l0,0.29l-3.69,0l0,-0.29l0.15,0c0.34,0,0.59,-0.05,0.72,-0.15c0.13,-0.1,0.23,-0.26,0.28,-0.46c0.02,-0.08,0.03,-0.33,0.03,-0.76l0,-3.05c0,-0.67,-0.08,-1.17,-0.26,-1.48c-0.17,-0.3,-0.47,-0.46,-0.89,-0.46c-0.64,0,-1.29,0.35,-1.93,1.06l0,3.93c0,0.5,0.02,0.81,0.08,0.93c0.07,0.15,0.18,0.27,0.31,0.34c0.13,0.07,0.4,0.11,0.81,0.11l0,0.29l-3.69,0l0,-0.29l0.16,0c0.38,0,0.63,-0.09,0.77,-0.28c0.13,-0.19,0.19,-0.56,0.19,-1.1l0,-2.77c0,-0.89,-0.02,-1.44,-0.06,-1.63c-0.04,-0.19,-0.1,-0.32,-0.18,-0.39c-0.08,-0.07,-0.19,-0.1,-0.33,-0.1c-0.15,0,-0.33,0.04,-0.54,0.12l-0.12,-0.29l2.25,-0.91l0.35,0l0,1.58" fill="#000000" stroke="none" fill-opacity="1"/>
</g>
<g clip-path="url(#c2)">
<g fill="none" stroke="#377eb8" stroke-linecap="butt" stroke-width="0.69">
<path d="M609.07,89.99l0,0"/>
</g>
<g fill="none" stroke="#377eb8" stroke-dasharray="8.33,8.33" stroke-width="2.08">
<path d="M589.39,89.99l39.37,0"/>
</g>
</g>
<g fill="none" stroke-width="0.1">
<path d="m668.12,98.86l0,0.5l-7.88,0l0,-0.5l0.65,0c0.76,0,1.31,-0.22,1.65,-0.66c0.21,-0.28,0.32,-0.98,0.32,-2.09l0,-11.89c0,-0.93,-0.05,-1.54,-0.17,-1.84c-0.09,-0.22,-0.27,-0.42,-0.55,-0.58c-0.39,-0.21,-0.81,-0.32,-1.24,-0.32l-0.65,0l0,-0.5l7.88,0l0,0.5l-0.66,0c-0.75,0,-1.29,0.22,-1.64,0.66c-0.22,0.28,-0.33,0.98,-0.33,2.09l0,11.89c0,0.93,0.05,1.54,0.17,1.84c0.09,0.22,0.28,0.42,0.57,0.58c0.38,0.21,0.8,0.32,1.23,0.32l0.66,0m10.32,-0.89c-0.6,0.63,-1.19,1.08,-1.77,1.36c-0.57,0.27,-1.2,0.41,-1.87,0.41c-1.35,0,-2.54,-0.56,-3.55,-1.7c-1.01,-1.13,-1.52,-2.59,-1.52,-4.37c0,-1.78,0.56,-3.41,1.68,-4.89c1.12,-1.47,2.56,-2.21,4.33,-2.21c1.09,0,1.99,0.34,2.71,1.04l0,-2.29c0,-1.42,-0.03,-2.29,-0.1,-2.61c-0.06,-0.32,-0.17,-0.54,-0.31,-0.66c-0.14,-0.11,-0.32,-0.17,-0.54,-0.17c-0.23,0,-0.54,0.07,-0.93,0.21l-0.17,-0.47l3.7,-1.52l0.61,0l0,14.37c0,1.45,0.03,2.34,0.1,2.66c0.06,0.32,0.17,0.54,0.32,0.67c0.14,0.12,0.32,0.19,0.52,0.19c0.24,0,0.57,-0.07,0.97,-0.23l0.14,0.47l-3.69,1.53l-0.62,0l0,-1.77m0,-0.95l0,-6.4c-0.05,-0.61,-0.21,-1.17,-0.48,-1.68c-0.27,-0.5,-0.63,-0.88,-1.07,-1.14c-0.44,-0.25,-0.88,-0.38,-1.3,-0.38c-0.79,0,-1.5,0.35,-2.13,1.07c-0.82,0.94,-1.23,2.31,-1.23,4.12c0,1.82,0.39,3.22,1.19,4.2c0.79,0.97,1.68,1.45,2.66,1.45c0.82,0,1.61,-0.41,2.38,-1.23m7.2,-5.4c0,1.84,0.43,3.29,1.34,4.34c0.9,1.04,1.96,1.57,3.18,1.57c0.81,0,1.52,-0.22,2.12,-0.67c0.6,-0.44,1.1,-1.21,1.51,-2.3l0.42,0.27c-0.19,1.23,-0.74,2.36,-1.65,3.38c-0.91,1.01,-2.05,1.52,-3.43,1.52c-1.49,0,-2.77,-0.58,-3.83,-1.74c-1.06,-1.16,-1.59,-2.72,-1.59,-4.68c0,-2.12,0.54,-3.78,1.63,-4.97c1.09,-1.19,2.45,-1.78,4.1,-1.78c1.39,0,2.53,0.45,3.43,1.37c0.89,0.91,1.34,2.14,1.34,3.68l-8.59,0m0,-0.78l5.75,0c-0.04,-0.79,-0.14,-1.35,-0.28,-1.68c-0.22,-0.5,-0.56,-0.9,-1.01,-1.19c-0.44,-0.28,-0.91,-0.43,-1.4,-0.43c-0.75,0,-1.42,0.29,-2.01,0.87c-0.59,0.58,-0.93,1.39,-1.03,2.43m17.29,6.74c-1.27,0.98,-2.07,1.55,-2.4,1.71c-0.48,0.22,-1,0.33,-1.56,0.33c-0.85,0,-1.56,-0.29,-2.12,-0.88c-0.55,-0.58,-0.83,-1.36,-0.83,-2.32c0,-0.6,0.13,-1.13,0.4,-1.57c0.37,-0.61,1.01,-1.19,1.93,-1.73c0.91,-0.54,2.44,-1.2,4.58,-1.98l0,-0.48c0,-1.23,-0.19,-2.09,-0.59,-2.55c-0.39,-0.46,-0.96,-0.69,-1.71,-0.69c-0.57,0,-1.02,0.15,-1.35,0.46c-0.34,0.3,-0.51,0.66,-0.51,1.05l0.02,0.78c0,0.41,-0.1,0.73,-0.31,0.96c-0.21,0.22,-0.49,0.33,-0.83,0.33c-0.33,0,-0.6,-0.11,-0.82,-0.35c-0.21,-0.23,-0.31,-0.55,-0.31,-0.96c0,-0.77,0.39,-1.49,1.19,-2.14c0.79,-0.65,1.91,-0.97,3.35,-0.97c1.1,0,2,0.18,2.71,0.55c0.53,0.28,0.92,0.71,1.18,1.31c0.16,0.38,0.24,1.18,0.24,2.38l0,4.22c0,1.18,0.02,1.91,0.06,2.17c0.04,0.26,0.11,0.44,0.22,0.53c0.1,0.09,0.22,0.13,0.35,0.13c0.14,0,0.27,-0.03,0.38,-0.09c0.19,-0.11,0.55,-0.44,1.09,-0.99l0,0.76c-1.01,1.35,-1.98,2.03,-2.9,2.03c-0.44,0,-0.79,-0.15,-1.05,-0.46c-0.26,-0.3,-0.39,-0.83,-0.4,-1.57m0,-0.88l0,-4.73c-1.36,0.54,-2.24,0.92,-2.64,1.15c-0.71,0.39,-1.22,0.81,-1.53,1.24c-0.3,0.43,-0.46,0.9,-0.46,1.42c0,0.65,0.19,1.19,0.58,1.62c0.38,0.42,0.83,0.64,1.34,0.64c0.68,0,1.59,-0.45,2.71,-1.35m9.56,-16.62l0,16.49c0,0.77,0.05,1.29,0.16,1.54c0.11,0.25,0.28,0.44,0.52,0.57c0.23,0.13,0.67,0.19,1.31,0.19l0,0.48l-6.09,0l0,-0.48c0.57,0,0.95,-0.05,1.16,-0.17c0.2,-0.11,0.37,-0.31,0.48,-0.58c0.11,-0.27,0.17,-0.79,0.17,-1.56l0,-11.29c0,-1.4,-0.03,-2.26,-0.09,-2.58c-0.06,-0.32,-0.16,-0.54,-0.3,-0.65c-0.14,-0.11,-0.31,-0.17,-0.53,-0.17c-0.23,0,-0.53,0.07,-0.89,0.21l-0.23,-0.47l3.7,-1.52l0.61,0m29.26,0.89l0,0.5c-0.65,0.11,-1.14,0.32,-1.47,0.62c-0.47,0.44,-0.9,1.12,-1.27,2.03l-6.42,15.66l-0.5,0l-6.89,-15.86c-0.35,-0.81,-0.6,-1.31,-0.74,-1.49c-0.22,-0.28,-0.5,-0.5,-0.83,-0.65c-0.33,-0.15,-0.77,-0.26,-1.33,-0.3l0,-0.5l7.52,0l0,0.5c-0.85,0.08,-1.4,0.22,-1.65,0.43c-0.25,0.2,-0.38,0.47,-0.38,0.8c0,0.45,0.2,1.15,0.62,2.11l4.68,10.79l4.34,-10.65c0.42,-1.04,0.63,-1.77,0.63,-2.18c0,-0.26,-0.13,-0.51,-0.39,-0.75c-0.26,-0.23,-0.7,-0.4,-1.33,-0.5c-0.04,0,-0.12,-0.02,-0.23,-0.04l0,-0.5l5.67,0" fill="#000000" stroke="none" fill-opacity="1"/>
<path d="m746.3,95.29c1.13,0,2.03,0.42,2.72,1.28c0.58,0.73,0.87,1.57,0.87,2.52c0,0.66,-0.16,1.34,-0.48,2.03c-0.32,0.68,-0.76,1.2,-1.32,1.54c-0.56,0.34,-1.18,0.52,-1.87,0.52c-1.12,0,-2.01,-0.44,-2.68,-1.34c-0.55,-0.75,-0.83,-1.6,-0.83,-2.54c0,-0.68,0.16,-1.36,0.5,-2.04c0.33,-0.67,0.78,-1.17,1.34,-1.5c0.55,-0.32,1.14,-0.48,1.76,-0.48m-0.25,0.53c-0.28,0,-0.57,0.08,-0.86,0.25c-0.29,0.17,-0.52,0.47,-0.7,0.9c-0.17,0.42,-0.26,0.98,-0.26,1.65c0,1.08,0.21,2.02,0.64,2.81c0.43,0.78,1,1.18,1.7,1.18c0.52,0,0.96,-0.21,1.3,-0.65c0.34,-0.43,0.51,-1.18,0.51,-2.24c0,-1.32,-0.28,-2.37,-0.85,-3.13c-0.38,-0.52,-0.87,-0.78,-1.47,-0.78m11.49,-0.3l0,4.52c0,0.86,0.02,1.39,0.06,1.58c0.04,0.19,0.1,0.32,0.19,0.4c0.08,0.07,0.19,0.11,0.31,0.11c0.16,0,0.35,-0.04,0.57,-0.13l0.11,0.28l-2.23,0.92l-0.36,0l0,-1.58c-0.64,0.69,-1.13,1.13,-1.46,1.31c-0.33,0.17,-0.69,0.26,-1.06,0.26c-0.41,0,-0.78,-0.12,-1.08,-0.36c-0.3,-0.24,-0.52,-0.55,-0.64,-0.93c-0.11,-0.38,-0.17,-0.91,-0.17,-1.61l0,-3.33c0,-0.35,-0.03,-0.59,-0.11,-0.73c-0.07,-0.13,-0.18,-0.24,-0.33,-0.31c-0.14,-0.07,-0.41,-0.1,-0.81,-0.1l0,-0.3l2.61,0l0,4.99c0,0.69,0.12,1.15,0.36,1.36c0.24,0.21,0.53,0.32,0.87,0.32c0.23,0,0.49,-0.07,0.79,-0.22c0.29,-0.14,0.64,-0.42,1.05,-0.83l0,-4.23c0,-0.42,-0.07,-0.71,-0.23,-0.86c-0.15,-0.14,-0.47,-0.22,-0.96,-0.24l0,-0.3l2.54,0m3.97,-2.45l0,2.45l1.74,0l0,0.57l-1.74,0l0,4.84c0,0.48,0.06,0.81,0.2,0.97c0.13,0.16,0.31,0.25,0.53,0.25c0.17,0,0.35,-0.05,0.52,-0.16c0.16,-0.11,0.29,-0.27,0.39,-0.49l0.31,0c-0.19,0.53,-0.45,0.93,-0.8,1.2c-0.34,0.26,-0.7,0.4,-1.07,0.4c-0.25,0,-0.49,-0.06,-0.73,-0.2c-0.23,-0.13,-0.41,-0.33,-0.53,-0.59c-0.11,-0.25,-0.17,-0.65,-0.17,-1.19l0,-5.02l-1.18,0l0,-0.26c0.29,-0.11,0.6,-0.32,0.91,-0.6c0.31,-0.28,0.59,-0.62,0.83,-1.01c0.12,-0.2,0.29,-0.58,0.52,-1.13l0.25,0" fill="#000000" stroke="none" fill-opacity="1"/>
</g>
<g clip-path="url(#c3)">
<g fill="none" stroke="#4daf4a" stroke-linecap="butt" stroke-width="0.69">
<path d="M609.07,120.77l0,0"/>
</g>
<g fill="none" stroke="#4daf4a" stroke-width="2.08">
<path d="M589.39,120.77l39.37,0"/>
</g>
</g>
<g fill="none" stroke-width="0.1">
<path d="m672.29,111.32l0,6.36l-0.5,0c-0.16,-1.22,-0.45,-2.19,-0.87,-2.91c-0.42,-0.72,-1.02,-1.29,-1.79,-1.72c-0.77,-0.42,-1.58,-0.63,-2.41,-0.63c-0.94,0,-1.71,0.28,-2.33,0.86c-0.61,0.57,-0.92,1.22,-0.92,1.96c0,0.56,0.19,1.07,0.58,1.53c0.56,0.67,1.89,1.58,4,2.71c1.71,0.92,2.89,1.63,3.52,2.12c0.62,0.49,1.11,1.07,1.45,1.74c0.33,0.66,0.5,1.37,0.5,2.1c0,1.39,-0.54,2.59,-1.62,3.6c-1.08,1,-2.47,1.51,-4.17,1.51c-0.53,0,-1.03,-0.04,-1.5,-0.12c-0.28,-0.04,-0.86,-0.21,-1.74,-0.49c-0.88,-0.28,-1.44,-0.42,-1.67,-0.42c-0.22,0,-0.4,0.06,-0.53,0.2c-0.13,0.13,-0.22,0.41,-0.29,0.84l-0.5,0l0,-6.31l0.5,0c0.23,1.32,0.55,2.3,0.95,2.96c0.39,0.65,1,1.2,1.82,1.63c0.81,0.43,1.71,0.65,2.69,0.65c1.13,0,2.02,-0.29,2.68,-0.89c0.65,-0.59,0.98,-1.3,0.98,-2.11c0,-0.45,-0.12,-0.9,-0.37,-1.37c-0.24,-0.46,-0.63,-0.89,-1.16,-1.28c-0.35,-0.27,-1.31,-0.84,-2.89,-1.73c-1.57,-0.88,-2.69,-1.58,-3.35,-2.11c-0.66,-0.52,-1.16,-1.1,-1.51,-1.73c-0.34,-0.63,-0.51,-1.33,-0.51,-2.09c0,-1.32,0.5,-2.45,1.52,-3.41c1.01,-0.95,2.3,-1.43,3.86,-1.43c0.97,0,2.01,0.23,3.1,0.71c0.5,0.22,0.86,0.33,1.07,0.33c0.23,0,0.42,-0.07,0.57,-0.21c0.14,-0.14,0.26,-0.42,0.35,-0.84l0.5,0m6.74,-0.47c0.38,0,0.7,0.13,0.97,0.4c0.26,0.26,0.4,0.59,0.4,0.97c0,0.38,-0.13,0.7,-0.4,0.97c-0.26,0.27,-0.59,0.4,-0.97,0.4c-0.38,0,-0.7,-0.13,-0.97,-0.4c-0.27,-0.27,-0.4,-0.59,-0.4,-0.97c0,-0.38,0.13,-0.7,0.4,-0.97c0.26,-0.26,0.59,-0.4,0.98,-0.4m1.12,6.5l0,9.99c0,0.77,0.05,1.29,0.16,1.55c0.11,0.25,0.28,0.45,0.5,0.57c0.22,0.12,0.62,0.19,1.21,0.19l0,0.48l-6.04,0l0,-0.48c0.6,0,1.01,-0.05,1.22,-0.17c0.2,-0.11,0.37,-0.31,0.49,-0.58c0.12,-0.27,0.18,-0.79,0.18,-1.56l0,-4.79c0,-1.34,-0.04,-2.22,-0.12,-2.61c-0.06,-0.28,-0.16,-0.49,-0.29,-0.6c-0.13,-0.11,-0.32,-0.16,-0.55,-0.16c-0.25,0,-0.56,0.06,-0.92,0.2l-0.19,-0.48l3.74,-1.52l0.59,0m7.12,2.64c0.9,-0.9,1.43,-1.42,1.6,-1.56c0.4,-0.34,0.84,-0.61,1.31,-0.8c0.47,-0.19,0.93,-0.28,1.39,-0.28c0.77,0,1.44,0.22,2,0.67c0.56,0.45,0.93,1.1,1.12,1.96c0.93,-1.08,1.71,-1.79,2.36,-2.13c0.64,-0.33,1.3,-0.5,1.98,-0.5c0.66,0,1.24,0.16,1.75,0.5c0.51,0.33,0.91,0.89,1.21,1.66c0.19,0.52,0.29,1.34,0.29,2.47l0,5.34c0,0.77,0.05,1.31,0.17,1.6c0.09,0.19,0.25,0.36,0.5,0.5c0.24,0.14,0.64,0.21,1.19,0.21l0,0.48l-6.13,0l0,-0.48l0.25,0c0.53,0,0.95,-0.1,1.24,-0.31c0.2,-0.14,0.35,-0.37,0.44,-0.69c0.03,-0.15,0.05,-0.59,0.05,-1.31l0,-5.34c0,-1.01,-0.12,-1.72,-0.36,-2.14c-0.35,-0.57,-0.91,-0.86,-1.69,-0.86c-0.47,0,-0.96,0.11,-1.44,0.35c-0.48,0.23,-1.07,0.68,-1.75,1.33l-0.02,0.14l0.02,0.58l0,5.93c0,0.85,0.04,1.38,0.14,1.58c0.09,0.2,0.27,0.38,0.53,0.52c0.26,0.14,0.71,0.21,1.34,0.21l0,0.48l-6.28,0l0,-0.48c0.68,0,1.16,-0.08,1.41,-0.24c0.25,-0.16,0.43,-0.4,0.53,-0.73c0.04,-0.15,0.06,-0.6,0.06,-1.34l0,-5.34c0,-1.01,-0.14,-1.74,-0.44,-2.18c-0.39,-0.57,-0.95,-0.86,-1.66,-0.86c-0.48,0,-0.97,0.13,-1.45,0.39c-0.75,0.39,-1.33,0.84,-1.73,1.34l0,6.66c0,0.81,0.05,1.34,0.16,1.58c0.11,0.24,0.28,0.42,0.5,0.54c0.22,0.12,0.67,0.18,1.35,0.18l0,0.48l-6.14,0l0,-0.48c0.57,0,0.96,-0.06,1.19,-0.18c0.22,-0.12,0.39,-0.31,0.51,-0.58c0.11,-0.26,0.17,-0.78,0.17,-1.55l0,-4.75c0,-1.36,-0.04,-2.24,-0.12,-2.64c-0.06,-0.29,-0.16,-0.5,-0.29,-0.61c-0.13,-0.11,-0.32,-0.16,-0.55,-0.16c-0.25,0,-0.55,0.06,-0.9,0.2l-0.2,-0.48l3.74,-1.52l0.58,0l0,2.64m28.83,-2.28l0,7.53c0,1.43,0.03,2.31,0.1,2.64c0.06,0.32,0.17,0.54,0.32,0.67c0.14,0.12,0.32,0.19,0.52,0.19c0.28,0,0.59,-0.07,0.95,-0.23l0.19,0.47l-3.71,1.53l-0.61,0l0,-2.63c-1.06,1.15,-1.88,1.88,-2.44,2.18c-0.56,0.29,-1.15,0.44,-1.77,0.44c-0.69,0,-1.3,-0.2,-1.81,-0.6c-0.51,-0.4,-0.86,-0.92,-1.06,-1.55c-0.19,-0.63,-0.29,-1.52,-0.29,-2.68l0,-5.55c0,-0.58,-0.06,-0.99,-0.19,-1.22c-0.12,-0.22,-0.31,-0.4,-0.56,-0.52c-0.24,-0.12,-0.69,-0.17,-1.35,-0.16l0,-0.5l4.35,0l0,8.32c0,1.15,0.2,1.91,0.6,2.28c0.4,0.36,0.88,0.54,1.45,0.54c0.38,0,0.83,-0.12,1.32,-0.36c0.49,-0.24,1.07,-0.71,1.75,-1.39l0,-7.04c0,-0.7,-0.12,-1.18,-0.38,-1.43c-0.25,-0.24,-0.79,-0.38,-1.6,-0.4l0,-0.5l4.23,0m7.27,-6.86l0,16.49c0,0.77,0.05,1.29,0.16,1.54c0.11,0.25,0.28,0.44,0.52,0.57c0.23,0.13,0.67,0.19,1.31,0.19l0,0.48l-6.09,0l0,-0.48c0.57,0,0.95,-0.05,1.16,-0.17c0.2,-0.11,0.37,-0.31,0.48,-0.58c0.11,-0.27,0.17,-0.79,0.17,-1.56l0,-11.29c0,-1.4,-0.03,-2.26,-0.09,-2.58c-0.06,-0.32,-0.16,-0.54,-0.3,-0.65c-0.14,-0.11,-0.31,-0.17,-0.53,-0.17c-0.23,0,-0.53,0.07,-0.89,0.21l-0.23,-0.47l3.7,-1.52l0.61,0m10.49,17.51c-1.27,0.98,-2.07,1.55,-2.4,1.71c-0.48,0.22,-1,0.33,-1.56,0.33c-0.85,0,-1.56,-0.29,-2.12,-0.88c-0.55,-0.58,-0.83,-1.36,-0.83,-2.32c0,-0.6,0.13,-1.13,0.4,-1.57c0.37,-0.61,1.01,-1.19,1.93,-1.73c0.91,-0.54,2.44,-1.2,4.58,-1.98l0,-0.48c0,-1.23,-0.19,-2.09,-0.59,-2.55c-0.39,-0.46,-0.96,-0.69,-1.71,-0.69c-0.57,0,-1.02,0.15,-1.35,0.46c-0.34,0.3,-0.51,0.66,-0.51,1.05l0.02,0.78c0,0.41,-0.1,0.73,-0.31,0.96c-0.21,0.22,-0.49,0.33,-0.83,0.33c-0.33,0,-0.6,-0.11,-0.82,-0.35c-0.21,-0.23,-0.31,-0.55,-0.31,-0.96c0,-0.77,0.39,-1.49,1.19,-2.14c0.79,-0.65,1.91,-0.97,3.35,-0.97c1.1,0,2,0.18,2.71,0.55c0.53,0.28,0.92,0.71,1.18,1.31c0.16,0.38,0.24,1.18,0.24,2.38l0,4.22c0,1.18,0.02,1.91,0.06,2.17c0.04,0.26,0.11,0.44,0.22,0.53c0.1,0.09,0.22,0.13,0.35,0.13c0.14,0,0.27,-0.03,0.38,-0.09c0.19,-0.11,0.55,-0.44,1.09,-0.99l0,0.76c-1.01,1.35,-1.98,2.03,-2.9,2.03c-0.44,0,-0.79,-0.15,-1.05,-0.46c-0.26,-0.3,-0.39,-0.83,-0.4,-1.57m0,-0.88l0,-4.73c-1.36,0.54,-2.24,0.92,-2.64,1.15c-0.71,0.39,-1.22,0.81,-1.53,1.24c-0.3,0.43,-0.46,0.9,-0.46,1.42c0,0.65,0.19,1.19,0.58,1.62c0.38,0.42,0.83,0.64,1.34,0.64c0.68,0,1.59,-0.45,2.71,-1.35m8.9,-13.84l0,4.08l2.9,0l0,0.95l-2.9,0l0,8.06c0,0.8,0.11,1.34,0.34,1.62c0.23,0.28,0.52,0.42,0.88,0.42c0.29,0,0.58,-0.09,0.86,-0.27c0.28,-0.18,0.49,-0.45,0.65,-0.82l0.52,0c-0.31,0.88,-0.76,1.55,-1.34,2c-0.57,0.44,-1.17,0.67,-1.79,0.67c-0.41,0,-0.82,-0.11,-1.22,-0.34c-0.39,-0.23,-0.69,-0.56,-0.88,-0.99c-0.19,-0.42,-0.28,-1.09,-0.28,-1.98l0,-8.36l-1.96,0l0,-0.44c0.49,-0.19,1,-0.53,1.52,-1.01c0.52,-0.47,0.98,-1.03,1.39,-1.69c0.2,-0.34,0.49,-0.97,0.86,-1.88l0.42,0m7.27,-2.78c0.38,0,0.7,0.13,0.97,0.4c0.26,0.26,0.4,0.59,0.4,0.97c0,0.38,-0.13,0.7,-0.4,0.97c-0.26,0.27,-0.59,0.4,-0.97,0.4c-0.38,0,-0.7,-0.13,-0.97,-0.4c-0.27,-0.27,-0.4,-0.59,-0.4,-0.97c0,-0.38,0.13,-0.7,0.4,-0.97c0.26,-0.26,0.59,-0.4,0.98,-0.4m1.12,6.5l0,9.99c0,0.77,0.05,1.29,0.16,1.55c0.11,0.25,0.28,0.45,0.5,0.57c0.22,0.12,0.62,0.19,1.21,0.19l0,0.48l-6.04,0l0,-0.48c0.6,0,1.01,-0.05,1.22,-0.17c0.2,-0.11,0.37,-0.31,0.49,-0.58c0.12,-0.27,0.18,-0.79,0.18,-1.56l0,-4.79c0,-1.34,-0.04,-2.22,-0.12,-2.61c-0.06,-0.28,-0.16,-0.49,-0.29,-0.6c-0.13,-0.11,-0.32,-0.16,-0.55,-0.16c-0.25,0,-0.56,0.06,-0.92,0.2l-0.19,-0.48l3.74,-1.52l0.59,0m9.51,0c1.88,0,3.39,0.71,4.53,2.14c0.96,1.22,1.45,2.62,1.45,4.2c0,1.11,-0.26,2.23,-0.8,3.38c-0.53,1.14,-1.26,1.99,-2.2,2.57c-0.93,0.57,-1.97,0.86,-3.12,0.86c-1.87,0,-3.36,-0.74,-4.46,-2.23c-0.93,-1.25,-1.39,-2.66,-1.39,-4.23c0,-1.14,0.28,-2.27,0.84,-3.4c0.56,-1.12,1.3,-1.95,2.23,-2.49c0.92,-0.53,1.9,-0.8,2.93,-0.8m-0.42,0.88c-0.47,0,-0.96,0.14,-1.44,0.42c-0.48,0.28,-0.87,0.78,-1.17,1.5c-0.29,0.71,-0.44,1.63,-0.44,2.75c0,1.8,0.35,3.37,1.07,4.68c0.71,1.31,1.66,1.96,2.84,1.96c0.87,0,1.6,-0.36,2.17,-1.08c0.57,-0.72,0.85,-1.96,0.85,-3.73c0,-2.2,-0.47,-3.94,-1.42,-5.21c-0.64,-0.86,-1.46,-1.3,-2.45,-1.3m11.86,1.75c1.45,-1.75,2.84,-2.63,4.16,-2.63c0.67,0,1.26,0.16,1.75,0.5c0.48,0.33,0.87,0.89,1.16,1.67c0.19,0.54,0.29,1.37,0.29,2.49l0,5.3c0,0.78,0.06,1.32,0.19,1.6c0.09,0.22,0.26,0.4,0.48,0.52c0.22,0.12,0.63,0.19,1.22,0.19l0,0.48l-6.14,0l0,-0.48l0.25,0c0.57,0,0.98,-0.08,1.21,-0.26c0.23,-0.17,0.39,-0.43,0.48,-0.78c0.03,-0.13,0.05,-0.56,0.05,-1.27l0,-5.09c0,-1.13,-0.14,-1.95,-0.44,-2.46c-0.29,-0.51,-0.78,-0.76,-1.48,-0.76c-1.07,0,-2.14,0.58,-3.21,1.76l0,6.55c0,0.84,0.04,1.36,0.14,1.56c0.12,0.26,0.3,0.45,0.52,0.57c0.22,0.12,0.67,0.18,1.35,0.18l0,0.48l-6.14,0l0,-0.48l0.27,0c0.63,0,1.06,-0.16,1.28,-0.48c0.22,-0.32,0.33,-0.93,0.33,-1.83l0,-4.61c0,-1.49,-0.03,-2.4,-0.1,-2.72c-0.06,-0.32,-0.17,-0.54,-0.31,-0.66c-0.14,-0.11,-0.32,-0.17,-0.56,-0.17c-0.25,0,-0.55,0.06,-0.9,0.2l-0.2,-0.48l3.74,-1.52l0.58,0l0,2.63m36.09,-8.23l0,0.5c-0.65,0.11,-1.14,0.32,-1.47,0.62c-0.47,0.44,-0.9,1.12,-1.27,2.03l-6.42,15.66l-0.5,0l-6.89,-15.86c-0.35,-0.81,-0.6,-1.31,-0.74,-1.49c-0.22,-0.28,-0.5,-0.5,-0.83,-0.65c-0.33,-0.15,-0.77,-0.26,-1.33,-0.3l0,-0.5l7.52,0l0,0.5c-0.85,0.08,-1.4,0.22,-1.65,0.43c-0.25,0.2,-0.38,0.47,-0.38,0.8c0,0.45,0.2,1.15,0.62,2.11l4.68,10.79l4.34,-10.65c0.42,-1.04,0.63,-1.77,0.63,-2.18c0,-0.26,-0.13,-0.51,-0.39,-0.75c-0.26,-0.23,-0.7,-0.4,-1.33,-0.5c-0.04,0,-0.12,-0.02,-0.23,-0.04l0,-0.5l5.67,0" fill="#000000" stroke="none" fill-opacity="1"/>
<path d="m812.76,126.07c1.13,0,2.03,0.42,2.72,1.28c0.58,0.73,0.87,1.57,0.87,2.52c0,0.66,-0.16,1.34,-0.48,2.03c-0.32,0.68,-0.76,1.2,-1.32,1.54c-0.56,0.34,-1.18,0.52,-1.87,0.52c-1.12,0,-2.01,-0.44,-2.68,-1.34c-0.55,-0.75,-0.83,-1.6,-0.83,-2.54c0,-0.68,0.16,-1.36,0.5,-2.04c0.33,-0.67,0.78,-1.17,1.34,-1.5c0.55,-0.32,1.14,-0.48,1.76,-0.48m-0.25,0.53c-0.28,0,-0.57,0.08,-0.86,0.25c-0.29,0.17,-0.52,0.47,-0.7,0.9c-0.17,0.42,-0.26,0.98,-0.26,1.65c0,1.08,0.21,2.02,0.64,2.81c0.43,0.78,1,1.18,1.7,1.18c0.52,0,0.96,-0.21,1.3,-0.65c0.34,-0.43,0.51,-1.18,0.51,-2.24c0,-1.32,-0.28,-2.37,-0.85,-3.13c-0.38,-0.52,-0.87,-0.78,-1.47,-0.78m11.49,-0.3l0,4.52c0,0.86,0.02,1.39,0.06,1.58c0.04,0.19,0.1,0.32,0.19,0.4c0.08,0.07,0.19,0.11,0.31,0.11c0.16,0,0.35,-0.04,0.57,-0.13l0.11,0.28l-2.23,0.92l-0.36,0l0,-1.58c-0.64,0.69,-1.13,1.13,-1.46,1.31c-0.33,0.17,-0.69,0.26,-1.06,0.26c-0.41,0,-0.78,-0.12,-1.08,-0.36c-0.3,-0.24,-0.52,-0.55,-0.64,-0.93c-0.11,-0.38,-0.17,-0.91,-0.17,-1.61l0,-3.33c0,-0.35,-0.03,-0.59,-0.11,-0.73c-0.07,-0.13,-0.18,-0.24,-0.33,-0.31c-0.14,-0.07,-0.41,-0.1,-0.81,-0.1l0,-0.3l2.61,0l0,4.99c0,0.69,0.12,1.15,0.36,1.36c0.24,0.21,0.53,0.32,0.87,0.32c0.23,0,0.49,-0.07,0.79,-0.22c0.29,-0.14,0.64,-0.42,1.05,-0.83l0,-4.23c0,-0.42,-0.07,-0.71,-0.23,-0.86c-0.15,-0.14,-0.47,-0.22,-0.96,-0.24l0,-0.3l2.54,0m3.97,-2.45l0,2.45l1.74,0l0,0.57l-1.74,0l0,4.84c0,0.48,0.06,0.81,0.2,0.97c0.13,0.16,0.31,0.25,0.53,0.25c0.17,0,0.35,-0.05,0.52,-0.16c0.16,-0.11,0.29,-0.27,0.39,-0.49l0.31,0c-0.19,0.53,-0.45,0.93,-0.8,1.2c-0.34,0.26,-0.7,0.4,-1.07,0.4c-0.25,0,-0.49,-0.06,-0.73,-0.2c-0.23,-0.13,-0.41,-0.33,-0.53,-0.59c-0.11,-0.25,-0.17,-0.65,-0.17,-1.19l0,-5.02l-1.18,0l0,-0.26c0.29,-0.11,0.6,-0.32,0.91,-0.6c0.31,-0.28,0.59,-0.62,0.83,-1.01c0.12,-0.2,0.29,-0.58,0.52,-1.13l0.25,0" fill="#000000" stroke="none" fill-opacity="1"/>
</g>
<g clip-path="url(#c4)">
<g fill="none" stroke="#4daf4a" stroke-width="2.08">
<polyline fill="none" points="66.92,463.7 71.47,463.7 71.48,463.7 71.48,463.7 71.5,463.7 71.53,463.7 71.6,463.7 71.73,463.7 71.9,463.7 72.09,463.7 72.19,463.7 72.2,463.7 72.22,463.7 72.25,463.7 72.3,463.7 72.38,463.69 72.39,463.69 72.4,463.69 72.43,463.69 72.49,463.69 72.62,463.7 72.86,463.71 73.13,463.74 73.42,463.8 73.71,463.89 74.05,464.01 74.43,464.11 74.86,464.07 75.29,463.69 75.87,462.14 76.76,457.29 77.65,449.16 78.54,437.58 79.42,423.22 80.31,407.01 81.2,389.85 82.09,372.37 82.98,354.94 83.86,337.75 84.75,320.9 85.64,304.49 86.53,288.62 87.42,273.37 88.31,258.81 89.19,245 90.08,231.95 90.97,219.66 91.86,208.13 92.75,197.33 93.63,187.24 94.52,177.83 95.41,169.09 96.3,160.96 97.19,153.43 98.08,146.46 98.96,140.01 99.85,134.05 100.74,128.55 101.63,123.49 102.52,118.82 103.4,114.52 104.29,110.57 105.18,106.94 106.07,103.61 106.96,100.54 107.84,97.74 108.73,95.16 109.62,92.8 110.51,90.63 111.4,88.65 112.29,86.83 113.17,85.17 114.06,83.65 114.95,82.26 115.84,80.99 116.73,79.82 117.61,78.76 118.5,77.78 119.39,76.9 120.28,76.08 121.17,75.34 122.05,74.66 122.94,74.04 123.83,73.48 124.72,72.96 125.61,72.49 126.5,72.06 127.38,71.66 128.27,71.3 129.16,70.98 130.05,70.68 130.94,70.4 131.82,70.16 132.71,69.93 133.6,69.72 134.49,69.53 135.38,69.36 136.26,69.2 137.15,69.06 138.04,68.93 138.93,68.81 139.82,68.7 140.71,68.6 141.59,68.51 142.48,68.42 143.37,68.35 144.26,68.28 145.15,68.22 146.03,68.16 146.92,68.11 147.81,68.06 148.7,68.02 150.47,67.94 152.25,67.88 154.03,67.82 155.8,67.78 157.58,67.74 159.36,67.71 161.13,67.69 163.8,67.66 166.46,67.64 169.13,67.62 171.28,67.61 173.44,67.6 175.6,67.59 177.75,67.59 179.91,67.58 182.07,67.58 184.22,67.58 188.41,67.57 192.6,67.57 196.78,67.57 200.97,67.57 205.16,67.57 209.35,67.57 213.53,67.57 527.11,67.57 527.13,67.57 527.16,67.57 527.24,67.57 527.4,67.57 527.72,67.57 528.01,67.57 528.04,67.57 528.1,67.57 528.22,67.57 528.46,67.55 528.93,67.48 529.82,67.38 530.71,67.84 531.6,69.91 532.49,74.75 533.38,83.09 534.26,94.91 535.15,109.5 536.04,125.89 536.93,143.16 537.82,160.69 538.7,178.12 539.59,195.29 540.48,212.09 541.37,228.45 542.26,244.26 543.14,259.45 544.03,273.93 544.92,287.67 545.81,300.65 546.7,312.85 547.59,324.31 548.47,335.04 549.36,345.05 550.25,354.39 551.14,363.07 552.03,371.13 552.91,378.6 553.8,385.52 554.69,391.91 555.58,397.82 556.47,403.27 557.35,408.29 558.24,412.92 559.13,417.18 560.02,421.09 560.91,424.69 561.8,428 562.68,431.03 563.57,433.82 564.46,436.37 565.35,438.71 566.24,440.85 567.12,442.82 568.01,444.62 568.9,446.26 569.79,447.77 570.68,449.15 571.56,450.41 572.45,451.56 573.34,452.62 574.23,453.58 575.12,454.46 576.01,455.27 576.89,456 577.78,456.67 578.67,457.29 579.56,457.85 580.45,458.36 581.33,458.83 582.22,459.25 583.11,459.64 584,460 584.89,460.32 585.77,460.62 586.66,460.89 587.55,461.14 588.44,461.36 589.33,461.57 590.22,461.76 591.1,461.93 591.99,462.08 592.88,462.23 593.77,462.36 594.66,462.47 595.54,462.58 596.43,462.68 597.32,462.77 598.21,462.85 599.1,462.93 599.98,463 600.87,463.06 601.76,463.11 602.65,463.17 603.54,463.21 604.43,463.26 605.31,463.3 606.2,463.33 607.09,463.36 608.87,463.42 610.64,463.47 612.42,463.51 614.2,463.54 615.97,463.57 618.64,463.6 621.3,463.62 623.96,463.64 625.99,463.65 628.03,463.66 630.05,463.67 632.08,463.68 634.11,463.68 636.14,463.69 638.17,463.69 642.11,463.69 646.04,463.7 649.97,463.7 653.91,463.7 657.84,463.7 661.77,463.7 665.71,463.7 924.15,463.7 975.67,463.7 976.37,463.7"/>
</g>
<g fill="none" stroke="#377eb8" stroke-dasharray="8.33,8.33" stroke-width="2.08">
<polyline fill="none" points="66.92,463.11 71.47,463.11 71.48,463.11 71.48,463.11 71.5,463.11 71.53,463.11 71.6,463.11 71.73,463.11 71.9,463.1 72.09,463.08 72.19,463.07 72.2,463.06 72.22,463.06 72.25,463.05 72.3,463.03 72.38,463.01 72.39,463 72.4,463 72.43,462.98 72.49,462.95 72.62,462.85 72.86,462.58 73.13,462.13 73.42,461.43 73.71,460.49 74.05,459.02 74.43,456.94 74.86,453.98 75.29,450.47 75.87,444.61 76.76,434 77.65,421.7 78.54,407.91 79.42,393.02 80.31,377.41 81.2,361.39 82.09,345.24 82.98,329.2 83.86,313.43 84.75,298.08 85.64,283.26 86.53,269.05 87.42,255.5 88.31,242.65 89.19,230.51 90.08,219.09 90.97,208.37 91.86,198.36 92.75,189.01 93.63,180.32 94.52,172.25 95.41,164.77 96.3,157.86 97.19,151.47 98.08,145.58 98.96,140.15 99.85,135.16 100.74,130.57 101.63,126.36 102.52,122.5 103.4,118.96 104.29,115.72 105.18,112.76 106.07,110.05 106.96,107.57 107.84,105.31 108.73,103.24 109.62,101.36 110.51,99.64 111.4,98.08 112.29,96.65 113.17,95.35 114.06,94.17 114.95,93.09 115.84,92.11 116.73,91.22 117.61,90.41 118.5,89.68 119.39,89.01 120.28,88.4 121.17,87.85 122.05,87.35 122.94,86.89 123.83,86.48 124.72,86.1 125.61,85.76 126.5,85.45 127.38,85.17 128.27,84.92 129.16,84.69 130.05,84.48 130.94,84.29 131.82,84.12 132.71,83.96 133.6,83.82 134.49,83.69 135.38,83.57 136.26,83.47 137.15,83.37 138.04,83.29 138.93,83.21 139.82,83.14 140.71,83.07 141.59,83.01 142.48,82.96 143.37,82.91 144.26,82.87 145.15,82.83 146.03,82.8 146.92,82.76 147.81,82.73 148.7,82.71 150.47,82.66 152.25,82.62 154.03,82.59 155.8,82.57 157.58,82.55 159.36,82.53 161.13,82.52 163.8,82.5 166.46,82.49 169.13,82.48 171.28,82.47 173.44,82.47 175.6,82.47 177.75,82.46 179.91,82.46 182.07,82.46 184.22,82.46 188.41,82.46 192.6,82.46 196.78,82.46 200.97,82.45 205.16,82.45 209.35,82.45 213.53,82.45 527.11,82.45 527.13,82.45 527.16,82.45 527.24,82.45 527.4,82.46 527.72,82.5 528.01,82.57 528.04,82.58 528.1,82.61 528.22,82.7 528.46,82.99 528.93,84.09 529.82,87.8 530.71,93.72 531.6,102.1 532.49,112.71 533.38,125.18 534.26,139.11 535.15,154.09 536.04,169.77 536.93,185.82 537.82,201.97 538.7,218.01 539.59,233.74 540.48,249.04 541.37,263.81 542.26,277.95 543.14,291.43 544.03,304.21 544.92,316.28 545.81,327.63 546.7,338.27 547.59,348.22 548.47,357.49 549.36,366.12 550.25,374.13 551.14,381.54 552.03,388.4 552.91,394.74 553.8,400.58 554.69,405.96 555.58,410.9 556.47,415.45 557.35,419.62 558.24,423.45 559.13,426.96 560.02,430.17 560.91,433.1 561.8,435.79 562.68,438.24 563.57,440.48 564.46,442.53 565.35,444.39 566.24,446.09 567.12,447.64 568.01,449.06 568.9,450.34 569.79,451.51 570.68,452.58 571.56,453.55 572.45,454.43 573.34,455.23 574.23,455.96 575.12,456.62 576.01,457.22 576.89,457.77 577.78,458.27 578.67,458.72 579.56,459.13 580.45,459.5 581.33,459.83 582.22,460.14 583.11,460.42 584,460.67 584.89,460.9 585.77,461.11 586.66,461.29 587.55,461.46 588.44,461.62 589.33,461.76 590.22,461.88 591.1,462 591.99,462.1 592.88,462.2 593.77,462.28 594.66,462.36 595.54,462.43 596.43,462.5 597.32,462.55 598.21,462.61 599.1,462.65 599.98,462.7 600.87,462.73 601.76,462.77 602.65,462.8 603.54,462.83 604.43,462.86 605.31,462.88 606.2,462.9 607.09,462.92 608.87,462.96 610.64,462.98 612.42,463.01 614.2,463.02 615.97,463.04 618.64,463.06 621.3,463.07 623.96,463.08 625.99,463.08 628.03,463.09 630.05,463.09 632.08,463.1 634.11,463.1 636.14,463.1 638.17,463.1 642.11,463.1 646.04,463.11 649.97,463.11 653.91,463.11 657.84,463.11 661.77,463.11 665.71,463.11 924.15,463.11 975.67,463.11 976.37,463.11"/>
</g>
<g fill="none" stroke="#e41a1c" stroke-dasharray="16.66,8.33,4.16,8.33" stroke-width="2.08">
<polyline fill="none" points="66.92,464.11 71.47,464.11 71.48,462.3 71.48,458.69 71.5,451.47 71.53,437.03 71.6,408.14 71.73,353.33 71.9,278.13 72.09,192.92 72.19,151.34 72.2,145.69 72.22,139.24 72.25,126.33 72.3,100.51 72.38,67.38 72.39,67.38 72.4,67.38 72.43,67.38 72.49,67.38 72.62,67.38 72.86,67.38 73.13,67.38 73.42,67.38 73.71,67.38 74.05,67.38 74.43,67.38 74.86,67.38 75.29,67.38 75.87,67.38 76.76,67.38 77.65,67.38 78.54,67.38 79.42,67.38 80.31,67.38 81.2,67.38 82.09,67.38 82.98,67.38 83.86,67.38 84.75,67.38 85.64,67.38 86.53,67.38 87.42,67.38 88.31,67.38 89.19,67.38 90.08,67.38 90.97,67.38 91.86,67.38 92.75,67.38 93.63,67.38 94.52,67.38 95.41,67.38 96.3,67.38 97.19,67.38 98.08,67.38 98.96,67.38 99.85,67.38 100.74,67.38 101.63,67.38 102.52,67.38 103.4,67.38 104.29,67.38 105.18,67.38 106.07,67.38 106.96,67.38 107.84,67.38 108.73,67.38 109.62,67.38 110.51,67.38 111.4,67.38 112.29,67.38 113.17,67.38 114.06,67.38 114.95,67.38 115.84,67.38 116.73,67.38 117.61,67.38 118.5,67.38 119.39,67.38 120.28,67.38 121.17,67.38 122.05,67.38 122.94,67.38 123.83,67.38 124.72,67.38 125.61,67.38 126.5,67.38 127.38,67.38 128.27,67.38 129.16,67.38 130.05,67.38 130.94,67.38 131.82,67.38 132.71,67.38 133.6,67.38 134.49,67.38 135.38,67.38 136.26,67.38 137.15,67.38 138.04,67.38 138.93,67.38 139.82,67.38 140.71,67.38 141.59,67.38 142.48,67.38 143.37,67.38 144.26,67.38 145.15,67.38 146.03,67.38 146.92,67.38 147.81,67.38 148.7,67.38 150.47,67.38 152.25,67.38 154.03,67.38 155.8,67.38 157.58,67.38 159.36,67.38 161.13,67.38 163.8,67.38 166.46,67.38 169.13,67.38 171.28,67.38 173.44,67.38 175.6,67.38 177.75,67.38 179.91,67.38 182.07,67.38 184.22,67.38 188.41,67.38 192.6,67.38 196.78,67.38 200.97,67.38 205.16,67.38 209.35,67.38 213.53,67.38 527.11,67.38 527.13,76 527.16,93.25 527.24,127.74 527.4,196.73 527.72,334.71 528.01,464.11 528.04,464.11 528.1,464.11 528.22,464.11 528.46,464.11 528.93,464.11 529.82,464.11 530.71,464.11 531.6,464.11 532.49,464.11 533.38,464.11 534.26,464.11 535.15,464.11 536.04,464.11 536.93,464.11 537.82,464.11 538.7,464.11 539.59,464.11 540.48,464.11 541.37,464.11 542.26,464.11 543.14,464.11 544.03,464.11 544.92,464.11 545.81,464.11 546.7,464.11 547.59,464.11 548.47,464.11 549.36,464.11 550.25,464.11 551.14,464.11 552.03,464.11 552.91,464.11 553.8,464.11 554.69,464.11 555.58,464.11 556.47,464.11 557.35,464.11 558.24,464.11 559.13,464.11 560.02,464.11 560.91,464.11 561.8,464.11 562.68,464.11 563.57,464.11 564.46,464.11 565.35,464.11 566.24,464.11 567.12,464.11 568.01,464.11 568.9,464.11 569.79,464.11 570.68,464.11 571.56,464.11 572.45,464.11 573.34,464.11 574.23,464.11 575.12,464.11 576.01,464.11 576.89,464.11 577.78,464.11 578.67,464.11 579.56,464.11 580.45,464.11 581.33,464.11 582.22,464.11 583.11,464.11 584,464.11 584.89,464.11 585.77,464.11 586.66,464.11 587.55,464.11 588.44,464.11 589.33,464.11 590.22,464.11 591.1,464.11 591.99,464.11 592.88,464.11 593.77,464.11 594.66,464.11 595.54,464.11 596.43,464.11 597.32,464.11 598.21,464.11 599.1,464.11 599.98,464.11 600.87,464.11 601.76,464.11 602.65,464.11 603.54,464.11 604.43,464.11 605.31,464.11 606.2,464.11 607.09,464.11 608.87,464.11 610.64,464.11 612.42,464.11 614.2,464.11 615.97,464.11 618.64,464.11 621.3,464.11 623.96,464.11 625.99,464.11 628.03,464.11 630.05,464.11 632.08,464.11 634.11,464.11 636.14,464.11 638.17,464.11 642.11,464.11 646.04,464.11 649.97,464.11 653.91,464.11 657.84,464.11 661.77,464.11 665.71,464.11 924.15,464.11 975.67,464.11 976.37,464.11"/>
</g>
</g>
<g clip-path="url(#c0)">
<g fill="none" stroke-linecap="butt" stroke-width="0.69">
<path d="M876.33,523.62l0,-515.74"/>
<path d="M876.33,503.78l-4.16,0M876.33,483.94l-4.16,0M876.33,464.11l-4.16,0M876.33,444.27l-4.16,0M876.33,424.43l-4.16,0M876.33,404.6l-4.16,0M876.33,384.76l-4.16,0M876.33,364.93l-4.16,0M876.33,345.09l-4.16,0M876.33,325.25l-4.16,0M876.33,305.42l-4.16,0M876.33,285.58l-4.16,0M876.33,265.74l-4.16,0M876.33,245.91l-4.16,0M876.33,226.07l-4.16,0M876.33,206.23l-4.16,0M876.33,186.4l-4.16,0M876.33,166.56l-4.16,0M876.33,146.72l-4.16,0M876.33,126.89l-4.16,0M876.33,107.05l-4.16,0M876.33,87.21l-4.16,0M876.33,67.38l-4.16,0M876.33,47.54l-4.16,0M876.33,27.71l-4.16,0"/>
<path d="M876.33,464.11l-8.33,0M876.33,384.76l-8.33,0M876.33,305.42l-8.33,0M876.33,226.07l-8.33,0M876.33,146.72l-8.33,0M876.33,67.38l-8.33,0"/>
</g>
<g fill="none" stroke-width="0.1">
<g transform="matrix(0 1 -1 0 952.56 182.76)">
<path d="m18.55,-18.82l0,6.37l-0.52,0c-0.39,-1.66,-1.14,-2.94,-2.22,-3.82c-1.08,-0.88,-2.31,-1.33,-3.69,-1.33c-1.14,0,-2.2,0.33,-3.16,0.99c-0.95,0.66,-1.66,1.52,-2.1,2.59c-0.57,1.36,-0.85,2.88,-0.85,4.56c0,1.64,0.2,3.14,0.62,4.49c0.41,1.35,1.06,2.37,1.95,3.06c0.88,0.69,2.03,1.03,3.44,1.03c1.15,0,2.21,-0.25,3.18,-0.76c0.96,-0.5,1.97,-1.38,3.04,-2.61l0,1.58c-1.03,1.07,-2.1,1.85,-3.22,2.34c-1.11,0.48,-2.42,0.72,-3.91,0.72c-1.96,0,-3.7,-0.39,-5.23,-1.18c-1.52,-0.78,-2.7,-1.91,-3.52,-3.39c-0.82,-1.47,-1.24,-3.04,-1.24,-4.71c0,-1.75,0.45,-3.42,1.37,-4.99c0.91,-1.57,2.15,-2.79,3.71,-3.66c1.56,-0.86,3.21,-1.3,4.97,-1.3c1.29,0,2.66,0.28,4.09,0.84c0.83,0.32,1.36,0.48,1.58,0.48c0.28,0,0.54,-0.1,0.75,-0.31c0.21,-0.21,0.35,-0.54,0.41,-1.01l0.52,0m14.71,6.13l0,9.93c0,0.96,0.09,1.57,0.27,1.81c0.18,0.23,0.54,0.39,1.09,0.45l0,0.48l-5.17,0l0,-1.69c-0.6,0.72,-1.21,1.25,-1.81,1.58c-0.6,0.33,-1.28,0.49,-2.03,0.49c-0.71,0,-1.35,-0.21,-1.9,-0.65c-0.55,-0.43,-0.92,-0.95,-1.11,-1.54c-0.19,-0.58,-0.28,-1.61,-0.28,-3.08l0,-5.03c0,-0.95,-0.08,-1.55,-0.26,-1.79c-0.17,-0.23,-0.54,-0.38,-1.1,-0.46l0,-0.5l5.17,0l0,8.67c0,0.9,0.04,1.48,0.12,1.75c0.08,0.26,0.22,0.46,0.4,0.59c0.18,0.13,0.4,0.2,0.64,0.2c0.32,0,0.61,-0.08,0.88,-0.25c0.36,-0.23,0.79,-0.71,1.3,-1.42l0,-6.78c0,-0.95,-0.08,-1.55,-0.26,-1.79c-0.17,-0.23,-0.54,-0.38,-1.1,-0.46l0,-0.5l5.17,0m8.47,0l0,2.87c0.84,-1.31,1.57,-2.18,2.21,-2.61c0.63,-0.42,1.24,-0.64,1.83,-0.64c0.5,0,0.91,0.15,1.21,0.46c0.3,0.31,0.45,0.75,0.45,1.32c0,0.6,-0.14,1.07,-0.44,1.41c-0.29,0.33,-0.64,0.5,-1.06,0.5c-0.47,0,-0.89,-0.15,-1.24,-0.46c-0.35,-0.3,-0.56,-0.47,-0.62,-0.51c-0.09,-0.05,-0.19,-0.08,-0.31,-0.08c-0.26,0,-0.51,0.09,-0.74,0.29c-0.37,0.3,-0.65,0.74,-0.84,1.31c-0.28,0.87,-0.43,1.84,-0.43,2.9l0,2.91l0.01,0.76c0,0.51,0.03,0.84,0.09,0.99c0.1,0.24,0.26,0.42,0.48,0.53c0.21,0.11,0.57,0.18,1.07,0.21l0,0.48l-6.85,0l0,-0.48c0.55,-0.04,0.92,-0.19,1.11,-0.45c0.19,-0.25,0.29,-0.93,0.29,-2.04l0,-7.01c0,-0.72,-0.03,-1.18,-0.1,-1.38c-0.09,-0.25,-0.22,-0.43,-0.39,-0.55c-0.17,-0.11,-0.47,-0.19,-0.9,-0.24l0,-0.5l5.18,0m12.33,0l0,2.87c0.84,-1.31,1.57,-2.18,2.21,-2.61c0.63,-0.42,1.24,-0.64,1.83,-0.64c0.5,0,0.91,0.15,1.21,0.46c0.3,0.31,0.45,0.75,0.45,1.32c0,0.6,-0.14,1.07,-0.44,1.41c-0.29,0.33,-0.64,0.5,-1.06,0.5c-0.47,0,-0.89,-0.15,-1.24,-0.46c-0.35,-0.3,-0.56,-0.47,-0.62,-0.51c-0.09,-0.05,-0.19,-0.08,-0.31,-0.08c-0.26,0,-0.51,0.09,-0.74,0.29c-0.37,0.3,-0.65,0.74,-0.84,1.31c-0.28,0.87,-0.43,1.84,-0.43,2.9l0,2.91l0.01,0.76c0,0.51,0.03,0.84,0.09,0.99c0.1,0.24,0.26,0.42,0.48,0.53c0.21,0.11,0.57,0.18,1.07,0.21l0,0.48l-6.85,0l0,-0.48c0.55,-0.04,0.92,-0.19,1.11,-0.45c0.19,-0.25,0.29,-0.93,0.29,-2.04l0,-7.01c0,-0.72,-0.03,-1.18,-0.1,-1.38c-0.09,-0.25,-0.22,-0.43,-0.39,-0.55c-0.17,-0.11,-0.47,-0.19,-0.9,-0.24l0,-0.5l5.18,0m17.82,5.89l-6.96,0c0.08,1.68,0.52,3.01,1.34,3.99c0.62,0.75,1.37,1.12,2.25,1.12c0.54,0,1.03,-0.15,1.47,-0.45c0.44,-0.3,0.91,-0.84,1.42,-1.63l0.46,0.29c-0.68,1.4,-1.44,2.39,-2.28,2.97c-0.83,0.58,-1.79,0.87,-2.89,0.87c-1.88,0,-3.3,-0.72,-4.27,-2.17c-0.77,-1.16,-1.16,-2.61,-1.16,-4.34c0,-2.11,0.57,-3.8,1.71,-5.05c1.14,-1.25,2.48,-1.88,4.02,-1.88c1.28,0,2.4,0.52,3.34,1.58c0.94,1.05,1.45,2.61,1.52,4.68m-3.33,-0.9c0,-1.45,-0.07,-2.45,-0.23,-2.99c-0.15,-0.54,-0.4,-0.95,-0.73,-1.23c-0.19,-0.16,-0.44,-0.24,-0.76,-0.24c-0.47,0,-0.85,0.23,-1.15,0.69c-0.53,0.8,-0.8,1.9,-0.8,3.31l0,0.47l3.69,0m10.11,-4.98l0,1.64c0.65,-0.7,1.27,-1.21,1.87,-1.54c0.59,-0.32,1.23,-0.48,1.92,-0.48c0.82,0,1.5,0.22,2.04,0.68c0.54,0.45,0.9,1.02,1.08,1.7c0.14,0.51,0.21,1.5,0.21,2.97l0,4.94c0,0.97,0.08,1.58,0.26,1.82c0.17,0.23,0.54,0.39,1.1,0.45l0,0.48l-6.42,0l0,-0.48c0.47,-0.06,0.82,-0.26,1.03,-0.59c0.14,-0.22,0.21,-0.78,0.21,-1.68l0,-5.64c0,-1.04,-0.04,-1.69,-0.12,-1.96c-0.08,-0.27,-0.21,-0.48,-0.41,-0.63c-0.19,-0.14,-0.4,-0.22,-0.64,-0.22c-0.77,0,-1.5,0.55,-2.17,1.66l0,6.8c0,0.95,0.08,1.55,0.26,1.8c0.17,0.25,0.5,0.41,0.98,0.47l0,0.48l-6.42,0l0,-0.48c0.53,-0.05,0.91,-0.22,1.14,-0.51c0.15,-0.19,0.23,-0.78,0.23,-1.76l0,-7.16c0,-0.95,-0.08,-1.55,-0.26,-1.79c-0.17,-0.23,-0.54,-0.38,-1.1,-0.46l0,-0.5l5.17,0m15.31,-4.64l0,4.64l3.01,0l0,1.34l-3.01,0l0,7.83c0,0.73,0.03,1.2,0.1,1.41c0.06,0.21,0.18,0.38,0.35,0.51c0.17,0.13,0.33,0.19,0.47,0.19c0.58,0,1.14,-0.44,1.66,-1.34l0.4,0.29c-0.73,1.73,-1.92,2.6,-3.57,2.6c-0.8,0,-1.48,-0.22,-2.04,-0.67c-0.55,-0.44,-0.91,-0.94,-1.06,-1.5c-0.09,-0.3,-0.13,-1.14,-0.13,-2.49l0,-6.85l-1.65,0l0,-0.47c1.14,-0.8,2.11,-1.65,2.91,-2.53c0.8,-0.88,1.5,-1.87,2.09,-2.97l0.44,0m19.16,-1.49l0,0.62c-0.94,0.61,-1.63,1.21,-2.07,1.8c-0.61,0.81,-1.09,1.85,-1.43,3.13c-0.43,1.58,-0.65,3.79,-0.65,6.63c0,2.67,0.19,4.76,0.59,6.24c0.39,1.48,0.92,2.68,1.6,3.59c0.47,0.63,1.12,1.19,1.96,1.66l0,0.67c-2.18,-0.73,-4.02,-2.22,-5.54,-4.48c-1.51,-2.25,-2.27,-4.85,-2.27,-7.78c0,-2.89,0.75,-5.45,2.26,-7.68c1.51,-2.23,3.36,-3.7,5.55,-4.43m6.52,6.13l0,1.66c0.69,-0.76,1.34,-1.29,1.93,-1.59c0.59,-0.3,1.24,-0.45,1.94,-0.45c0.81,0,1.49,0.19,2.04,0.57c0.55,0.38,0.97,0.95,1.27,1.73c0.72,-0.81,1.41,-1.4,2.08,-1.76c0.66,-0.36,1.35,-0.54,2.08,-0.54c0.87,0,1.57,0.2,2.09,0.6c0.52,0.4,0.88,0.91,1.08,1.53c0.2,0.61,0.3,1.6,0.3,2.96l0,5.19c0,0.97,0.08,1.58,0.26,1.81c0.17,0.23,0.54,0.38,1.1,0.46l0,0.48l-6.55,0l0,-0.48c0.51,-0.04,0.89,-0.24,1.14,-0.59c0.16,-0.24,0.24,-0.8,0.24,-1.68l0,-5.45c0,-1.13,-0.04,-1.85,-0.13,-2.15c-0.09,-0.3,-0.23,-0.53,-0.42,-0.68c-0.19,-0.14,-0.42,-0.22,-0.68,-0.22c-0.38,0,-0.78,0.14,-1.18,0.42c-0.39,0.28,-0.8,0.71,-1.2,1.28l0,6.81c0,0.91,0.07,1.48,0.23,1.72c0.2,0.33,0.6,0.52,1.19,0.55l0,0.48l-6.56,0l0,-0.48c0.35,-0.01,0.63,-0.1,0.83,-0.26c0.2,-0.15,0.33,-0.34,0.4,-0.57c0.06,-0.22,0.1,-0.7,0.1,-1.44l0,-5.45c0,-1.14,-0.04,-1.86,-0.13,-2.15c-0.09,-0.28,-0.24,-0.51,-0.45,-0.67c-0.21,-0.16,-0.44,-0.24,-0.68,-0.24c-0.36,0,-0.69,0.09,-0.99,0.28c-0.42,0.28,-0.87,0.76,-1.35,1.43l0,6.81c0,0.89,0.08,1.48,0.26,1.77c0.17,0.28,0.54,0.45,1.1,0.5l0,0.48l-6.54,0l0,-0.48c0.53,-0.05,0.91,-0.22,1.14,-0.51c0.15,-0.19,0.23,-0.78,0.23,-1.76l0,-7.16c0,-0.95,-0.08,-1.55,-0.26,-1.79c-0.17,-0.23,-0.54,-0.38,-1.1,-0.46l0,-0.5l5.17,0m28.51,7.45l-6.5,0l-0.77,1.79c-0.25,0.59,-0.38,1.09,-0.38,1.47c0,0.51,0.2,0.89,0.62,1.14c0.24,0.14,0.84,0.25,1.8,0.32l0,0.5l-6.12,0l0,-0.5c0.66,-0.09,1.2,-0.37,1.62,-0.82c0.42,-0.44,0.95,-1.37,1.57,-2.77l6.58,-14.68l0.25,0l6.63,15.09c0.63,1.42,1.15,2.33,1.56,2.7c0.3,0.28,0.74,0.44,1.3,0.48l0,0.5l-8.9,0l0,-0.5l0.36,0c0.71,0,1.21,-0.09,1.5,-0.29c0.19,-0.14,0.29,-0.35,0.29,-0.62c0,-0.16,-0.02,-0.33,-0.08,-0.5c-0.01,-0.08,-0.15,-0.42,-0.4,-1.01l-0.97,-2.29m-0.46,-1l-2.74,-6.33l-2.82,6.33l5.56,0m9.31,11.8l0,-0.62c0.94,-0.62,1.63,-1.23,2.07,-1.81c0.6,-0.81,1.08,-1.85,1.43,-3.12c0.43,-1.59,0.65,-3.8,0.65,-6.65c0,-2.67,-0.19,-4.75,-0.59,-6.23c-0.39,-1.47,-0.92,-2.67,-1.6,-3.59c-0.47,-0.63,-1.12,-1.19,-1.96,-1.66l0,-0.67c2.18,0.73,4.02,2.22,5.54,4.48c1.51,2.25,2.27,4.85,2.27,7.78c0,2.88,-0.75,5.44,-2.27,7.67c-1.51,2.23,-3.36,3.71,-5.54,4.44" fill="#000000" stroke="none" fill-opacity="1"/>
</g>
<path d="m884.53,464.57c0,-2.09,0.31,-3.9,0.95,-5.42c0.63,-1.51,1.47,-2.64,2.52,-3.38c0.81,-0.58,1.65,-0.88,2.52,-0.88c1.41,0,2.67,0.71,3.8,2.15c1.4,1.78,2.1,4.19,2.1,7.24c0,2.13,-0.3,3.95,-0.92,5.44c-0.61,1.49,-1.4,2.57,-2.35,3.25c-0.95,0.67,-1.87,1.01,-2.76,1.01c-1.75,0,-3.21,-1.03,-4.38,-3.1c-0.98,-1.74,-1.47,-3.85,-1.47,-6.31m2.66,0.33c0,2.53,0.31,4.6,0.93,6.2c0.51,1.34,1.28,2.02,2.3,2.02c0.48,0,0.99,-0.21,1.52,-0.65c0.52,-0.43,0.92,-1.17,1.19,-2.2c0.41,-1.55,0.62,-3.75,0.62,-6.58c0,-2.09,-0.21,-3.85,-0.65,-5.25c-0.32,-1.04,-0.74,-1.77,-1.26,-2.21c-0.37,-0.29,-0.81,-0.44,-1.34,-0.44c-0.61,0,-1.16,0.27,-1.64,0.82c-0.65,0.75,-1.09,1.93,-1.33,3.54c-0.23,1.61,-0.35,3.19,-0.35,4.76" fill="#000000" stroke="none" fill-opacity="1"/>
<path d="m884.53,385.22c0,-2.09,0.31,-3.9,0.95,-5.42c0.63,-1.51,1.47,-2.64,2.52,-3.38c0.81,-0.58,1.65,-0.88,2.52,-0.88c1.41,0,2.67,0.71,3.8,2.15c1.4,1.78,2.1,4.19,2.1,7.24c0,2.13,-0.3,3.95,-0.92,5.44c-0.61,1.49,-1.4,2.57,-2.35,3.25c-0.95,0.67,-1.87,1.01,-2.76,1.01c-1.75,0,-3.21,-1.03,-4.38,-3.1c-0.98,-1.74,-1.47,-3.85,-1.47,-6.31m2.66,0.33c0,2.53,0.31,4.6,0.93,6.2c0.51,1.34,1.28,2.02,2.3,2.02c0.48,0,0.99,-0.21,1.52,-0.65c0.52,-0.43,0.92,-1.17,1.19,-2.2c0.41,-1.55,0.62,-3.75,0.62,-6.58c0,-2.09,-0.21,-3.85,-0.65,-5.25c-0.32,-1.04,-0.74,-1.77,-1.26,-2.21c-0.37,-0.29,-0.81,-0.44,-1.34,-0.44c-0.61,0,-1.16,0.27,-1.64,0.82c-0.65,0.75,-1.09,1.93,-1.33,3.54c-0.23,1.61,-0.35,3.19,-0.35,4.76m13.71,6.12c0.42,0,0.78,0.14,1.07,0.44c0.28,0.29,0.43,0.64,0.43,1.06c0,0.41,-0.14,0.77,-0.44,1.06c-0.29,0.29,-0.64,0.44,-1.06,0.44c-0.41,0,-0.77,-0.14,-1.06,-0.44c-0.29,-0.29,-0.44,-0.64,-0.44,-1.06c0,-0.42,0.14,-0.78,0.44,-1.07c0.29,-0.28,0.64,-0.43,1.06,-0.43m16.22,-0.9l-1.28,3.54l-10.85,0l0,-0.5c3.19,-2.91,5.44,-5.29,6.74,-7.14c1.3,-1.84,1.95,-3.53,1.95,-5.06c0,-1.16,-0.35,-2.12,-1.07,-2.87c-0.71,-0.75,-1.57,-1.12,-2.56,-1.12c-0.9,0,-1.71,0.26,-2.43,0.79c-0.71,0.52,-1.25,1.3,-1.59,2.32l-0.5,0c0.22,-1.67,0.8,-2.95,1.74,-3.85c0.93,-0.89,2.1,-1.34,3.5,-1.34c1.49,0,2.73,0.47,3.73,1.43c1,0.95,1.5,2.09,1.5,3.39c0,0.93,-0.21,1.86,-0.65,2.79c-0.66,1.46,-1.75,3.01,-3.25,4.65c-2.25,2.46,-3.66,3.94,-4.22,4.45l4.8,0c0.97,0,1.66,-0.03,2.05,-0.1c0.39,-0.07,0.74,-0.21,1.06,-0.44c0.31,-0.22,0.59,-0.53,0.82,-0.94l0.5,0" fill="#000000" stroke="none" fill-opacity="1"/>
<path d="m884.53,305.88c0,-2.09,0.31,-3.9,0.95,-5.42c0.63,-1.51,1.47,-2.64,2.52,-3.38c0.81,-0.58,1.65,-0.88,2.52,-0.88c1.41,0,2.67,0.71,3.8,2.15c1.4,1.78,2.1,4.19,2.1,7.24c0,2.13,-0.3,3.95,-0.92,5.44c-0.61,1.49,-1.4,2.57,-2.35,3.25c-0.95,0.67,-1.87,1.01,-2.76,1.01c-1.75,0,-3.21,-1.03,-4.38,-3.1c-0.98,-1.74,-1.47,-3.85,-1.47,-6.31m2.66,0.33c0,2.53,0.31,4.6,0.93,6.2c0.51,1.34,1.28,2.02,2.3,2.02c0.48,0,0.99,-0.21,1.52,-0.65c0.52,-0.43,0.92,-1.17,1.19,-2.2c0.41,-1.55,0.62,-3.75,0.62,-6.58c0,-2.09,-0.21,-3.85,-0.65,-5.25c-0.32,-1.04,-0.74,-1.77,-1.26,-2.21c-0.37,-0.29,-0.81,-0.44,-1.34,-0.44c-0.61,0,-1.16,0.27,-1.64,0.82c-0.65,0.75,-1.09,1.93,-1.33,3.54c-0.23,1.61,-0.35,3.19,-0.35,4.76m13.71,6.12c0.42,0,0.78,0.14,1.07,0.44c0.28,0.29,0.43,0.64,0.43,1.06c0,0.41,-0.14,0.77,-0.44,1.06c-0.29,0.29,-0.64,0.44,-1.06,0.44c-0.41,0,-0.77,-0.14,-1.06,-0.44c-0.29,-0.29,-0.44,-0.64,-0.44,-1.06c0,-0.42,0.14,-0.78,0.44,-1.07c0.29,-0.28,0.64,-0.43,1.06,-0.43m16.41,-4.15l0,1.92l-2.47,0l0,4.85l-2.23,0l0,-4.85l-7.79,0l0,-1.73l8.53,-12.18l1.49,0l0,11.99l2.47,0m-4.71,0l0,-9.13l-6.46,9.13l6.46,0" fill="#000000" stroke="none" fill-opacity="1"/>
<path d="m884.53,226.53c0,-2.09,0.31,-3.9,0.95,-5.42c0.63,-1.51,1.47,-2.64,2.52,-3.38c0.81,-0.58,1.65,-0.88,2.52,-0.88c1.41,0,2.67,0.71,3.8,2.15c1.4,1.78,2.1,4.19,2.1,7.24c0,2.13,-0.3,3.95,-0.92,5.44c-0.61,1.49,-1.4,2.57,-2.35,3.25c-0.95,0.67,-1.87,1.01,-2.76,1.01c-1.75,0,-3.21,-1.03,-4.38,-3.1c-0.98,-1.74,-1.47,-3.85,-1.47,-6.31m2.66,0.33c0,2.53,0.31,4.6,0.93,6.2c0.51,1.34,1.28,2.02,2.3,2.02c0.48,0,0.99,-0.21,1.52,-0.65c0.52,-0.43,0.92,-1.17,1.19,-2.2c0.41,-1.55,0.62,-3.75,0.62,-6.58c0,-2.09,-0.21,-3.85,-0.65,-5.25c-0.32,-1.04,-0.74,-1.77,-1.26,-2.21c-0.37,-0.29,-0.81,-0.44,-1.34,-0.44c-0.61,0,-1.16,0.27,-1.64,0.82c-0.65,0.75,-1.09,1.93,-1.33,3.54c-0.23,1.61,-0.35,3.19,-0.35,4.76m13.71,6.12c0.42,0,0.78,0.14,1.07,0.44c0.28,0.29,0.43,0.64,0.43,1.06c0,0.41,-0.14,0.77,-0.44,1.06c-0.29,0.29,-0.64,0.44,-1.06,0.44c-0.41,0,-0.77,-0.14,-1.06,-0.44c-0.29,-0.29,-0.44,-0.64,-0.44,-1.06c0,-0.42,0.14,-0.78,0.44,-1.07c0.29,-0.28,0.64,-0.43,1.06,-0.43m15.93,-16.15l0,0.5c-1.19,0.11,-2.16,0.35,-2.92,0.71c-0.75,0.35,-1.5,0.9,-2.23,1.63c-0.73,0.73,-1.34,1.54,-1.83,2.45c-0.48,0.9,-0.88,1.97,-1.21,3.21c1.3,-0.89,2.61,-1.34,3.92,-1.34c1.25,0,2.34,0.5,3.27,1.52c0.92,1.01,1.38,2.31,1.38,3.9c0,1.53,-0.46,2.94,-1.39,4.2c-1.12,1.53,-2.6,2.3,-4.45,2.3c-1.25,0,-2.32,-0.41,-3.2,-1.24c-1.71,-1.61,-2.57,-3.71,-2.57,-6.29c0,-1.64,0.33,-3.21,0.99,-4.69c0.66,-1.48,1.6,-2.8,2.83,-3.95c1.22,-1.14,2.4,-1.92,3.52,-2.32c1.12,-0.39,2.16,-0.59,3.13,-0.59l0.78,0m-8.44,9.5c-0.16,1.22,-0.24,2.2,-0.24,2.95c0,0.86,0.16,1.81,0.48,2.83c0.32,1.01,0.79,1.82,1.43,2.42c0.46,0.42,1.02,0.63,1.68,0.63c0.78,0,1.49,-0.37,2.11,-1.11c0.61,-0.74,0.92,-1.8,0.92,-3.17c0,-1.54,-0.3,-2.88,-0.92,-4.01c-0.61,-1.13,-1.48,-1.69,-2.61,-1.69c-0.34,0,-0.71,0.07,-1.1,0.21c-0.39,0.14,-0.97,0.45,-1.74,0.93" fill="#000000" stroke="none" fill-opacity="1"/>
<path d="m884.53,147.18c0,-2.09,0.31,-3.9,0.95,-5.42c0.63,-1.51,1.47,-2.64,2.52,-3.38c0.81,-0.58,1.65,-0.88,2.52,-0.88c1.41,0,2.67,0.71,3.8,2.15c1.4,1.78,2.1,4.19,2.1,7.24c0,2.13,-0.3,3.95,-0.92,5.44c-0.61,1.49,-1.4,2.57,-2.35,3.25c-0.95,0.67,-1.87,1.01,-2.76,1.01c-1.75,0,-3.21,-1.03,-4.38,-3.1c-0.98,-1.74,-1.47,-3.85,-1.47,-6.31m2.66,0.33c0,2.53,0.31,4.6,0.93,6.2c0.51,1.34,1.28,2.02,2.3,2.02c0.48,0,0.99,-0.21,1.52,-0.65c0.52,-0.43,0.92,-1.17,1.19,-2.2c0.41,-1.55,0.62,-3.75,0.62,-6.58c0,-2.09,-0.21,-3.85,-0.65,-5.25c-0.32,-1.04,-0.74,-1.77,-1.26,-2.21c-0.37,-0.29,-0.81,-0.44,-1.34,-0.44c-0.61,0,-1.16,0.27,-1.64,0.82c-0.65,0.75,-1.09,1.93,-1.33,3.54c-0.23,1.61,-0.35,3.19,-0.35,4.76m13.71,6.12c0.42,0,0.78,0.14,1.07,0.44c0.28,0.29,0.43,0.64,0.43,1.06c0,0.41,-0.14,0.77,-0.44,1.06c-0.29,0.29,-0.64,0.44,-1.06,0.44c-0.41,0,-0.77,-0.14,-1.06,-0.44c-0.29,-0.29,-0.44,-0.64,-0.44,-1.06c0,-0.42,0.14,-0.78,0.44,-1.07c0.29,-0.28,0.64,-0.43,1.06,-0.43m8.8,-6.63c-1.45,-1.19,-2.39,-2.15,-2.81,-2.87c-0.42,-0.72,-0.63,-1.47,-0.63,-2.25c0,-1.19,0.46,-2.22,1.38,-3.08c0.92,-0.86,2.14,-1.29,3.67,-1.29c1.48,0,2.67,0.4,3.58,1.2c0.9,0.8,1.35,1.72,1.35,2.75c0,0.68,-0.24,1.38,-0.73,2.1c-0.48,0.71,-1.5,1.55,-3.05,2.52c1.59,1.23,2.64,2.19,3.16,2.9c0.68,0.92,1.03,1.89,1.03,2.91c0,1.29,-0.49,2.4,-1.47,3.31c-0.98,0.91,-2.28,1.37,-3.88,1.37c-1.74,0,-3.1,-0.54,-4.08,-1.64c-0.77,-0.87,-1.16,-1.83,-1.16,-2.87c0,-0.81,0.27,-1.62,0.82,-2.42c0.54,-0.8,1.49,-1.68,2.83,-2.65m2.13,-1.45c1.08,-0.97,1.77,-1.74,2.06,-2.31c0.28,-0.56,0.43,-1.2,0.43,-1.92c0,-0.95,-0.26,-1.69,-0.8,-2.23c-0.53,-0.53,-1.26,-0.8,-2.18,-0.8c-0.92,0,-1.67,0.26,-2.25,0.8c-0.57,0.53,-0.86,1.15,-0.86,1.87c0,0.47,0.11,0.94,0.35,1.41c0.23,0.47,0.58,0.91,1.02,1.34l2.22,1.84m-1.49,1.96c-0.75,0.63,-1.3,1.32,-1.66,2.07c-0.36,0.74,-0.54,1.55,-0.54,2.42c0,1.16,0.31,2.1,0.95,2.8c0.63,0.7,1.45,1.05,2.43,1.05c0.97,0,1.76,-0.27,2.34,-0.82c0.58,-0.55,0.88,-1.22,0.88,-2c0,-0.65,-0.17,-1.23,-0.51,-1.75c-0.64,-0.95,-1.94,-2.21,-3.89,-3.76" fill="#000000" stroke="none" fill-opacity="1"/>
<path d="m886.78,60.33l4.47,-2.18l0.44,0l0,15.54c0,1.03,0.04,1.67,0.12,1.92c0.08,0.25,0.26,0.44,0.53,0.58c0.27,0.13,0.82,0.21,1.65,0.23l0,0.5l-6.92,0l0,-0.5c0.86,-0.01,1.42,-0.09,1.68,-0.22c0.25,-0.13,0.42,-0.3,0.52,-0.52c0.09,-0.22,0.14,-0.88,0.14,-1.98l0,-9.93c0,-1.33,-0.04,-2.19,-0.13,-2.57c-0.06,-0.28,-0.17,-0.5,-0.34,-0.63c-0.16,-0.13,-0.36,-0.2,-0.6,-0.2c-0.33,0,-0.8,0.14,-1.39,0.42l-0.2,-0.42" fill="#000000" stroke="none" fill-opacity="1"/>
</g>
<g fill="none" stroke-linecap="butt" stroke-width="0.69">
<path d="M66.92,523.62l0,-515.74"/>
<path d="M66.92,515.2l4.16,0M66.92,497.83l4.16,0M66.92,480.47l4.16,0M66.92,463.11l4.16,0M66.92,445.74l4.16,0M66.92,428.38l4.16,0M66.92,411.02l4.16,0M66.92,393.65l4.16,0M66.92,376.29l4.16,0M66.92,358.93l4.16,0M66.92,341.56l4.16,0M66.92,324.2l4.16,0M66.92,306.84l4.16,0M66.92,289.47l4.16,0M66.92,272.11l4.16,0M66.92,254.75l4.16,0M66.92,237.38l4.16,0M66.92,220.02l4.16,0M66.92,202.66l4.16,0M66.92,185.29l4.16,0M66.92,167.93l4.16,0M66.92,150.56l4.16,0M66.92,133.2l4.16,0M66.92,115.84l4.16,0M66.92,98.47l4.16,0M66.92,81.11l4.16,0M66.92,63.75l4.16,0M66.92,46.38l4.16,0M66.92,29.02l4.16,0M66.92,11.66l4.16,0"/>
<path d="M66.92,463.11l8.33,0M66.92,376.29l8.33,0M66.92,289.47l8.33,0M66.92,202.66l8.33,0M66.92,115.84l8.33,0M66.92,29.02l8.33,0"/>
</g>
<g fill="none" stroke-width="0.1">
<g transform="matrix(0 -1 1 0 24.77 311.29)">
<path d="m19.79,-18.4l0,0.5c-0.66,0.1,-1.26,0.46,-1.79,1.07c-0.38,0.45,-0.94,1.51,-1.69,3.18l-6.33,14.06l-0.44,0l-6.31,-14.63c-0.76,-1.76,-1.26,-2.8,-1.52,-3.1c-0.25,-0.3,-0.74,-0.5,-1.45,-0.58l0,-0.5l8.82,0l0,0.5l-0.29,0c-0.79,0,-1.33,0.09,-1.62,0.29c-0.2,0.13,-0.31,0.33,-0.31,0.59c0,0.16,0.03,0.35,0.1,0.57c0.07,0.22,0.31,0.81,0.73,1.78l3.92,9.16l3.63,-8.15c0.43,-0.98,0.7,-1.64,0.8,-1.98c0.09,-0.33,0.14,-0.61,0.14,-0.85c0,-0.27,-0.07,-0.51,-0.21,-0.71c-0.14,-0.2,-0.35,-0.36,-0.63,-0.47c-0.38,-0.15,-0.9,-0.23,-1.54,-0.23l0,-0.5l6.04,0m7.2,5.33c1.1,0,2.13,0.28,3.08,0.85c0.95,0.57,1.67,1.38,2.16,2.42c0.49,1.04,0.73,2.19,0.73,3.44c0,1.8,-0.45,3.3,-1.37,4.52c-1.1,1.46,-2.62,2.19,-4.57,2.19c-1.9,0,-3.38,-0.66,-4.41,-2c-1.03,-1.33,-1.54,-2.89,-1.54,-4.65c0,-1.81,0.52,-3.4,1.58,-4.75c1.05,-1.35,2.49,-2.02,4.33,-2.02m0.05,0.96c-0.46,0,-0.85,0.17,-1.18,0.52c-0.33,0.34,-0.54,1.03,-0.65,2.06c-0.1,1.02,-0.15,2.45,-0.15,4.28c0,0.96,0.06,1.87,0.19,2.71c0.09,0.64,0.31,1.13,0.63,1.46c0.32,0.33,0.69,0.5,1.11,0.5c0.4,0,0.74,-0.11,1.01,-0.33c0.35,-0.3,0.58,-0.73,0.7,-1.28c0.18,-0.85,0.27,-2.59,0.27,-5.21c0,-1.53,-0.08,-2.59,-0.25,-3.16c-0.17,-0.57,-0.42,-0.99,-0.76,-1.25c-0.23,-0.19,-0.54,-0.28,-0.92,-0.28m12.82,-6.29l0,15.77c0,0.89,0.1,1.46,0.31,1.71c0.2,0.24,0.61,0.39,1.22,0.42l0,0.48l-6.85,0l0,-0.48c0.56,-0.01,0.97,-0.18,1.24,-0.48c0.18,-0.2,0.27,-0.76,0.27,-1.65l0,-13.13c0,-0.88,-0.1,-1.45,-0.31,-1.7c-0.2,-0.24,-0.61,-0.39,-1.2,-0.42l0,-0.5l5.32,0m7.79,1.07l0,4.64l3.01,0l0,1.34l-3.01,0l0,7.83c0,0.73,0.03,1.2,0.1,1.41c0.06,0.21,0.18,0.38,0.35,0.51c0.17,0.13,0.33,0.19,0.47,0.19c0.58,0,1.14,-0.44,1.66,-1.34l0.4,0.29c-0.73,1.73,-1.92,2.6,-3.57,2.6c-0.8,0,-1.48,-0.22,-2.04,-0.67c-0.55,-0.44,-0.91,-0.94,-1.06,-1.5c-0.09,-0.3,-0.13,-1.14,-0.13,-2.49l0,-6.85l-1.65,0l0,-0.47c1.14,-0.8,2.11,-1.65,2.91,-2.53c0.8,-0.88,1.5,-1.87,2.09,-2.97l0.44,0m11.22,15.46c-1.54,1.36,-2.93,2.04,-4.16,2.04c-0.72,0,-1.32,-0.23,-1.8,-0.71c-0.47,-0.47,-0.71,-1.07,-0.71,-1.78c0,-0.96,0.41,-1.83,1.24,-2.61c0.83,-0.77,2.64,-1.8,5.44,-3.08l0,-1.27c0,-0.95,-0.05,-1.56,-0.15,-1.81c-0.1,-0.24,-0.3,-0.46,-0.59,-0.65c-0.28,-0.18,-0.61,-0.27,-0.97,-0.27c-0.58,0,-1.07,0.13,-1.45,0.39c-0.23,0.16,-0.35,0.35,-0.35,0.57c0,0.19,0.12,0.42,0.38,0.7c0.34,0.38,0.51,0.76,0.51,1.12c0,0.44,-0.16,0.82,-0.49,1.13c-0.33,0.31,-0.76,0.46,-1.29,0.46c-0.57,0,-1.04,-0.17,-1.43,-0.51c-0.38,-0.34,-0.57,-0.74,-0.57,-1.2c0,-0.65,0.25,-1.27,0.77,-1.86c0.51,-0.59,1.23,-1.04,2.15,-1.36c0.92,-0.31,1.88,-0.47,2.87,-0.47c1.2,0,2.15,0.25,2.85,0.76c0.7,0.51,1.15,1.06,1.36,1.66c0.12,0.38,0.19,1.25,0.19,2.61l0,4.92c0,0.57,0.02,0.94,0.06,1.09c0.04,0.14,0.11,0.26,0.2,0.33c0.09,0.07,0.19,0.1,0.31,0.1c0.23,0,0.47,-0.16,0.71,-0.5l0.4,0.32c-0.45,0.66,-0.92,1.15,-1.4,1.45c-0.48,0.3,-1.03,0.45,-1.64,0.45c-0.72,0,-1.28,-0.16,-1.69,-0.5c-0.4,-0.33,-0.65,-0.85,-0.74,-1.54m0,-0.99l0,-4.24c-1.09,0.64,-1.9,1.33,-2.44,2.06c-0.35,0.48,-0.52,0.98,-0.52,1.47c0,0.41,0.14,0.78,0.44,1.09c0.22,0.24,0.54,0.36,0.95,0.36c0.45,0,0.97,-0.25,1.57,-0.76m15.04,-9.67l4.27,0l0,1.49l-2.42,0c0.44,0.44,0.75,0.84,0.92,1.2c0.21,0.48,0.32,1,0.32,1.53c0,0.9,-0.25,1.69,-0.75,2.35c-0.5,0.66,-1.18,1.18,-2.04,1.56c-0.86,0.37,-1.63,0.56,-2.3,0.56c-0.05,0,-0.59,-0.02,-1.62,-0.06c-0.4,0,-0.74,0.13,-1.02,0.4c-0.27,0.26,-0.41,0.58,-0.41,0.95c0,0.32,0.12,0.59,0.37,0.8c0.24,0.2,0.65,0.31,1.21,0.31l2.34,-0.02c1.9,0,3.2,0.2,3.92,0.62c1.02,0.57,1.53,1.47,1.53,2.67c0,0.76,-0.23,1.46,-0.7,2.09c-0.47,0.62,-1.09,1.09,-1.85,1.39c-1.16,0.44,-2.51,0.66,-4.03,0.66c-1.14,0,-2.18,-0.11,-3.12,-0.33c-0.94,-0.22,-1.61,-0.52,-2.02,-0.92c-0.4,-0.39,-0.61,-0.8,-0.61,-1.24c0,-0.41,0.15,-0.78,0.46,-1.11c0.31,-0.33,0.89,-0.6,1.74,-0.83c-1.17,-0.57,-1.76,-1.38,-1.76,-2.41c0,-0.62,0.23,-1.23,0.71,-1.81c0.47,-0.58,1.23,-1.09,2.28,-1.53c-1.21,-0.44,-2.09,-1.02,-2.63,-1.75c-0.54,-0.72,-0.81,-1.56,-0.81,-2.51c0,-1.23,0.5,-2.31,1.52,-3.22c1.01,-0.9,2.31,-1.36,3.9,-1.36c0.84,0,1.71,0.17,2.6,0.52m-2.34,0.31c-0.52,0,-0.96,0.26,-1.33,0.79c-0.36,0.52,-0.54,1.62,-0.54,3.29c0,1.34,0.17,2.27,0.53,2.77c0.35,0.5,0.78,0.75,1.26,0.75c0.54,0,0.99,-0.24,1.35,-0.74c0.36,-0.49,0.54,-1.46,0.54,-2.9c0,-1.61,-0.2,-2.72,-0.61,-3.31c-0.28,-0.43,-0.69,-0.65,-1.22,-0.65m-0.8,14.1c-0.92,0,-1.53,0.07,-1.83,0.23c-0.51,0.28,-0.77,0.66,-0.77,1.14c0,0.46,0.26,0.88,0.8,1.25c0.53,0.37,1.53,0.56,3.01,0.56c1.25,0,2.24,-0.16,2.96,-0.5c0.71,-0.33,1.07,-0.8,1.07,-1.41c0,-0.22,-0.06,-0.41,-0.2,-0.57c-0.24,-0.27,-0.61,-0.45,-1.1,-0.55c-0.49,-0.09,-1.8,-0.14,-3.94,-0.14m19.65,-8.67l-6.96,0c0.08,1.68,0.52,3.01,1.34,3.99c0.62,0.75,1.37,1.12,2.25,1.12c0.54,0,1.03,-0.15,1.47,-0.45c0.44,-0.3,0.91,-0.84,1.42,-1.63l0.46,0.29c-0.68,1.4,-1.44,2.39,-2.28,2.97c-0.83,0.58,-1.79,0.87,-2.89,0.87c-1.88,0,-3.3,-0.72,-4.27,-2.17c-0.77,-1.16,-1.16,-2.61,-1.16,-4.34c0,-2.11,0.57,-3.8,1.71,-5.05c1.14,-1.25,2.48,-1.88,4.02,-1.88c1.28,0,2.4,0.52,3.34,1.58c0.94,1.05,1.45,2.61,1.52,4.68m-3.33,-0.9c0,-1.45,-0.07,-2.45,-0.23,-2.99c-0.15,-0.54,-0.4,-0.95,-0.73,-1.23c-0.19,-0.16,-0.44,-0.24,-0.76,-0.24c-0.47,0,-0.85,0.23,-1.15,0.69c-0.53,0.8,-0.8,1.9,-0.8,3.31l0,0.47l3.69,0" fill="#000000" stroke="none" fill-opacity="1"/>
</g>
<path d="m46.84,463.57c0,-2.09,0.31,-3.9,0.95,-5.42c0.63,-1.51,1.47,-2.64,2.52,-3.38c0.81,-0.58,1.65,-0.88,2.52,-0.88c1.41,0,2.67,0.71,3.8,2.15c1.4,1.78,2.1,4.19,2.1,7.24c0,2.13,-0.3,3.95,-0.92,5.44c-0.61,1.49,-1.4,2.57,-2.35,3.25c-0.95,0.67,-1.87,1.01,-2.76,1.01c-1.75,0,-3.21,-1.03,-4.38,-3.1c-0.98,-1.74,-1.47,-3.85,-1.47,-6.31m2.66,0.33c0,2.53,0.31,4.6,0.93,6.2c0.51,1.34,1.28,2.02,2.3,2.02c0.48,0,0.99,-0.21,1.52,-0.65c0.52,-0.43,0.92,-1.17,1.19,-2.2c0.41,-1.55,0.62,-3.75,0.62,-6.58c0,-2.09,-0.21,-3.85,-0.65,-5.25c-0.32,-1.04,-0.74,-1.77,-1.26,-2.21c-0.37,-0.29,-0.81,-0.44,-1.34,-0.44c-0.61,0,-1.16,0.27,-1.64,0.82c-0.65,0.75,-1.09,1.93,-1.33,3.54c-0.23,1.61,-0.35,3.19,-0.35,4.76" fill="#000000" stroke="none" fill-opacity="1"/>
<path d="m12.09,376.75c0,-2.09,0.31,-3.9,0.95,-5.42c0.63,-1.51,1.47,-2.64,2.52,-3.38c0.81,-0.58,1.65,-0.88,2.52,-0.88c1.41,0,2.67,0.71,3.8,2.15c1.4,1.78,2.1,4.19,2.1,7.24c0,2.13,-0.3,3.95,-0.92,5.44c-0.61,1.49,-1.4,2.57,-2.35,3.25c-0.95,0.67,-1.87,1.01,-2.76,1.01c-1.75,0,-3.21,-1.03,-4.38,-3.1c-0.98,-1.74,-1.47,-3.85,-1.47,-6.31m2.66,0.33c0,2.53,0.31,4.6,0.93,6.2c0.51,1.34,1.28,2.02,2.3,2.02c0.48,0,0.99,-0.21,1.52,-0.65c0.52,-0.43,0.92,-1.17,1.19,-2.2c0.41,-1.55,0.62,-3.75,0.62,-6.58c0,-2.09,-0.21,-3.85,-0.65,-5.25c-0.32,-1.04,-0.74,-1.77,-1.26,-2.21c-0.37,-0.29,-0.81,-0.44,-1.34,-0.44c-0.61,0,-1.16,0.27,-1.64,0.82c-0.65,0.75,-1.09,1.93,-1.33,3.54c-0.23,1.61,-0.35,3.19,-0.35,4.76m13.71,6.12c0.42,0,0.78,0.14,1.07,0.44c0.28,0.29,0.43,0.64,0.43,1.06c0,0.41,-0.14,0.77,-0.44,1.06c-0.29,0.29,-0.64,0.44,-1.06,0.44c-0.41,0,-0.77,-0.14,-1.06,-0.44c-0.29,-0.29,-0.44,-0.64,-0.44,-1.06c0,-0.42,0.14,-0.78,0.44,-1.07c0.29,-0.28,0.64,-0.43,1.06,-0.43m16.22,-0.9l-1.28,3.54l-10.85,0l0,-0.5c3.19,-2.91,5.44,-5.29,6.74,-7.14c1.3,-1.84,1.95,-3.53,1.95,-5.06c0,-1.16,-0.35,-2.12,-1.07,-2.87c-0.71,-0.75,-1.57,-1.12,-2.56,-1.12c-0.9,0,-1.71,0.26,-2.43,0.79c-0.71,0.52,-1.25,1.3,-1.59,2.32l-0.5,0c0.22,-1.67,0.8,-2.95,1.74,-3.85c0.93,-0.89,2.1,-1.34,3.5,-1.34c1.49,0,2.73,0.47,3.73,1.43c1,0.95,1.5,2.09,1.5,3.39c0,0.93,-0.21,1.86,-0.65,2.79c-0.66,1.46,-1.75,3.01,-3.25,4.65c-2.25,2.46,-3.66,3.94,-4.22,4.45l4.8,0c0.97,0,1.66,-0.03,2.05,-0.1c0.39,-0.07,0.74,-0.21,1.06,-0.44c0.31,-0.22,0.59,-0.53,0.82,-0.94l0.5,0m13.22,-14.86l-1.05,2.3l-5.53,0l-1.2,2.47c2.39,0.35,4.29,1.24,5.7,2.67c1.2,1.23,1.8,2.67,1.8,4.34c0,0.96,-0.19,1.86,-0.59,2.68c-0.39,0.82,-0.88,1.52,-1.48,2.1c-0.59,0.57,-1.26,1.04,-1.99,1.39c-1.04,0.49,-2.1,0.74,-3.2,0.74c-1.1,0,-1.9,-0.18,-2.4,-0.56c-0.5,-0.37,-0.75,-0.78,-0.75,-1.24c0,-0.25,0.1,-0.47,0.31,-0.67c0.2,-0.19,0.47,-0.29,0.78,-0.29c0.23,0,0.44,0.03,0.61,0.1c0.17,0.07,0.47,0.25,0.9,0.55c0.67,0.47,1.36,0.7,2.06,0.7c1.05,0,1.98,-0.4,2.78,-1.2c0.8,-0.8,1.2,-1.77,1.2,-2.92c0,-1.11,-0.35,-2.15,-1.07,-3.11c-0.71,-0.96,-1.7,-1.7,-2.95,-2.23c-0.98,-0.4,-2.33,-0.64,-4.03,-0.7l3.52,-7.15l6.59,0" fill="#000000" stroke="none" fill-opacity="1"/>
<path d="m12.09,203.12c0,-2.09,0.31,-3.9,0.95,-5.42c0.63,-1.51,1.47,-2.64,2.52,-3.38c0.81,-0.58,1.65,-0.88,2.52,-0.88c1.41,0,2.67,0.71,3.8,2.15c1.4,1.78,2.1,4.19,2.1,7.24c0,2.13,-0.3,3.95,-0.92,5.44c-0.61,1.49,-1.4,2.57,-2.35,3.25c-0.95,0.67,-1.87,1.01,-2.76,1.01c-1.75,0,-3.21,-1.03,-4.38,-3.1c-0.98,-1.74,-1.47,-3.85,-1.47,-6.31m2.66,0.33c0,2.53,0.31,4.6,0.93,6.2c0.51,1.34,1.28,2.02,2.3,2.02c0.48,0,0.99,-0.21,1.52,-0.65c0.52,-0.43,0.92,-1.17,1.19,-2.2c0.41,-1.55,0.62,-3.75,0.62,-6.58c0,-2.09,-0.21,-3.85,-0.65,-5.25c-0.32,-1.04,-0.74,-1.77,-1.26,-2.21c-0.37,-0.29,-0.81,-0.44,-1.34,-0.44c-0.61,0,-1.16,0.27,-1.64,0.82c-0.65,0.75,-1.09,1.93,-1.33,3.54c-0.23,1.61,-0.35,3.19,-0.35,4.76m13.71,6.12c0.42,0,0.78,0.14,1.07,0.44c0.28,0.29,0.43,0.64,0.43,1.06c0,0.41,-0.14,0.77,-0.44,1.06c-0.29,0.29,-0.64,0.44,-1.06,0.44c-0.41,0,-0.77,-0.14,-1.06,-0.44c-0.29,-0.29,-0.44,-0.64,-0.44,-1.06c0,-0.42,0.14,-0.78,0.44,-1.07c0.29,-0.28,0.64,-0.43,1.06,-0.43m6.27,-15.77l9.86,0l0,0.51l-6.13,18.27l-1.52,0l5.49,-16.57l-5.06,0c-1.02,0,-1.75,0.12,-2.18,0.36c-0.76,0.41,-1.37,1.05,-1.83,1.92l-0.39,-0.14l1.76,-4.35m23.17,0l-1.05,2.3l-5.53,0l-1.2,2.47c2.39,0.35,4.29,1.24,5.7,2.67c1.2,1.23,1.8,2.67,1.8,4.34c0,0.96,-0.19,1.86,-0.59,2.68c-0.39,0.82,-0.88,1.52,-1.48,2.1c-0.59,0.57,-1.26,1.04,-1.99,1.39c-1.04,0.49,-2.1,0.74,-3.2,0.74c-1.1,0,-1.9,-0.18,-2.4,-0.56c-0.5,-0.37,-0.75,-0.78,-0.75,-1.24c0,-0.25,0.1,-0.47,0.31,-0.67c0.2,-0.19,0.47,-0.29,0.78,-0.29c0.23,0,0.44,0.03,0.61,0.1c0.17,0.07,0.47,0.25,0.9,0.55c0.67,0.47,1.36,0.7,2.06,0.7c1.05,0,1.98,-0.4,2.78,-1.2c0.8,-0.8,1.2,-1.77,1.2,-2.92c0,-1.11,-0.35,-2.15,-1.07,-3.11c-0.71,-0.96,-1.7,-1.7,-2.95,-2.23c-0.98,-0.4,-2.33,-0.64,-4.03,-0.7l3.52,-7.15l6.59,0" fill="#000000" stroke="none" fill-opacity="1"/>
<path d="m49.09,108.79l4.47,-2.18l0.44,0l0,15.54c0,1.03,0.04,1.67,0.12,1.92c0.08,0.25,0.26,0.44,0.53,0.58c0.27,0.13,0.82,0.21,1.65,0.23l0,0.5l-6.92,0l0,-0.5c0.86,-0.01,1.42,-0.09,1.68,-0.22c0.25,-0.13,0.42,-0.3,0.52,-0.52c0.09,-0.22,0.14,-0.88,0.14,-1.98l0,-9.93c0,-1.33,-0.04,-2.19,-0.13,-2.57c-0.06,-0.28,-0.17,-0.5,-0.34,-0.63c-0.16,-0.13,-0.36,-0.2,-0.6,-0.2c-0.33,0,-0.8,0.14,-1.39,0.42l-0.2,-0.42" fill="#000000" stroke="none" fill-opacity="1"/>
<path d="m14.34,21.98l4.47,-2.18l0.44,0l0,15.54c0,1.03,0.04,1.67,0.12,1.92c0.08,0.25,0.26,0.44,0.53,0.58c0.27,0.13,0.82,0.21,1.65,0.23l0,0.5l-6.92,0l0,-0.5c0.86,-0.01,1.42,-0.09,1.68,-0.22c0.25,-0.13,0.42,-0.3,0.52,-0.52c0.09,-0.22,0.14,-0.88,0.14,-1.98l0,-9.93c0,-1.33,-0.04,-2.19,-0.13,-2.57c-0.06,-0.28,-0.17,-0.5,-0.34,-0.63c-0.16,-0.13,-0.36,-0.2,-0.6,-0.2c-0.33,0,-0.8,0.14,-1.39,0.42l-0.2,-0.42m14.11,13.96c0.42,0,0.78,0.14,1.07,0.44c0.28,0.29,0.43,0.64,0.43,1.06c0,0.41,-0.14,0.77,-0.44,1.06c-0.29,0.29,-0.64,0.44,-1.06,0.44c-0.41,0,-0.77,-0.14,-1.06,-0.44c-0.29,-0.29,-0.44,-0.64,-0.44,-1.06c0,-0.42,0.14,-0.78,0.44,-1.07c0.29,-0.28,0.64,-0.43,1.06,-0.43m16.22,-0.9l-1.28,3.54l-10.85,0l0,-0.5c3.19,-2.91,5.44,-5.29,6.74,-7.14c1.3,-1.84,1.95,-3.53,1.95,-5.06c0,-1.16,-0.35,-2.12,-1.07,-2.87c-0.71,-0.75,-1.57,-1.12,-2.56,-1.12c-0.9,0,-1.71,0.26,-2.43,0.79c-0.71,0.52,-1.25,1.3,-1.59,2.32l-0.5,0c0.22,-1.67,0.8,-2.95,1.74,-3.85c0.93,-0.89,2.1,-1.34,3.5,-1.34c1.49,0,2.73,0.47,3.73,1.43c1,0.95,1.5,2.09,1.5,3.39c0,0.93,-0.21,1.86,-0.65,2.79c-0.66,1.46,-1.75,3.01,-3.25,4.65c-2.25,2.46,-3.66,3.94,-4.22,4.45l4.8,0c0.97,0,1.66,-0.03,2.05,-0.1c0.39,-0.07,0.74,-0.21,1.06,-0.44c0.31,-0.22,0.59,-0.53,0.82,-0.94l0.5,0m13.22,-14.86l-1.05,2.3l-5.53,0l-1.2,2.47c2.39,0.35,4.29,1.24,5.7,2.67c1.2,1.23,1.8,2.67,1.8,4.34c0,0.96,-0.19,1.86,-0.59,2.68c-0.39,0.82,-0.88,1.52,-1.48,2.1c-0.59,0.57,-1.26,1.04,-1.99,1.39c-1.04,0.49,-2.1,0.74,-3.2,0.74c-1.1,0,-1.9,-0.18,-2.4,-0.56c-0.5,-0.37,-0.75,-0.78,-0.75,-1.24c0,-0.25,0.1,-0.47,0.31,-0.67c0.2,-0.19,0.47,-0.29,0.78,-0.29c0.23,0,0.44,0.03,0.61,0.1c0.17,0.07,0.47,0.25,0.9,0.55c0.67,0.47,1.36,0.7,2.06,0.7c1.05,0,1.98,-0.4,2.78,-1.2c0.8,-0.8,1.2,-1.77,1.2,-2.92c0,-1.11,-0.35,-2.15,-1.07,-3.11c-0.71,-0.96,-1.7,-1.7,-2.95,-2.23c-0.98,-0.4,-2.33,-0.64,-4.03,-0.7l3.52,-7.15l6.59,0" fill="#000000" stroke="none" fill-opacity="1"/>
</g>
<g fill="none" stroke-linecap="butt" stroke-width="0.69">
<path d="M66.92,523.62l909.44,0"/>
<path d="M66.92,523.62l0,-4.16M112.4,523.62l0,-4.16M157.87,523.62l0,-4.16M203.34,523.62l0,-4.16M248.81,523.62l0,-4.16M294.29,523.62l0,-4.16M339.76,523.62l0,-4.16M385.23,523.62l0,-4.16M430.7,523.62l0,-4.16M476.18,523.62l0,-4.16M521.65,523.62l0,-4.16M567.12,523.62l0,-4.16M612.59,523.62l0,-4.16M658.07,523.62l0,-4.16M703.54,523.62l0,-4.16M749.01,523.62l0,-4.16M794.48,523.62l0,-4.16M839.96,523.62l0,-4.16M885.43,523.62l0,-4.16M930.9,523.62l0,-4.16M976.37,523.62l0,-4.16"/>
<path d="M66.92,523.62l0,-8.33M248.81,523.62l0,-8.33M430.7,523.62l0,-8.33M612.59,523.62l0,-8.33M794.48,523.62l0,-8.33M976.37,523.62l0,-8.33"/>
</g>
<g fill="none" stroke-width="0.1">
<path d="m482.44,566.13l0,4.98l-0.48,0c-0.28,-1.14,-0.61,-1.97,-0.96,-2.47c-0.35,-0.5,-0.83,-0.9,-1.45,-1.2c-0.34,-0.16,-0.94,-0.24,-1.8,-0.24l-1.37,0l0,14.19c0,0.94,0.05,1.52,0.15,1.76c0.1,0.23,0.3,0.44,0.61,0.61c0.3,0.17,0.71,0.26,1.24,0.26l0.61,0l0,0.5l-9.63,0l0,-0.5l0.61,0c0.53,0,0.96,-0.09,1.28,-0.28c0.23,-0.12,0.42,-0.34,0.55,-0.65c0.09,-0.21,0.14,-0.78,0.14,-1.71l0,-14.19l-1.33,0c-1.23,0,-2.14,0.26,-2.7,0.78c-0.78,0.73,-1.28,1.77,-1.49,3.13l-0.51,0l0,-4.98l16.53,0m4.99,-0.43c0.58,0,1.08,0.2,1.49,0.61c0.4,0.41,0.61,0.9,0.61,1.48c0,0.57,-0.2,1.07,-0.61,1.47c-0.41,0.4,-0.9,0.61,-1.48,0.61c-0.57,0,-1.07,-0.2,-1.47,-0.61c-0.4,-0.4,-0.61,-0.9,-0.61,-1.47c0,-0.57,0.2,-1.07,0.61,-1.48c0.4,-0.41,0.9,-0.61,1.47,-0.61m1.9,6.14l0,10.05c0,0.89,0.1,1.46,0.31,1.71c0.2,0.24,0.61,0.39,1.22,0.42l0,0.48l-6.85,0l0,-0.48c0.56,-0.01,0.97,-0.18,1.24,-0.48c0.18,-0.2,0.27,-0.76,0.27,-1.65l0,-7.41c0,-0.89,-0.1,-1.46,-0.31,-1.71c-0.2,-0.24,-0.61,-0.39,-1.2,-0.42l0,-0.5l5.32,0m8.03,0l0,1.66c0.69,-0.76,1.34,-1.29,1.93,-1.59c0.59,-0.3,1.24,-0.45,1.94,-0.45c0.81,0,1.49,0.19,2.04,0.57c0.55,0.38,0.97,0.95,1.27,1.73c0.72,-0.81,1.41,-1.4,2.08,-1.76c0.66,-0.36,1.35,-0.54,2.08,-0.54c0.87,0,1.57,0.2,2.09,0.6c0.52,0.4,0.88,0.91,1.08,1.53c0.2,0.61,0.3,1.6,0.3,2.96l0,5.19c0,0.97,0.08,1.58,0.26,1.81c0.17,0.23,0.54,0.38,1.1,0.46l0,0.48l-6.55,0l0,-0.48c0.51,-0.04,0.89,-0.24,1.14,-0.59c0.16,-0.24,0.24,-0.8,0.24,-1.68l0,-5.45c0,-1.13,-0.04,-1.85,-0.13,-2.15c-0.09,-0.3,-0.23,-0.53,-0.42,-0.68c-0.19,-0.14,-0.42,-0.22,-0.68,-0.22c-0.38,0,-0.78,0.14,-1.18,0.42c-0.39,0.28,-0.8,0.71,-1.2,1.28l0,6.81c0,0.91,0.07,1.48,0.23,1.72c0.2,0.33,0.6,0.52,1.19,0.55l0,0.48l-6.56,0l0,-0.48c0.35,-0.01,0.63,-0.1,0.83,-0.26c0.2,-0.15,0.33,-0.34,0.4,-0.57c0.06,-0.22,0.1,-0.7,0.1,-1.44l0,-5.45c0,-1.14,-0.04,-1.86,-0.13,-2.15c-0.09,-0.28,-0.24,-0.51,-0.45,-0.67c-0.21,-0.16,-0.44,-0.24,-0.68,-0.24c-0.36,0,-0.69,0.09,-0.99,0.28c-0.42,0.28,-0.87,0.76,-1.35,1.43l0,6.81c0,0.89,0.08,1.48,0.26,1.77c0.17,0.28,0.54,0.45,1.1,0.5l0,0.48l-6.54,0l0,-0.48c0.53,-0.05,0.91,-0.22,1.14,-0.51c0.15,-0.19,0.23,-0.78,0.23,-1.76l0,-7.16c0,-0.95,-0.08,-1.55,-0.26,-1.79c-0.17,-0.23,-0.54,-0.38,-1.1,-0.46l0,-0.5l5.17,0m28.64,5.89l-6.96,0c0.08,1.68,0.52,3.01,1.34,3.99c0.62,0.75,1.37,1.12,2.25,1.12c0.54,0,1.03,-0.15,1.47,-0.45c0.44,-0.3,0.91,-0.84,1.42,-1.63l0.46,0.29c-0.68,1.4,-1.44,2.39,-2.28,2.97c-0.83,0.58,-1.79,0.87,-2.89,0.87c-1.88,0,-3.3,-0.72,-4.27,-2.17c-0.77,-1.16,-1.16,-2.61,-1.16,-4.34c0,-2.11,0.57,-3.8,1.71,-5.05c1.14,-1.25,2.48,-1.88,4.02,-1.88c1.28,0,2.4,0.52,3.34,1.58c0.94,1.05,1.45,2.61,1.52,4.68m-3.33,-0.9c0,-1.45,-0.07,-2.45,-0.23,-2.99c-0.15,-0.54,-0.4,-0.95,-0.73,-1.23c-0.19,-0.16,-0.44,-0.24,-0.76,-0.24c-0.47,0,-0.85,0.23,-1.15,0.69c-0.53,0.8,-0.8,1.9,-0.8,3.31l0,0.47l3.69,0m19.87,-11.11l0,0.62c-0.94,0.61,-1.63,1.21,-2.07,1.8c-0.61,0.81,-1.09,1.85,-1.43,3.13c-0.43,1.58,-0.65,3.79,-0.65,6.63c0,2.67,0.19,4.76,0.59,6.24c0.39,1.48,0.92,2.68,1.6,3.59c0.47,0.63,1.12,1.19,1.96,1.66l0,0.67c-2.18,-0.73,-4.02,-2.22,-5.54,-4.48c-1.51,-2.25,-2.27,-4.85,-2.27,-7.78c0,-2.89,0.75,-5.45,2.26,-7.68c1.51,-2.23,3.36,-3.7,5.55,-4.43m13.51,6.13l0,9.93c0,0.96,0.09,1.57,0.27,1.81c0.18,0.23,0.54,0.39,1.09,0.45l0,0.48l-5.17,0l0,-1.69c-0.6,0.72,-1.21,1.25,-1.81,1.58c-0.6,0.33,-1.28,0.49,-2.03,0.49c-0.71,0,-1.35,-0.21,-1.9,-0.65c-0.55,-0.43,-0.92,-0.95,-1.11,-1.54c-0.19,-0.58,-0.28,-1.61,-0.28,-3.08l0,-5.03c0,-0.95,-0.08,-1.55,-0.26,-1.79c-0.17,-0.23,-0.54,-0.38,-1.1,-0.46l0,-0.5l5.17,0l0,8.67c0,0.9,0.04,1.48,0.12,1.75c0.08,0.26,0.22,0.46,0.4,0.59c0.18,0.13,0.4,0.2,0.64,0.2c0.32,0,0.61,-0.08,0.88,-0.25c0.36,-0.23,0.79,-0.71,1.3,-1.42l0,-6.78c0,-0.95,-0.08,-1.55,-0.26,-1.79c-0.17,-0.23,-0.54,-0.38,-1.1,-0.46l0,-0.5l5.17,0m11.22,-0.35l0.2,4.33l-0.46,0c-0.55,-1.28,-1.12,-2.16,-1.71,-2.63c-0.59,-0.47,-1.18,-0.7,-1.77,-0.7c-0.37,0,-0.68,0.12,-0.95,0.37c-0.26,0.24,-0.39,0.53,-0.39,0.86c0,0.24,0.09,0.47,0.27,0.7c0.28,0.37,1.09,1,2.42,1.9c1.33,0.9,2.2,1.66,2.62,2.29c0.42,0.62,0.63,1.33,0.63,2.11c0,0.7,-0.17,1.39,-0.52,2.07c-0.35,0.67,-0.85,1.19,-1.49,1.56c-0.64,0.36,-1.35,0.54,-2.13,0.54c-0.6,0,-1.41,-0.19,-2.42,-0.57c-0.27,-0.09,-0.45,-0.14,-0.55,-0.14c-0.29,0,-0.54,0.22,-0.74,0.67l-0.44,0l-0.21,-4.56l0.46,0c0.4,1.19,0.96,2.09,1.67,2.68c0.71,0.59,1.38,0.89,2.01,0.89c0.43,0,0.78,-0.13,1.06,-0.4c0.27,-0.26,0.41,-0.59,0.41,-0.97c0,-0.43,-0.13,-0.8,-0.4,-1.12c-0.27,-0.31,-0.87,-0.79,-1.81,-1.43c-1.38,-0.95,-2.28,-1.69,-2.68,-2.19c-0.59,-0.74,-0.89,-1.56,-0.89,-2.45c0,-0.97,0.33,-1.86,1.01,-2.65c0.67,-0.79,1.64,-1.18,2.92,-1.18c0.68,0,1.35,0.16,1.99,0.5c0.24,0.13,0.44,0.2,0.59,0.2c0.16,0,0.29,-0.03,0.39,-0.1c0.09,-0.06,0.25,-0.26,0.47,-0.57l0.46,0m2.19,18.61l0,-0.62c0.94,-0.62,1.63,-1.23,2.07,-1.81c0.6,-0.81,1.08,-1.85,1.43,-3.12c0.43,-1.59,0.65,-3.8,0.65,-6.65c0,-2.67,-0.19,-4.75,-0.59,-6.23c-0.39,-1.47,-0.92,-2.67,-1.6,-3.59c-0.47,-0.63,-1.12,-1.19,-1.96,-1.66l0,-0.67c2.18,0.73,4.02,2.22,5.54,4.48c1.51,2.25,2.27,4.85,2.27,7.78c0,2.88,-0.75,5.44,-2.27,7.67c-1.51,2.23,-3.36,3.71,-5.54,4.44" fill="#000000" stroke="none" fill-opacity="1"/>
<path d="m60.98,546.49c0,-2.09,0.31,-3.9,0.95,-5.42c0.63,-1.51,1.47,-2.64,2.52,-3.38c0.81,-0.58,1.65,-0.88,2.52,-0.88c1.41,0,2.67,0.71,3.8,2.15c1.4,1.78,2.1,4.19,2.1,7.24c0,2.13,-0.3,3.95,-0.92,5.44c-0.61,1.49,-1.4,2.57,-2.35,3.25c-0.95,0.67,-1.87,1.01,-2.76,1.01c-1.75,0,-3.21,-1.03,-4.38,-3.1c-0.98,-1.74,-1.47,-3.85,-1.47,-6.31m2.66,0.33c0,2.53,0.31,4.6,0.93,6.2c0.51,1.34,1.28,2.02,2.3,2.02c0.48,0,0.99,-0.21,1.52,-0.65c0.52,-0.43,0.92,-1.17,1.19,-2.2c0.41,-1.55,0.62,-3.75,0.62,-6.58c0,-2.09,-0.21,-3.85,-0.65,-5.25c-0.32,-1.04,-0.74,-1.77,-1.26,-2.21c-0.37,-0.29,-0.81,-0.44,-1.34,-0.44c-0.61,0,-1.16,0.27,-1.64,0.82c-0.65,0.75,-1.09,1.93,-1.33,3.54c-0.23,1.61,-0.35,3.19,-0.35,4.76" fill="#000000" stroke="none" fill-opacity="1"/>
<path d="m232.44,546.49c0,-2.09,0.31,-3.9,0.95,-5.42c0.63,-1.51,1.47,-2.64,2.52,-3.38c0.81,-0.58,1.65,-0.88,2.52,-0.88c1.41,0,2.67,0.71,3.8,2.15c1.4,1.78,2.1,4.19,2.1,7.24c0,2.13,-0.3,3.95,-0.92,5.44c-0.61,1.49,-1.4,2.57,-2.35,3.25c-0.95,0.67,-1.87,1.01,-2.76,1.01c-1.75,0,-3.21,-1.03,-4.38,-3.1c-0.98,-1.74,-1.47,-3.85,-1.47,-6.31m2.66,0.33c0,2.53,0.31,4.6,0.93,6.2c0.51,1.34,1.28,2.02,2.3,2.02c0.48,0,0.99,-0.21,1.52,-0.65c0.52,-0.43,0.92,-1.17,1.19,-2.2c0.41,-1.55,0.62,-3.75,0.62,-6.58c0,-2.09,-0.21,-3.85,-0.65,-5.25c-0.32,-1.04,-0.74,-1.77,-1.26,-2.21c-0.37,-0.29,-0.81,-0.44,-1.34,-0.44c-0.61,0,-1.16,0.27,-1.64,0.82c-0.65,0.75,-1.09,1.93,-1.33,3.54c-0.23,1.61,-0.35,3.19,-0.35,4.76m13.71,6.12c0.42,0,0.78,0.14,1.07,0.44c0.28,0.29,0.43,0.64,0.43,1.06c0,0.41,-0.14,0.77,-0.44,1.06c-0.29,0.29,-0.64,0.44,-1.06,0.44c-0.41,0,-0.77,-0.14,-1.06,-0.44c-0.29,-0.29,-0.44,-0.64,-0.44,-1.06c0,-0.42,0.14,-0.78,0.44,-1.07c0.29,-0.28,0.64,-0.43,1.06,-0.43m16.22,-0.9l-1.28,3.54l-10.85,0l0,-0.5c3.19,-2.91,5.44,-5.29,6.74,-7.14c1.3,-1.84,1.95,-3.53,1.95,-5.06c0,-1.16,-0.35,-2.12,-1.07,-2.87c-0.71,-0.75,-1.57,-1.12,-2.56,-1.12c-0.9,0,-1.71,0.26,-2.43,0.79c-0.71,0.52,-1.25,1.3,-1.59,2.32l-0.5,0c0.22,-1.67,0.8,-2.95,1.74,-3.85c0.93,-0.89,2.1,-1.34,3.5,-1.34c1.49,0,2.73,0.47,3.73,1.43c1,0.95,1.5,2.09,1.5,3.39c0,0.93,-0.21,1.86,-0.65,2.79c-0.66,1.46,-1.75,3.01,-3.25,4.65c-2.25,2.46,-3.66,3.94,-4.22,4.45l4.8,0c0.97,0,1.66,-0.03,2.05,-0.1c0.39,-0.07,0.74,-0.21,1.06,-0.44c0.31,-0.22,0.59,-0.53,0.82,-0.94l0.5,0" fill="#000000" stroke="none" fill-opacity="1"/>
<path d="m414.33,546.49c0,-2.09,0.31,-3.9,0.95,-5.42c0.63,-1.51,1.47,-2.64,2.52,-3.38c0.81,-0.58,1.65,-0.88,2.52,-0.88c1.41,0,2.67,0.71,3.8,2.15c1.4,1.78,2.1,4.19,2.1,7.24c0,2.13,-0.3,3.95,-0.92,5.44c-0.61,1.49,-1.4,2.57,-2.35,3.25c-0.95,0.67,-1.87,1.01,-2.76,1.01c-1.75,0,-3.21,-1.03,-4.38,-3.1c-0.98,-1.74,-1.47,-3.85,-1.47,-6.31m2.66,0.33c0,2.53,0.31,4.6,0.93,6.2c0.51,1.34,1.28,2.02,2.3,2.02c0.48,0,0.99,-0.21,1.52,-0.65c0.52,-0.43,0.92,-1.17,1.19,-2.2c0.41,-1.55,0.62,-3.75,0.62,-6.58c0,-2.09,-0.21,-3.85,-0.65,-5.25c-0.32,-1.04,-0.74,-1.77,-1.26,-2.21c-0.37,-0.29,-0.81,-0.44,-1.34,-0.44c-0.61,0,-1.16,0.27,-1.64,0.82c-0.65,0.75,-1.09,1.93,-1.33,3.54c-0.23,1.61,-0.35,3.19,-0.35,4.76m13.71,6.12c0.42,0,0.78,0.14,1.07,0.44c0.28,0.29,0.43,0.64,0.43,1.06c0,0.41,-0.14,0.77,-0.44,1.06c-0.29,0.29,-0.64,0.44,-1.06,0.44c-0.41,0,-0.77,-0.14,-1.06,-0.44c-0.29,-0.29,-0.44,-0.64,-0.44,-1.06c0,-0.42,0.14,-0.78,0.44,-1.07c0.29,-0.28,0.64,-0.43,1.06,-0.43m16.41,-4.15l0,1.92l-2.47,0l0,4.85l-2.23,0l0,-4.85l-7.79,0l0,-1.73l8.53,-12.18l1.49,0l0,11.99l2.47,0m-4.71,0l0,-9.13l-6.46,9.13l6.46,0" fill="#000000" stroke="none" fill-opacity="1"/>
<path d="m596.22,546.49c0,-2.09,0.31,-3.9,0.95,-5.42c0.63,-1.51,1.47,-2.64,2.52,-3.38c0.81,-0.58,1.65,-0.88,2.52,-0.88c1.41,0,2.67,0.71,3.8,2.15c1.4,1.78,2.1,4.19,2.1,7.24c0,2.13,-0.3,3.95,-0.92,5.44c-0.61,1.49,-1.4,2.57,-2.35,3.25c-0.95,0.67,-1.87,1.01,-2.76,1.01c-1.75,0,-3.21,-1.03,-4.38,-3.1c-0.98,-1.74,-1.47,-3.85,-1.47,-6.31m2.66,0.33c0,2.53,0.31,4.6,0.93,6.2c0.51,1.34,1.28,2.02,2.3,2.02c0.48,0,0.99,-0.21,1.52,-0.65c0.52,-0.43,0.92,-1.17,1.19,-2.2c0.41,-1.55,0.62,-3.75,0.62,-6.58c0,-2.09,-0.21,-3.85,-0.65,-5.25c-0.32,-1.04,-0.74,-1.77,-1.26,-2.21c-0.37,-0.29,-0.81,-0.44,-1.34,-0.44c-0.61,0,-1.16,0.27,-1.64,0.82c-0.65,0.75,-1.09,1.93,-1.33,3.54c-0.23,1.61,-0.35,3.19,-0.35,4.76m13.71,6.12c0.42,0,0.78,0.14,1.07,0.44c0.28,0.29,0.43,0.64,0.43,1.06c0,0.41,-0.14,0.77,-0.44,1.06c-0.29,0.29,-0.64,0.44,-1.06,0.44c-0.41,0,-0.77,-0.14,-1.06,-0.44c-0.29,-0.29,-0.44,-0.64,-0.44,-1.06c0,-0.42,0.14,-0.78,0.44,-1.07c0.29,-0.28,0.64,-0.43,1.06,-0.43m15.93,-16.15l0,0.5c-1.19,0.11,-2.16,0.35,-2.92,0.71c-0.75,0.35,-1.5,0.9,-2.23,1.63c-0.73,0.73,-1.34,1.54,-1.83,2.45c-0.48,0.9,-0.88,1.97,-1.21,3.21c1.3,-0.89,2.61,-1.34,3.92,-1.34c1.25,0,2.34,0.5,3.27,1.52c0.92,1.01,1.38,2.31,1.38,3.9c0,1.53,-0.46,2.94,-1.39,4.2c-1.12,1.53,-2.6,2.3,-4.45,2.3c-1.25,0,-2.32,-0.41,-3.2,-1.24c-1.71,-1.61,-2.57,-3.71,-2.57,-6.29c0,-1.64,0.33,-3.21,0.99,-4.69c0.66,-1.48,1.6,-2.8,2.83,-3.95c1.22,-1.14,2.4,-1.92,3.52,-2.32c1.12,-0.39,2.16,-0.59,3.13,-0.59l0.78,0m-8.44,9.5c-0.16,1.22,-0.24,2.2,-0.24,2.95c0,0.86,0.16,1.81,0.48,2.83c0.32,1.01,0.79,1.82,1.43,2.42c0.46,0.42,1.02,0.63,1.68,0.63c0.78,0,1.49,-0.37,2.11,-1.11c0.61,-0.74,0.92,-1.8,0.92,-3.17c0,-1.54,-0.3,-2.88,-0.92,-4.01c-0.61,-1.13,-1.48,-1.69,-2.61,-1.69c-0.34,0,-0.71,0.07,-1.1,0.21c-0.39,0.14,-0.97,0.45,-1.74,0.93" fill="#000000" stroke="none" fill-opacity="1"/>
<path d="m778.11,546.49c0,-2.09,0.31,-3.9,0.95,-5.42c0.63,-1.51,1.47,-2.64,2.52,-3.38c0.81,-0.58,1.65,-0.88,2.52,-0.88c1.41,0,2.67,0.71,3.8,2.15c1.4,1.78,2.1,4.19,2.1,7.24c0,2.13,-0.3,3.95,-0.92,5.44c-0.61,1.49,-1.4,2.57,-2.35,3.25c-0.95,0.67,-1.87,1.01,-2.76,1.01c-1.75,0,-3.21,-1.03,-4.38,-3.1c-0.98,-1.74,-1.47,-3.85,-1.47,-6.31m2.66,0.33c0,2.53,0.31,4.6,0.93,6.2c0.51,1.34,1.28,2.02,2.3,2.02c0.48,0,0.99,-0.21,1.52,-0.65c0.52,-0.43,0.92,-1.17,1.19,-2.2c0.41,-1.55,0.62,-3.75,0.62,-6.58c0,-2.09,-0.21,-3.85,-0.65,-5.25c-0.32,-1.04,-0.74,-1.77,-1.26,-2.21c-0.37,-0.29,-0.81,-0.44,-1.34,-0.44c-0.61,0,-1.16,0.27,-1.64,0.82c-0.65,0.75,-1.09,1.93,-1.33,3.54c-0.23,1.61,-0.35,3.19,-0.35,4.76m13.71,6.12c0.42,0,0.78,0.14,1.07,0.44c0.28,0.29,0.43,0.64,0.43,1.06c0,0.41,-0.14,0.77,-0.44,1.06c-0.29,0.29,-0.64,0.44,-1.06,0.44c-0.41,0,-0.77,-0.14,-1.06,-0.44c-0.29,-0.29,-0.44,-0.64,-0.44,-1.06c0,-0.42,0.14,-0.78,0.44,-1.07c0.29,-0.28,0.64,-0.43,1.06,-0.43m8.8,-6.63c-1.45,-1.19,-2.39,-2.15,-2.81,-2.87c-0.42,-0.72,-0.63,-1.47,-0.63,-2.25c0,-1.19,0.46,-2.22,1.38,-3.08c0.92,-0.86,2.14,-1.29,3.67,-1.29c1.48,0,2.67,0.4,3.58,1.2c0.9,0.8,1.35,1.72,1.35,2.75c0,0.68,-0.24,1.38,-0.73,2.1c-0.48,0.71,-1.5,1.55,-3.05,2.52c1.59,1.23,2.64,2.19,3.16,2.9c0.68,0.92,1.03,1.89,1.03,2.91c0,1.29,-0.49,2.4,-1.47,3.31c-0.98,0.91,-2.28,1.37,-3.88,1.37c-1.74,0,-3.1,-0.54,-4.08,-1.64c-0.77,-0.87,-1.16,-1.83,-1.16,-2.87c0,-0.81,0.27,-1.62,0.82,-2.42c0.54,-0.8,1.49,-1.68,2.83,-2.65m2.13,-1.45c1.08,-0.97,1.77,-1.74,2.06,-2.31c0.28,-0.56,0.43,-1.2,0.43,-1.92c0,-0.95,-0.26,-1.69,-0.8,-2.23c-0.53,-0.53,-1.26,-0.8,-2.18,-0.8c-0.92,0,-1.67,0.26,-2.25,0.8c-0.57,0.53,-0.86,1.15,-0.86,1.87c0,0.47,0.11,0.94,0.35,1.41c0.23,0.47,0.58,0.91,1.02,1.34l2.22,1.84m-1.49,1.96c-0.75,0.63,-1.3,1.32,-1.66,2.07c-0.36,0.74,-0.54,1.55,-0.54,2.42c0,1.16,0.31,2.1,0.95,2.8c0.63,0.7,1.45,1.05,2.43,1.05c0.97,0,1.76,-0.27,2.34,-0.82c0.58,-0.55,0.88,-1.22,0.88,-2c0,-0.65,-0.17,-1.23,-0.51,-1.75c-0.64,-0.95,-1.94,-2.21,-3.89,-3.76" fill="#000000" stroke="none" fill-opacity="1"/>
<path d="m972.68,538.98l4.47,-2.18l0.44,0l0,15.54c0,1.03,0.04,1.67,0.12,1.92c0.08,0.25,0.26,0.44,0.53,0.58c0.27,0.13,0.82,0.21,1.65,0.23l0,0.5l-6.92,0l0,-0.5c0.86,-0.01,1.42,-0.09,1.68,-0.22c0.25,-0.13,0.42,-0.3,0.52,-0.52c0.09,-0.22,0.14,-0.88,0.14,-1.98l0,-9.93c0,-1.33,-0.04,-2.19,-0.13,-2.57c-0.06,-0.28,-0.17,-0.5,-0.34,-0.63c-0.16,-0.13,-0.36,-0.2,-0.6,-0.2c-0.33,0,-0.8,0.14,-1.39,0.42l-0.2,-0.42" fill="#000000" stroke="none" fill-opacity="1"/>
</g>
<g fill="none" stroke-linecap="butt" stroke-width="0.69">
<path d="M66.92,7.87l909.44,0"/>
<path d="M66.92,7.87l0,4.16M112.4,7.87l0,4.16M157.87,7.87l0,4.16M203.34,7.87l0,4.16M248.81,7.87l0,4.16M294.29,7.87l0,4.16M339.76,7.87l0,4.16M385.23,7.87l0,4.16M430.7,7.87l0,4.16M476.18,7.87l0,4.16M521.65,7.87l0,4.16M567.12,7.87l0,4.16M612.59,7.87l0,4.16M658.07,7.87l0,4.16M703.54,7.87l0,4.16M749.01,7.87l0,4.16M794.48,7.87l0,4.16M839.96,7.87l0,4.16M885.43,7.87l0,4.16M930.9,7.87l0,4.16M976.37,7.87l0,4.16"/>
<path d="M66.92,7.87l0,8.33M248.81,7.87l0,8.33M430.7,7.87l0,8.33M612.59,7.87l0,8.33M794.48,7.87l0,8.33M976.37,7.87l0,8.33"/>
</g>
</g>
</g>
</svg>
